STARTFONT 2.1
FONT -Shinonome-Gothic-Medium-R-Normal--12-110-75-75-C-0-ISO10646-1
SIZE 12 75 75
FONTBOUNDINGBOX 12 12 0 -2
STARTPROPERTIES 19
FONTNAME_REGISTRY ""
FOUNDRY "Shinonome"
FAMILY_NAME "Gothic"
WEIGHT_NAME "Medium"
SLANT "R"
SETWIDTH_NAME "Normal"
ADD_STYLE_NAME ""
PIXEL_SIZE 12
POINT_SIZE 110
RESOLUTION_X 75
RESOLUTION_Y 75
SPACING "C"
AVERAGE_WIDTH 0
CHARSET_REGISTRY "ISO10646"
CHARSET_ENCODING "1"
COPYRIGHT "Public Domain"
DEFAULT_CHAR 8481
FONT_ASCENT 10
FONT_DESCENT 2
ENDPROPERTIES
CHARS 7127
STARTCHAR U0020
ENCODING 32
SWIDTH 960 0
DWIDTH 6 0
BBX 6 12 0 -2
BITMAP
00
00
00
00
00
00
00
00
00
00
00
00
ENDCHAR
STARTCHAR U0021
ENCODING 33
SWIDTH 960 0
DWIDTH 6 0
BBX 6 12 0 -2
BITMAP
00
20
20
20
20
20
20
20
00
20
00
00
ENDCHAR
STARTCHAR U0022
ENCODING 34
SWIDTH 960 0
DWIDTH 6 0
BBX 6 12 0 -2
BITMAP
00
50
50
50
00
00
00
00
00
00
00
00
ENDCHAR
STARTCHAR U0023
ENCODING 35
SWIDTH 960 0
DWIDTH 6 0
BBX 6 12 0 -2
BITMAP
00
50
50
f8
50
50
50
f8
50
50
00
00
ENDCHAR
STARTCHAR U0024
ENCODING 36
SWIDTH 960 0
DWIDTH 6 0
BBX 6 12 0 -2
BITMAP
00
20
70
a8
a8
60
30
28
a8
70
20
00
ENDCHAR
STARTCHAR U0025
ENCODING 37
SWIDTH 960 0
DWIDTH 6 0
BBX 6 12 0 -2
BITMAP
00
48
a8
50
10
20
20
50
68
90
80
00
ENDCHAR
STARTCHAR U0026
ENCODING 38
SWIDTH 960 0
DWIDTH 6 0
BBX 6 12 0 -2
BITMAP
00
60
90
90
60
40
a8
90
90
68
00
00
ENDCHAR
STARTCHAR U0027
ENCODING 39
SWIDTH 960 0
DWIDTH 6 0
BBX 6 12 0 -2
BITMAP
00
30
10
20
00
00
00
00
00
00
00
00
ENDCHAR
STARTCHAR U0028
ENCODING 40
SWIDTH 960 0
DWIDTH 6 0
BBX 6 12 0 -2
BITMAP
00
08
10
10
20
20
20
20
10
10
08
00
ENDCHAR
STARTCHAR U0029
ENCODING 41
SWIDTH 960 0
DWIDTH 6 0
BBX 6 12 0 -2
BITMAP
00
80
40
40
20
20
20
20
40
40
80
00
ENDCHAR
STARTCHAR U002A
ENCODING 42
SWIDTH 960 0
DWIDTH 6 0
BBX 6 12 0 -2
BITMAP
00
00
00
20
a8
70
a8
20
00
00
00
00
ENDCHAR
STARTCHAR U002B
ENCODING 43
SWIDTH 960 0
DWIDTH 6 0
BBX 6 12 0 -2
BITMAP
00
00
00
20
20
f8
20
20
00
00
00
00
ENDCHAR
STARTCHAR U002C
ENCODING 44
SWIDTH 960 0
DWIDTH 6 0
BBX 6 12 0 -2
BITMAP
00
00
00
00
00
00
00
00
20
20
40
00
ENDCHAR
STARTCHAR U002D
ENCODING 45
SWIDTH 960 0
DWIDTH 6 0
BBX 6 12 0 -2
BITMAP
00
00
00
00
00
f8
00
00
00
00
00
00
ENDCHAR
STARTCHAR U002E
ENCODING 46
SWIDTH 960 0
DWIDTH 6 0
BBX 6 12 0 -2
BITMAP
00
00
00
00
00
00
00
00
20
00
00
00
ENDCHAR
STARTCHAR U002F
ENCODING 47
SWIDTH 960 0
DWIDTH 6 0
BBX 6 12 0 -2
BITMAP
00
08
08
10
10
20
20
40
40
80
80
00
ENDCHAR
STARTCHAR U0030
ENCODING 48
SWIDTH 960 0
DWIDTH 6 0
BBX 6 12 0 -2
BITMAP
00
30
48
48
48
48
48
48
48
30
00
00
ENDCHAR
STARTCHAR U0031
ENCODING 49
SWIDTH 960 0
DWIDTH 6 0
BBX 6 12 0 -2
BITMAP
00
20
e0
20
20
20
20
20
20
20
00
00
ENDCHAR
STARTCHAR U0032
ENCODING 50
SWIDTH 960 0
DWIDTH 6 0
BBX 6 12 0 -2
BITMAP
00
70
88
88
08
10
20
40
80
f8
00
00
ENDCHAR
STARTCHAR U0033
ENCODING 51
SWIDTH 960 0
DWIDTH 6 0
BBX 6 12 0 -2
BITMAP
00
70
88
08
30
08
08
88
88
70
00
00
ENDCHAR
STARTCHAR U0034
ENCODING 52
SWIDTH 960 0
DWIDTH 6 0
BBX 6 12 0 -2
BITMAP
00
10
30
30
50
50
90
f8
10
10
00
00
ENDCHAR
STARTCHAR U0035
ENCODING 53
SWIDTH 960 0
DWIDTH 6 0
BBX 6 12 0 -2
BITMAP
00
f0
80
80
f0
88
08
08
88
70
00
00
ENDCHAR
STARTCHAR U0036
ENCODING 54
SWIDTH 960 0
DWIDTH 6 0
BBX 6 12 0 -2
BITMAP
00
30
40
80
f0
88
88
88
88
70
00
00
ENDCHAR
STARTCHAR U0037
ENCODING 55
SWIDTH 960 0
DWIDTH 6 0
BBX 6 12 0 -2
BITMAP
00
f8
08
10
10
10
20
20
20
20
00
00
ENDCHAR
STARTCHAR U0038
ENCODING 56
SWIDTH 960 0
DWIDTH 6 0
BBX 6 12 0 -2
BITMAP
00
70
88
88
70
88
88
88
88
70
00
00
ENDCHAR
STARTCHAR U0039
ENCODING 57
SWIDTH 960 0
DWIDTH 6 0
BBX 6 12 0 -2
BITMAP
00
70
88
88
88
78
08
08
10
60
00
00
ENDCHAR
STARTCHAR U003A
ENCODING 58
SWIDTH 960 0
DWIDTH 6 0
BBX 6 12 0 -2
BITMAP
00
00
00
00
20
00
00
20
00
00
00
00
ENDCHAR
STARTCHAR U003B
ENCODING 59
SWIDTH 960 0
DWIDTH 6 0
BBX 6 12 0 -2
BITMAP
00
00
00
20
00
00
20
20
40
00
00
00
ENDCHAR
STARTCHAR U003C
ENCODING 60
SWIDTH 960 0
DWIDTH 6 0
BBX 6 12 0 -2
BITMAP
00
00
08
10
20
40
20
10
08
00
00
00
ENDCHAR
STARTCHAR U003D
ENCODING 61
SWIDTH 960 0
DWIDTH 6 0
BBX 6 12 0 -2
BITMAP
00
00
00
00
f8
00
f8
00
00
00
00
00
ENDCHAR
STARTCHAR U003E
ENCODING 62
SWIDTH 960 0
DWIDTH 6 0
BBX 6 12 0 -2
BITMAP
00
00
40
20
10
08
10
20
40
00
00
00
ENDCHAR
STARTCHAR U003F
ENCODING 63
SWIDTH 960 0
DWIDTH 6 0
BBX 6 12 0 -2
BITMAP
00
70
88
88
10
10
20
20
00
20
00
00
ENDCHAR
STARTCHAR U0040
ENCODING 64
SWIDTH 960 0
DWIDTH 6 0
BBX 6 12 0 -2
BITMAP
00
70
88
98
a8
a8
a8
90
88
70
00
00
ENDCHAR
STARTCHAR U0041
ENCODING 65
SWIDTH 960 0
DWIDTH 6 0
BBX 6 12 0 -2
BITMAP
00
20
20
50
50
50
f8
88
88
88
00
00
ENDCHAR
STARTCHAR U0042
ENCODING 66
SWIDTH 960 0
DWIDTH 6 0
BBX 6 12 0 -2
BITMAP
00
f0
88
88
90
f0
88
88
88
f0
00
00
ENDCHAR
STARTCHAR U0043
ENCODING 67
SWIDTH 960 0
DWIDTH 6 0
BBX 6 12 0 -2
BITMAP
00
30
48
88
80
80
80
88
48
30
00
00
ENDCHAR
STARTCHAR U0044
ENCODING 68
SWIDTH 960 0
DWIDTH 6 0
BBX 6 12 0 -2
BITMAP
00
e0
90
88
88
88
88
88
90
e0
00
00
ENDCHAR
STARTCHAR U0045
ENCODING 69
SWIDTH 960 0
DWIDTH 6 0
BBX 6 12 0 -2
BITMAP
00
f8
80
80
80
f0
80
80
80
f8
00
00
ENDCHAR
STARTCHAR U0046
ENCODING 70
SWIDTH 960 0
DWIDTH 6 0
BBX 6 12 0 -2
BITMAP
00
f8
80
80
80
f0
80
80
80
80
00
00
ENDCHAR
STARTCHAR U0047
ENCODING 71
SWIDTH 960 0
DWIDTH 6 0
BBX 6 12 0 -2
BITMAP
00
30
48
80
80
b8
88
88
48
38
00
00
ENDCHAR
STARTCHAR U0048
ENCODING 72
SWIDTH 960 0
DWIDTH 6 0
BBX 6 12 0 -2
BITMAP
00
88
88
88
88
f8
88
88
88
88
00
00
ENDCHAR
STARTCHAR U0049
ENCODING 73
SWIDTH 960 0
DWIDTH 6 0
BBX 6 12 0 -2
BITMAP
00
70
20
20
20
20
20
20
20
70
00
00
ENDCHAR
STARTCHAR U004A
ENCODING 74
SWIDTH 960 0
DWIDTH 6 0
BBX 6 12 0 -2
BITMAP
00
10
10
10
10
10
10
90
90
60
00
00
ENDCHAR
STARTCHAR U004B
ENCODING 75
SWIDTH 960 0
DWIDTH 6 0
BBX 6 12 0 -2
BITMAP
00
88
90
a0
c0
a0
a0
90
90
88
00
00
ENDCHAR
STARTCHAR U004C
ENCODING 76
SWIDTH 960 0
DWIDTH 6 0
BBX 6 12 0 -2
BITMAP
00
80
80
80
80
80
80
80
80
f8
00
00
ENDCHAR
STARTCHAR U004D
ENCODING 77
SWIDTH 960 0
DWIDTH 6 0
BBX 6 12 0 -2
BITMAP
00
88
88
d8
d8
d8
a8
a8
a8
88
00
00
ENDCHAR
STARTCHAR U004E
ENCODING 78
SWIDTH 960 0
DWIDTH 6 0
BBX 6 12 0 -2
BITMAP
00
88
c8
c8
a8
a8
98
98
88
88
00
00
ENDCHAR
STARTCHAR U004F
ENCODING 79
SWIDTH 960 0
DWIDTH 6 0
BBX 6 12 0 -2
BITMAP
00
70
88
88
88
88
88
88
88
70
00
00
ENDCHAR
STARTCHAR U0050
ENCODING 80
SWIDTH 960 0
DWIDTH 6 0
BBX 6 12 0 -2
BITMAP
00
f0
88
88
88
f0
80
80
80
80
00
00
ENDCHAR
STARTCHAR U0051
ENCODING 81
SWIDTH 960 0
DWIDTH 6 0
BBX 6 12 0 -2
BITMAP
00
70
88
88
88
88
88
a8
90
68
00
00
ENDCHAR
STARTCHAR U0052
ENCODING 82
SWIDTH 960 0
DWIDTH 6 0
BBX 6 12 0 -2
BITMAP
00
f0
88
88
88
f0
90
88
88
88
00
00
ENDCHAR
STARTCHAR U0053
ENCODING 83
SWIDTH 960 0
DWIDTH 6 0
BBX 6 12 0 -2
BITMAP
00
70
88
80
60
10
08
88
88
70
00
00
ENDCHAR
STARTCHAR U0054
ENCODING 84
SWIDTH 960 0
DWIDTH 6 0
BBX 6 12 0 -2
BITMAP
00
f8
20
20
20
20
20
20
20
20
00
00
ENDCHAR
STARTCHAR U0055
ENCODING 85
SWIDTH 960 0
DWIDTH 6 0
BBX 6 12 0 -2
BITMAP
00
88
88
88
88
88
88
88
88
70
00
00
ENDCHAR
STARTCHAR U0056
ENCODING 86
SWIDTH 960 0
DWIDTH 6 0
BBX 6 12 0 -2
BITMAP
00
88
88
88
88
50
50
50
20
20
00
00
ENDCHAR
STARTCHAR U0057
ENCODING 87
SWIDTH 960 0
DWIDTH 6 0
BBX 6 12 0 -2
BITMAP
00
a8
a8
a8
a8
a8
a8
50
50
50
00
00
ENDCHAR
STARTCHAR U0058
ENCODING 88
SWIDTH 960 0
DWIDTH 6 0
BBX 6 12 0 -2
BITMAP
00
88
88
50
50
20
50
50
88
88
00
00
ENDCHAR
STARTCHAR U0059
ENCODING 89
SWIDTH 960 0
DWIDTH 6 0
BBX 6 12 0 -2
BITMAP
00
88
88
50
50
20
20
20
20
20
00
00
ENDCHAR
STARTCHAR U005A
ENCODING 90
SWIDTH 960 0
DWIDTH 6 0
BBX 6 12 0 -2
BITMAP
00
f8
08
10
10
20
40
40
80
f8
00
00
ENDCHAR
STARTCHAR U005B
ENCODING 91
SWIDTH 960 0
DWIDTH 6 0
BBX 6 12 0 -2
BITMAP
00
38
20
20
20
20
20
20
20
20
20
38
ENDCHAR
STARTCHAR U005C
ENCODING 92
SWIDTH 960 0
DWIDTH 6 0
BBX 6 12 0 -2
BITMAP
00
80
80
40
40
20
20
10
10
08
08
00
ENDCHAR
STARTCHAR U005D
ENCODING 93
SWIDTH 960 0
DWIDTH 6 0
BBX 6 12 0 -2
BITMAP
00
70
10
10
10
10
10
10
10
10
10
70
ENDCHAR
STARTCHAR U005E
ENCODING 94
SWIDTH 960 0
DWIDTH 6 0
BBX 6 12 0 -2
BITMAP
00
20
50
88
00
00
00
00
00
00
00
00
ENDCHAR
STARTCHAR U005F
ENCODING 95
SWIDTH 960 0
DWIDTH 6 0
BBX 6 12 0 -2
BITMAP
00
00
00
00
00
00
00
00
00
f8
00
00
ENDCHAR
STARTCHAR U0060
ENCODING 96
SWIDTH 960 0
DWIDTH 6 0
BBX 6 12 0 -2
BITMAP
00
30
20
10
00
00
00
00
00
00
00
00
ENDCHAR
STARTCHAR U0061
ENCODING 97
SWIDTH 960 0
DWIDTH 6 0
BBX 6 12 0 -2
BITMAP
00
00
00
70
88
18
68
88
98
68
00
00
ENDCHAR
STARTCHAR U0062
ENCODING 98
SWIDTH 960 0
DWIDTH 6 0
BBX 6 12 0 -2
BITMAP
00
80
80
b0
c8
88
88
88
c8
b0
00
00
ENDCHAR
STARTCHAR U0063
ENCODING 99
SWIDTH 960 0
DWIDTH 6 0
BBX 6 12 0 -2
BITMAP
00
00
00
70
88
80
80
80
88
70
00
00
ENDCHAR
STARTCHAR U0064
ENCODING 100
SWIDTH 960 0
DWIDTH 6 0
BBX 6 12 0 -2
BITMAP
00
08
08
68
98
88
88
88
98
68
00
00
ENDCHAR
STARTCHAR U0065
ENCODING 101
SWIDTH 960 0
DWIDTH 6 0
BBX 6 12 0 -2
BITMAP
00
00
00
70
88
88
f8
80
88
70
00
00
ENDCHAR
STARTCHAR U0066
ENCODING 102
SWIDTH 960 0
DWIDTH 6 0
BBX 6 12 0 -2
BITMAP
00
18
20
70
20
20
20
20
20
20
00
00
ENDCHAR
STARTCHAR U0067
ENCODING 103
SWIDTH 960 0
DWIDTH 6 0
BBX 6 12 0 -2
BITMAP
00
00
00
78
88
88
88
98
68
08
88
70
ENDCHAR
STARTCHAR U0068
ENCODING 104
SWIDTH 960 0
DWIDTH 6 0
BBX 6 12 0 -2
BITMAP
00
80
80
b0
c8
88
88
88
88
88
00
00
ENDCHAR
STARTCHAR U0069
ENCODING 105
SWIDTH 960 0
DWIDTH 6 0
BBX 6 12 0 -2
BITMAP
00
20
00
20
20
20
20
20
20
20
00
00
ENDCHAR
STARTCHAR U006A
ENCODING 106
SWIDTH 960 0
DWIDTH 6 0
BBX 6 12 0 -2
BITMAP
00
20
00
20
20
20
20
20
20
20
20
40
ENDCHAR
STARTCHAR U006B
ENCODING 107
SWIDTH 960 0
DWIDTH 6 0
BBX 6 12 0 -2
BITMAP
00
80
80
80
90
a0
c0
a0
90
88
00
00
ENDCHAR
STARTCHAR U006C
ENCODING 108
SWIDTH 960 0
DWIDTH 6 0
BBX 6 12 0 -2
BITMAP
00
20
20
20
20
20
20
20
20
20
00
00
ENDCHAR
STARTCHAR U006D
ENCODING 109
SWIDTH 960 0
DWIDTH 6 0
BBX 6 12 0 -2
BITMAP
00
00
00
f0
a8
a8
a8
a8
a8
a8
00
00
ENDCHAR
STARTCHAR U006E
ENCODING 110
SWIDTH 960 0
DWIDTH 6 0
BBX 6 12 0 -2
BITMAP
00
00
00
b0
c8
88
88
88
88
88
00
00
ENDCHAR
STARTCHAR U006F
ENCODING 111
SWIDTH 960 0
DWIDTH 6 0
BBX 6 12 0 -2
BITMAP
00
00
00
70
88
88
88
88
88
70
00
00
ENDCHAR
STARTCHAR U0070
ENCODING 112
SWIDTH 960 0
DWIDTH 6 0
BBX 6 12 0 -2
BITMAP
00
00
00
b0
c8
88
88
88
c8
b0
80
80
ENDCHAR
STARTCHAR U0071
ENCODING 113
SWIDTH 960 0
DWIDTH 6 0
BBX 6 12 0 -2
BITMAP
00
00
00
68
98
88
88
88
98
68
08
08
ENDCHAR
STARTCHAR U0072
ENCODING 114
SWIDTH 960 0
DWIDTH 6 0
BBX 6 12 0 -2
BITMAP
00
00
00
58
60
40
40
40
40
40
00
00
ENDCHAR
STARTCHAR U0073
ENCODING 115
SWIDTH 960 0
DWIDTH 6 0
BBX 6 12 0 -2
BITMAP
00
00
00
70
88
40
30
08
88
70
00
00
ENDCHAR
STARTCHAR U0074
ENCODING 116
SWIDTH 960 0
DWIDTH 6 0
BBX 6 12 0 -2
BITMAP
00
40
40
f0
40
40
40
40
40
60
00
00
ENDCHAR
STARTCHAR U0075
ENCODING 117
SWIDTH 960 0
DWIDTH 6 0
BBX 6 12 0 -2
BITMAP
00
00
00
88
88
88
88
88
98
68
00
00
ENDCHAR
STARTCHAR U0076
ENCODING 118
SWIDTH 960 0
DWIDTH 6 0
BBX 6 12 0 -2
BITMAP
00
00
00
88
88
88
50
50
20
20
00
00
ENDCHAR
STARTCHAR U0077
ENCODING 119
SWIDTH 960 0
DWIDTH 6 0
BBX 6 12 0 -2
BITMAP
00
00
00
88
a8
a8
a8
a8
a8
50
00
00
ENDCHAR
STARTCHAR U0078
ENCODING 120
SWIDTH 960 0
DWIDTH 6 0
BBX 6 12 0 -2
BITMAP
00
00
00
88
50
50
20
50
50
88
00
00
ENDCHAR
STARTCHAR U0079
ENCODING 121
SWIDTH 960 0
DWIDTH 6 0
BBX 6 12 0 -2
BITMAP
00
00
00
88
88
48
50
50
20
20
40
80
ENDCHAR
STARTCHAR U007A
ENCODING 122
SWIDTH 960 0
DWIDTH 6 0
BBX 6 12 0 -2
BITMAP
00
00
00
f8
10
10
20
40
40
f8
00
00
ENDCHAR
STARTCHAR U007B
ENCODING 123
SWIDTH 960 0
DWIDTH 6 0
BBX 6 12 0 -2
BITMAP
00
08
10
10
10
10
20
10
10
10
10
08
ENDCHAR
STARTCHAR U007C
ENCODING 124
SWIDTH 960 0
DWIDTH 6 0
BBX 6 12 0 -2
BITMAP
00
20
20
20
20
20
20
20
20
20
20
20
ENDCHAR
STARTCHAR U007D
ENCODING 125
SWIDTH 960 0
DWIDTH 6 0
BBX 6 12 0 -2
BITMAP
00
40
20
20
20
20
10
20
20
20
20
40
ENDCHAR
STARTCHAR U007E
ENCODING 126
SWIDTH 960 0
DWIDTH 6 0
BBX 6 12 0 -2
BITMAP
00
00
00
48
b0
00
00
00
00
00
00
00
ENDCHAR
STARTCHAR U00A0
ENCODING 160
SWIDTH 960 0
DWIDTH 6 0
BBX 6 12 0 -2
BITMAP
00
00
00
00
00
00
00
00
00
00
00
00
ENDCHAR
STARTCHAR U00A1
ENCODING 161
SWIDTH 960 0
DWIDTH 6 0
BBX 6 12 0 -2
BITMAP
00
20
00
20
20
20
20
20
20
20
00
00
ENDCHAR
STARTCHAR U00A2
ENCODING 162
SWIDTH 960 0
DWIDTH 6 0
BBX 6 12 0 -2
BITMAP
00
00
10
70
98
a0
a0
a0
c8
70
40
00
ENDCHAR
STARTCHAR U00A3
ENCODING 163
SWIDTH 960 0
DWIDTH 6 0
BBX 6 12 0 -2
BITMAP
00
10
28
20
78
20
20
20
68
a8
50
00
ENDCHAR
STARTCHAR U00A4
ENCODING 164
SWIDTH 960 0
DWIDTH 6 0
BBX 6 12 0 -2
BITMAP
00
00
00
88
70
50
70
88
00
00
00
00
ENDCHAR
STARTCHAR U00A5
ENCODING 165
SWIDTH 960 0
DWIDTH 6 0
BBX 6 12 0 -2
BITMAP
00
88
88
50
f8
20
f8
20
20
20
00
00
ENDCHAR
STARTCHAR U00A6
ENCODING 166
SWIDTH 960 0
DWIDTH 6 0
BBX 6 12 0 -2
BITMAP
00
20
20
20
20
00
00
20
20
20
20
00
ENDCHAR
STARTCHAR U00A7
ENCODING 167
SWIDTH 960 0
DWIDTH 6 0
BBX 6 12 0 -2
BITMAP
00
30
48
40
30
48
30
08
48
48
30
00
ENDCHAR
STARTCHAR U00A8
ENCODING 168
SWIDTH 960 0
DWIDTH 6 0
BBX 6 12 0 -2
BITMAP
00
50
00
00
00
00
00
00
00
00
00
00
ENDCHAR
STARTCHAR U00A9
ENCODING 169
SWIDTH 960 0
DWIDTH 6 0
BBX 6 12 0 -2
BITMAP
00
70
88
b8
c8
c8
b8
88
70
00
00
00
ENDCHAR
STARTCHAR U00AA
ENCODING 170
SWIDTH 960 0
DWIDTH 6 0
BBX 6 12 0 -2
BITMAP
00
60
a0
a0
50
00
f0
00
00
00
00
00
ENDCHAR
STARTCHAR U00AB
ENCODING 171
SWIDTH 960 0
DWIDTH 6 0
BBX 6 12 0 -2
BITMAP
00
00
00
00
28
50
a0
50
28
00
00
00
ENDCHAR
STARTCHAR U00AC
ENCODING 172
SWIDTH 960 0
DWIDTH 6 0
BBX 6 12 0 -2
BITMAP
00
00
00
00
00
f8
08
08
00
00
00
00
ENDCHAR
STARTCHAR U00AD
ENCODING 173
SWIDTH 960 0
DWIDTH 6 0
BBX 6 12 0 -2
BITMAP
00
00
00
00
00
00
70
00
00
00
00
00
ENDCHAR
STARTCHAR U00AE
ENCODING 174
SWIDTH 960 0
DWIDTH 6 0
BBX 6 12 0 -2
BITMAP
00
78
84
b4
ac
b4
ac
ac
78
00
00
00
ENDCHAR
STARTCHAR U00AF
ENCODING 175
SWIDTH 960 0
DWIDTH 6 0
BBX 6 12 0 -2
BITMAP
00
70
00
00
00
00
00
00
00
00
00
00
ENDCHAR
STARTCHAR U00B0
ENCODING 176
SWIDTH 960 0
DWIDTH 6 0
BBX 6 12 0 -2
BITMAP
30
48
30
00
00
00
00
00
00
00
00
00
ENDCHAR
STARTCHAR U00B1
ENCODING 177
SWIDTH 960 0
DWIDTH 6 0
BBX 6 12 0 -2
BITMAP
00
00
00
20
20
f8
20
20
f8
00
00
00
ENDCHAR
STARTCHAR U00B2
ENCODING 178
SWIDTH 960 0
DWIDTH 6 0
BBX 6 12 0 -2
BITMAP
40
a0
20
40
e0
00
00
00
00
00
00
00
ENDCHAR
STARTCHAR U00B3
ENCODING 179
SWIDTH 960 0
DWIDTH 6 0
BBX 6 12 0 -2
BITMAP
c0
20
c0
20
c0
00
00
00
00
00
00
00
ENDCHAR
STARTCHAR U00B4
ENCODING 180
SWIDTH 960 0
DWIDTH 6 0
BBX 6 12 0 -2
BITMAP
30
40
00
00
00
00
00
00
00
00
00
00
ENDCHAR
STARTCHAR U00B5
ENCODING 181
SWIDTH 960 0
DWIDTH 6 0
BBX 6 12 0 -2
BITMAP
00
00
00
00
48
48
48
48
74
40
40
80
ENDCHAR
STARTCHAR U00B6
ENCODING 182
SWIDTH 960 0
DWIDTH 6 0
BBX 6 12 0 -2
BITMAP
00
38
68
68
28
28
28
28
28
28
28
00
ENDCHAR
STARTCHAR U00B7
ENCODING 183
SWIDTH 960 0
DWIDTH 6 0
BBX 6 12 0 -2
BITMAP
00
00
00
00
00
30
30
00
00
00
00
00
ENDCHAR
STARTCHAR U00B8
ENCODING 184
SWIDTH 960 0
DWIDTH 6 0
BBX 6 12 0 -2
BITMAP
00
00
00
00
00
00
00
00
40
60
10
60
ENDCHAR
STARTCHAR U00B9
ENCODING 185
SWIDTH 960 0
DWIDTH 6 0
BBX 6 12 0 -2
BITMAP
40
c0
40
40
40
00
00
00
00
00
00
00
ENDCHAR
STARTCHAR U00BA
ENCODING 186
SWIDTH 960 0
DWIDTH 6 0
BBX 6 12 0 -2
BITMAP
00
60
90
90
60
00
f0
00
00
00
00
00
ENDCHAR
STARTCHAR U00BB
ENCODING 187
SWIDTH 960 0
DWIDTH 6 0
BBX 6 12 0 -2
BITMAP
00
00
00
a0
50
28
50
a0
00
00
00
00
ENDCHAR
STARTCHAR U00BC
ENCODING 188
SWIDTH 960 0
DWIDTH 6 0
BBX 6 12 0 -2
BITMAP
80
90
a0
50
b0
38
10
00
00
00
00
00
ENDCHAR
STARTCHAR U00BD
ENCODING 189
SWIDTH 960 0
DWIDTH 6 0
BBX 6 12 0 -2
BITMAP
80
90
a0
58
88
10
38
00
00
00
00
00
ENDCHAR
STARTCHAR U00BE
ENCODING 190
SWIDTH 960 0
DWIDTH 6 0
BBX 6 12 0 -2
BITMAP
c0
20
e0
28
d8
28
3c
08
00
00
00
00
ENDCHAR
STARTCHAR U00BF
ENCODING 191
SWIDTH 960 0
DWIDTH 6 0
BBX 6 12 0 -2
BITMAP
00
20
00
20
20
40
40
88
88
70
00
00
ENDCHAR
STARTCHAR U00C0
ENCODING 192
SWIDTH 960 0
DWIDTH 6 0
BBX 6 12 0 -2
BITMAP
20
10
20
20
50
50
88
f8
88
88
00
00
ENDCHAR
STARTCHAR U00C1
ENCODING 193
SWIDTH 960 0
DWIDTH 6 0
BBX 6 12 0 -2
BITMAP
20
40
20
20
50
50
88
f8
88
88
00
00
ENDCHAR
STARTCHAR U00C2
ENCODING 194
SWIDTH 960 0
DWIDTH 6 0
BBX 6 12 0 -2
BITMAP
20
50
20
20
50
50
88
f8
88
88
00
00
ENDCHAR
STARTCHAR U00C3
ENCODING 195
SWIDTH 960 0
DWIDTH 6 0
BBX 6 12 0 -2
BITMAP
50
a0
20
20
50
50
88
f8
88
88
00
00
ENDCHAR
STARTCHAR U00C4
ENCODING 196
SWIDTH 960 0
DWIDTH 6 0
BBX 6 12 0 -2
BITMAP
50
00
20
20
50
50
88
f8
88
88
00
00
ENDCHAR
STARTCHAR U00C5
ENCODING 197
SWIDTH 960 0
DWIDTH 6 0
BBX 6 12 0 -2
BITMAP
20
50
20
20
50
50
88
f8
88
88
00
00
ENDCHAR
STARTCHAR U00C6
ENCODING 198
SWIDTH 960 0
DWIDTH 6 0
BBX 6 12 0 -2
BITMAP
00
78
60
a0
a0
f8
a0
a0
a0
b8
00
00
ENDCHAR
STARTCHAR U00C7
ENCODING 199
SWIDTH 960 0
DWIDTH 6 0
BBX 6 12 0 -2
BITMAP
00
30
48
80
80
80
80
48
30
10
60
00
ENDCHAR
STARTCHAR U00C8
ENCODING 200
SWIDTH 960 0
DWIDTH 6 0
BBX 6 12 0 -2
BITMAP
40
20
f8
80
80
f0
80
80
80
f8
00
00
ENDCHAR
STARTCHAR U00C9
ENCODING 201
SWIDTH 960 0
DWIDTH 6 0
BBX 6 12 0 -2
BITMAP
10
20
f8
80
80
f0
80
80
80
f8
00
00
ENDCHAR
STARTCHAR U00CA
ENCODING 202
SWIDTH 960 0
DWIDTH 6 0
BBX 6 12 0 -2
BITMAP
20
50
f8
80
80
f0
80
80
80
f8
00
00
ENDCHAR
STARTCHAR U00CB
ENCODING 203
SWIDTH 960 0
DWIDTH 6 0
BBX 6 12 0 -2
BITMAP
50
00
f8
80
80
f0
80
80
80
f8
00
00
ENDCHAR
STARTCHAR U00CC
ENCODING 204
SWIDTH 960 0
DWIDTH 6 0
BBX 6 12 0 -2
BITMAP
40
20
70
20
20
20
20
20
20
70
00
00
ENDCHAR
STARTCHAR U00CD
ENCODING 205
SWIDTH 960 0
DWIDTH 6 0
BBX 6 12 0 -2
BITMAP
10
20
70
20
20
20
20
20
20
70
00
00
ENDCHAR
STARTCHAR U00CE
ENCODING 206
SWIDTH 960 0
DWIDTH 6 0
BBX 6 12 0 -2
BITMAP
20
50
00
70
20
20
20
20
20
70
00
00
ENDCHAR
STARTCHAR U00CF
ENCODING 207
SWIDTH 960 0
DWIDTH 6 0
BBX 6 12 0 -2
BITMAP
50
00
70
20
20
20
20
20
20
70
00
00
ENDCHAR
STARTCHAR U00D0
ENCODING 208
SWIDTH 960 0
DWIDTH 6 0
BBX 6 12 0 -2
BITMAP
00
e0
90
88
88
c8
88
88
90
e0
00
00
ENDCHAR
STARTCHAR U00D1
ENCODING 209
SWIDTH 960 0
DWIDTH 6 0
BBX 6 12 0 -2
BITMAP
50
a0
88
c8
a8
a8
98
98
88
88
00
00
ENDCHAR
STARTCHAR U00D2
ENCODING 210
SWIDTH 960 0
DWIDTH 6 0
BBX 6 12 0 -2
BITMAP
40
20
70
88
88
88
88
88
88
70
00
00
ENDCHAR
STARTCHAR U00D3
ENCODING 211
SWIDTH 960 0
DWIDTH 6 0
BBX 6 12 0 -2
BITMAP
10
20
70
88
88
88
88
88
88
70
00
00
ENDCHAR
STARTCHAR U00D4
ENCODING 212
SWIDTH 960 0
DWIDTH 6 0
BBX 6 12 0 -2
BITMAP
20
50
70
88
88
88
88
88
88
70
00
00
ENDCHAR
STARTCHAR U00D5
ENCODING 213
SWIDTH 960 0
DWIDTH 6 0
BBX 6 12 0 -2
BITMAP
28
50
70
88
88
88
88
88
88
70
00
00
ENDCHAR
STARTCHAR U00D6
ENCODING 214
SWIDTH 960 0
DWIDTH 6 0
BBX 6 12 0 -2
BITMAP
50
00
70
88
88
88
88
88
88
70
00
00
ENDCHAR
STARTCHAR U00D7
ENCODING 215
SWIDTH 960 0
DWIDTH 6 0
BBX 6 12 0 -2
BITMAP
00
00
00
88
50
20
50
88
00
00
00
00
ENDCHAR
STARTCHAR U00D8
ENCODING 216
SWIDTH 960 0
DWIDTH 6 0
BBX 6 12 0 -2
BITMAP
00
34
4c
48
58
68
68
48
c8
b0
00
00
ENDCHAR
STARTCHAR U00D9
ENCODING 217
SWIDTH 960 0
DWIDTH 6 0
BBX 6 12 0 -2
BITMAP
40
20
88
88
88
88
88
88
88
70
00
00
ENDCHAR
STARTCHAR U00DA
ENCODING 218
SWIDTH 960 0
DWIDTH 6 0
BBX 6 12 0 -2
BITMAP
10
20
88
88
88
88
88
88
88
70
00
00
ENDCHAR
STARTCHAR U00DB
ENCODING 219
SWIDTH 960 0
DWIDTH 6 0
BBX 6 12 0 -2
BITMAP
20
50
00
88
88
88
88
88
88
70
00
00
ENDCHAR
STARTCHAR U00DC
ENCODING 220
SWIDTH 960 0
DWIDTH 6 0
BBX 6 12 0 -2
BITMAP
50
a0
00
88
88
88
88
88
88
70
00
00
ENDCHAR
STARTCHAR U00DD
ENCODING 221
SWIDTH 960 0
DWIDTH 6 0
BBX 6 12 0 -2
BITMAP
10
20
88
88
50
50
20
20
20
20
00
00
ENDCHAR
STARTCHAR U00DE
ENCODING 222
SWIDTH 960 0
DWIDTH 6 0
BBX 6 12 0 -2
BITMAP
00
40
40
70
48
48
48
48
70
40
40
00
ENDCHAR
STARTCHAR U00DF
ENCODING 223
SWIDTH 960 0
DWIDTH 6 0
BBX 6 12 0 -2
BITMAP
00
30
48
48
48
70
48
48
48
50
40
40
ENDCHAR
STARTCHAR U00E0
ENCODING 224
SWIDTH 960 0
DWIDTH 6 0
BBX 6 12 0 -2
BITMAP
40
20
00
70
88
18
68
88
98
68
00
00
ENDCHAR
STARTCHAR U00E1
ENCODING 225
SWIDTH 960 0
DWIDTH 6 0
BBX 6 12 0 -2
BITMAP
10
20
00
70
88
18
68
88
98
68
00
00
ENDCHAR
STARTCHAR U00E2
ENCODING 226
SWIDTH 960 0
DWIDTH 6 0
BBX 6 12 0 -2
BITMAP
20
50
00
70
88
18
68
88
98
68
00
00
ENDCHAR
STARTCHAR U00E3
ENCODING 227
SWIDTH 960 0
DWIDTH 6 0
BBX 6 12 0 -2
BITMAP
50
a0
00
70
88
18
68
88
98
68
00
00
ENDCHAR
STARTCHAR U00E4
ENCODING 228
SWIDTH 960 0
DWIDTH 6 0
BBX 6 12 0 -2
BITMAP
00
50
00
70
88
18
68
88
98
68
00
00
ENDCHAR
STARTCHAR U00E5
ENCODING 229
SWIDTH 960 0
DWIDTH 6 0
BBX 6 12 0 -2
BITMAP
20
50
20
70
88
18
68
88
98
68
00
00
ENDCHAR
STARTCHAR U00E6
ENCODING 230
SWIDTH 960 0
DWIDTH 6 0
BBX 6 12 0 -2
BITMAP
00
00
00
50
a8
28
78
a0
a8
70
00
00
ENDCHAR
STARTCHAR U00E7
ENCODING 231
SWIDTH 960 0
DWIDTH 6 0
BBX 6 12 0 -2
BITMAP
00
00
00
70
88
80
80
88
70
10
60
00
ENDCHAR
STARTCHAR U00E8
ENCODING 232
SWIDTH 960 0
DWIDTH 6 0
BBX 6 12 0 -2
BITMAP
40
20
00
70
88
88
f8
80
88
70
00
00
ENDCHAR
STARTCHAR U00E9
ENCODING 233
SWIDTH 960 0
DWIDTH 6 0
BBX 6 12 0 -2
BITMAP
10
20
00
70
88
88
f8
80
88
70
00
00
ENDCHAR
STARTCHAR U00EA
ENCODING 234
SWIDTH 960 0
DWIDTH 6 0
BBX 6 12 0 -2
BITMAP
20
50
00
70
88
88
f8
80
88
70
00
00
ENDCHAR
STARTCHAR U00EB
ENCODING 235
SWIDTH 960 0
DWIDTH 6 0
BBX 6 12 0 -2
BITMAP
00
50
00
70
88
88
f8
80
88
70
00
00
ENDCHAR
STARTCHAR U00EC
ENCODING 236
SWIDTH 960 0
DWIDTH 6 0
BBX 6 12 0 -2
BITMAP
40
20
00
00
20
20
20
20
20
20
00
00
ENDCHAR
STARTCHAR U00ED
ENCODING 237
SWIDTH 960 0
DWIDTH 6 0
BBX 6 12 0 -2
BITMAP
10
20
00
00
20
20
20
20
20
20
00
00
ENDCHAR
STARTCHAR U00EE
ENCODING 238
SWIDTH 960 0
DWIDTH 6 0
BBX 6 12 0 -2
BITMAP
20
50
00
00
20
20
20
20
20
20
00
00
ENDCHAR
STARTCHAR U00EF
ENCODING 239
SWIDTH 960 0
DWIDTH 6 0
BBX 6 12 0 -2
BITMAP
00
50
00
00
20
20
20
20
20
20
00
00
ENDCHAR
STARTCHAR U00F0
ENCODING 240
SWIDTH 960 0
DWIDTH 6 0
BBX 6 12 0 -2
BITMAP
a0
40
a0
10
70
88
88
88
88
70
00
00
ENDCHAR
STARTCHAR U00F1
ENCODING 241
SWIDTH 960 0
DWIDTH 6 0
BBX 6 12 0 -2
BITMAP
50
a0
00
00
b0
c8
88
88
88
88
00
00
ENDCHAR
STARTCHAR U00F2
ENCODING 242
SWIDTH 960 0
DWIDTH 6 0
BBX 6 12 0 -2
BITMAP
40
20
00
70
88
88
88
88
88
70
00
00
ENDCHAR
STARTCHAR U00F3
ENCODING 243
SWIDTH 960 0
DWIDTH 6 0
BBX 6 12 0 -2
BITMAP
10
20
00
70
88
88
88
88
88
70
00
00
ENDCHAR
STARTCHAR U00F4
ENCODING 244
SWIDTH 960 0
DWIDTH 6 0
BBX 6 12 0 -2
BITMAP
20
50
00
70
88
88
88
88
88
70
00
00
ENDCHAR
STARTCHAR U00F5
ENCODING 245
SWIDTH 960 0
DWIDTH 6 0
BBX 6 12 0 -2
BITMAP
50
a0
00
70
88
88
88
88
88
70
00
00
ENDCHAR
STARTCHAR U00F6
ENCODING 246
SWIDTH 960 0
DWIDTH 6 0
BBX 6 12 0 -2
BITMAP
00
50
00
70
88
88
88
88
88
70
00
00
ENDCHAR
STARTCHAR U00F7
ENCODING 247
SWIDTH 960 0
DWIDTH 6 0
BBX 6 12 0 -2
BITMAP
00
00
00
20
00
f8
00
20
00
00
00
00
ENDCHAR
STARTCHAR U00F8
ENCODING 248
SWIDTH 960 0
DWIDTH 6 0
BBX 6 12 0 -2
BITMAP
00
00
00
34
48
58
68
48
c8
30
00
00
ENDCHAR
STARTCHAR U00F9
ENCODING 249
SWIDTH 960 0
DWIDTH 6 0
BBX 6 12 0 -2
BITMAP
40
20
00
88
88
88
88
88
98
68
00
00
ENDCHAR
STARTCHAR U00FA
ENCODING 250
SWIDTH 960 0
DWIDTH 6 0
BBX 6 12 0 -2
BITMAP
10
20
00
88
88
88
88
88
98
68
00
00
ENDCHAR
STARTCHAR U00FB
ENCODING 251
SWIDTH 960 0
DWIDTH 6 0
BBX 6 12 0 -2
BITMAP
20
50
00
88
88
88
88
88
98
68
00
00
ENDCHAR
STARTCHAR U00FC
ENCODING 252
SWIDTH 960 0
DWIDTH 6 0
BBX 6 12 0 -2
BITMAP
00
50
00
88
88
88
88
88
98
68
00
00
ENDCHAR
STARTCHAR U00FD
ENCODING 253
SWIDTH 960 0
DWIDTH 6 0
BBX 6 12 0 -2
BITMAP
10
20
00
88
88
48
50
50
20
20
40
80
ENDCHAR
STARTCHAR U00FE
ENCODING 254
SWIDTH 960 0
DWIDTH 6 0
BBX 6 12 0 -2
BITMAP
00
00
40
40
70
48
48
48
48
70
40
40
ENDCHAR
STARTCHAR U00FF
ENCODING 255
SWIDTH 960 0
DWIDTH 6 0
BBX 6 12 0 -2
BITMAP
00
50
00
88
88
48
50
50
20
20
40
80
ENDCHAR
STARTCHAR U0391
ENCODING 913
SWIDTH 960 0
DWIDTH 12 0
BBX 12 12 0 -2
BITMAP
0000
0400
0400
0a00
0a00
1100
1100
1f00
2080
2080
71c0
0000
ENDCHAR
STARTCHAR U0392
ENCODING 914
SWIDTH 960 0
DWIDTH 12 0
BBX 12 12 0 -2
BITMAP
0000
3e00
1100
1080
1100
1e00
1100
1080
1080
1100
3e00
0000
ENDCHAR
STARTCHAR U0393
ENCODING 915
SWIDTH 960 0
DWIDTH 12 0
BBX 12 12 0 -2
BITMAP
0000
3f00
1100
1080
1000
1000
1000
1000
1000
1000
3800
0000
ENDCHAR
STARTCHAR U0394
ENCODING 916
SWIDTH 960 0
DWIDTH 12 0
BBX 12 12 0 -2
BITMAP
0000
0400
0400
0400
0a00
0a00
1100
1100
2080
2080
7fc0
0000
ENDCHAR
STARTCHAR U0395
ENCODING 917
SWIDTH 960 0
DWIDTH 12 0
BBX 12 12 0 -2
BITMAP
0000
3f80
1040
1000
1100
1f00
1100
1000
1040
1040
3f80
0000
ENDCHAR
STARTCHAR U0396
ENCODING 918
SWIDTH 960 0
DWIDTH 12 0
BBX 12 12 0 -2
BITMAP
0000
3fc0
2080
4100
0200
0400
0400
0800
1040
2040
7fc0
0000
ENDCHAR
STARTCHAR U0397
ENCODING 919
SWIDTH 960 0
DWIDTH 12 0
BBX 12 12 0 -2
BITMAP
0000
71c0
2080
2080
2080
3f80
2080
2080
2080
2080
71c0
0000
ENDCHAR
STARTCHAR U0398
ENCODING 920
SWIDTH 960 0
DWIDTH 12 0
BBX 12 12 0 -2
BITMAP
0000
0e00
1100
2080
5140
5f40
5140
4040
2080
1100
0e00
0000
ENDCHAR
STARTCHAR U0399
ENCODING 921
SWIDTH 960 0
DWIDTH 12 0
BBX 12 12 0 -2
BITMAP
0000
0e00
0400
0400
0400
0400
0400
0400
0400
0400
0e00
0000
ENDCHAR
STARTCHAR U039A
ENCODING 922
SWIDTH 960 0
DWIDTH 12 0
BBX 12 12 0 -2
BITMAP
0000
3b80
1100
1200
1400
1800
1400
1200
1100
1080
39c0
0000
ENDCHAR
STARTCHAR U039B
ENCODING 923
SWIDTH 960 0
DWIDTH 12 0
BBX 12 12 0 -2
BITMAP
0000
0400
0400
0a00
0a00
1100
1100
1100
2080
2080
71c0
0000
ENDCHAR
STARTCHAR U039C
ENCODING 924
SWIDTH 960 0
DWIDTH 12 0
BBX 12 12 0 -2
BITMAP
0000
c060
4040
60c0
60c0
5140
5140
4a40
4a40
4440
e4e0
0000
ENDCHAR
STARTCHAR U039D
ENCODING 925
SWIDTH 960 0
DWIDTH 12 0
BBX 12 12 0 -2
BITMAP
0000
31c0
1880
1480
1480
1280
1280
1180
1180
1080
3880
0000
ENDCHAR
STARTCHAR U039E
ENCODING 926
SWIDTH 960 0
DWIDTH 12 0
BBX 12 12 0 -2
BITMAP
0000
3fc0
2040
0000
1080
1f80
1080
0000
0000
2040
3fc0
0000
ENDCHAR
STARTCHAR U039F
ENCODING 927
SWIDTH 960 0
DWIDTH 12 0
BBX 12 12 0 -2
BITMAP
0000
0e00
1100
2080
4040
4040
4040
4040
2080
1100
0e00
0000
ENDCHAR
STARTCHAR U03A0
ENCODING 928
SWIDTH 960 0
DWIDTH 12 0
BBX 12 12 0 -2
BITMAP
0000
7fc0
2080
2080
2080
2080
2080
2080
2080
2080
71c0
0000
ENDCHAR
STARTCHAR U03A1
ENCODING 929
SWIDTH 960 0
DWIDTH 12 0
BBX 12 12 0 -2
BITMAP
0000
3e00
1100
1080
1080
1100
1e00
1000
1000
1000
3800
0000
ENDCHAR
STARTCHAR U03A3
ENCODING 931
SWIDTH 960 0
DWIDTH 12 0
BBX 12 12 0 -2
BITMAP
0000
7f00
2100
1080
0800
0400
0400
0800
1040
2040
7f80
0000
ENDCHAR
STARTCHAR U03A4
ENCODING 932
SWIDTH 960 0
DWIDTH 12 0
BBX 12 12 0 -2
BITMAP
0000
7fc0
4440
4440
0400
0400
0400
0400
0400
0400
0e00
0000
ENDCHAR
STARTCHAR U03A5
ENCODING 933
SWIDTH 960 0
DWIDTH 12 0
BBX 12 12 0 -2
BITMAP
0000
3b80
4440
4440
0400
0400
0400
0400
0400
0400
0e00
0000
ENDCHAR
STARTCHAR U03A6
ENCODING 934
SWIDTH 960 0
DWIDTH 12 0
BBX 12 12 0 -2
BITMAP
0000
0e00
0400
1f00
2480
2480
2480
1f00
0400
0400
0e00
0000
ENDCHAR
STARTCHAR U03A7
ENCODING 935
SWIDTH 960 0
DWIDTH 12 0
BBX 12 12 0 -2
BITMAP
0000
71c0
2080
1100
0a00
0400
0400
0a00
1100
2080
71c0
0000
ENDCHAR
STARTCHAR U03A8
ENCODING 936
SWIDTH 960 0
DWIDTH 12 0
BBX 12 12 0 -2
BITMAP
0000
0e00
4440
2480
2480
2480
1500
0e00
0400
0400
0e00
0000
ENDCHAR
STARTCHAR U03A9
ENCODING 937
SWIDTH 960 0
DWIDTH 12 0
BBX 12 12 0 -2
BITMAP
0000
0e00
1100
2080
2080
2080
2080
1100
4a40
4a40
7bc0
0000
ENDCHAR
STARTCHAR U03B1
ENCODING 945
SWIDTH 960 0
DWIDTH 12 0
BBX 12 12 0 -2
BITMAP
0000
0000
0000
0000
0c80
1280
2300
2200
2400
2600
1980
0000
ENDCHAR
STARTCHAR U03B2
ENCODING 946
SWIDTH 960 0
DWIDTH 12 0
BBX 12 12 0 -2
BITMAP
0000
0300
0480
0480
0900
0a00
1100
1100
3200
2c00
4000
4000
ENDCHAR
STARTCHAR U03B3
ENCODING 947
SWIDTH 960 0
DWIDTH 12 0
BBX 12 12 0 -2
BITMAP
0000
0000
0000
18c0
2500
0200
0400
0400
0800
0800
1000
0000
ENDCHAR
STARTCHAR U03B4
ENCODING 948
SWIDTH 960 0
DWIDTH 12 0
BBX 12 12 0 -2
BITMAP
0000
0600
0980
0400
0200
0600
0900
1100
2100
2200
1c00
0000
ENDCHAR
STARTCHAR U03B5
ENCODING 949
SWIDTH 960 0
DWIDTH 12 0
BBX 12 12 0 -2
BITMAP
0000
0000
0000
0e00
1100
1000
0c00
1000
2100
2200
1c00
0000
ENDCHAR
STARTCHAR U03B6
ENCODING 950
SWIDTH 960 0
DWIDTH 12 0
BBX 12 12 0 -2
BITMAP
0000
0800
0980
0700
0400
0800
1000
1000
1000
0c00
2200
1c00
ENDCHAR
STARTCHAR U03B7
ENCODING 951
SWIDTH 960 0
DWIDTH 12 0
BBX 12 12 0 -2
BITMAP
0000
0000
0000
0000
1300
2c80
0880
1100
1100
2200
0200
0200
ENDCHAR
STARTCHAR U03B8
ENCODING 952
SWIDTH 960 0
DWIDTH 12 0
BBX 12 12 0 -2
BITMAP
0000
0300
0480
0880
1080
1f80
2100
2100
2200
2400
1800
0000
ENDCHAR
STARTCHAR U03B9
ENCODING 953
SWIDTH 960 0
DWIDTH 12 0
BBX 12 12 0 -2
BITMAP
0000
0000
0000
0200
0400
0800
0800
1000
1080
1300
0c00
0000
ENDCHAR
STARTCHAR U03BA
ENCODING 954
SWIDTH 960 0
DWIDTH 12 0
BBX 12 12 0 -2
BITMAP
0000
0000
0000
1080
0900
0a00
1c00
1400
2480
2480
4300
0000
ENDCHAR
STARTCHAR U03BB
ENCODING 955
SWIDTH 960 0
DWIDTH 12 0
BBX 12 12 0 -2
BITMAP
0000
0000
0c00
0200
0200
0200
0600
0a00
1100
2100
20c0
0000
ENDCHAR
STARTCHAR U03BC
ENCODING 956
SWIDTH 960 0
DWIDTH 12 0
BBX 12 12 0 -2
BITMAP
0000
0000
0000
0880
0880
1080
1100
2100
3300
2cc0
4000
4000
ENDCHAR
STARTCHAR U03BD
ENCODING 957
SWIDTH 960 0
DWIDTH 12 0
BBX 12 12 0 -2
BITMAP
0000
0000
0000
0000
1080
0880
0900
1100
1200
1400
3800
0000
ENDCHAR
STARTCHAR U03BE
ENCODING 958
SWIDTH 960 0
DWIDTH 12 0
BBX 12 12 0 -2
BITMAP
0000
0400
0380
0400
0800
0600
0800
1000
0e00
0100
1100
0e00
ENDCHAR
STARTCHAR U03BF
ENCODING 959
SWIDTH 960 0
DWIDTH 12 0
BBX 12 12 0 -2
BITMAP
0000
0000
0000
0000
0e00
1100
2100
2100
2100
2200
1c00
0000
ENDCHAR
STARTCHAR U03C0
ENCODING 960
SWIDTH 960 0
DWIDTH 12 0
BBX 12 12 0 -2
BITMAP
0000
0000
0000
0040
1f80
2900
0a00
1200
1400
2480
4300
0000
ENDCHAR
STARTCHAR U03C1
ENCODING 961
SWIDTH 960 0
DWIDTH 12 0
BBX 12 12 0 -2
BITMAP
0000
0000
0000
0700
0880
1080
1080
1900
1600
2000
2000
2000
ENDCHAR
STARTCHAR U03C3
ENCODING 963
SWIDTH 960 0
DWIDTH 12 0
BBX 12 12 0 -2
BITMAP
0000
0000
0000
0040
0780
1a00
2100
2100
2100
1200
0c00
0000
ENDCHAR
STARTCHAR U03C4
ENCODING 964
SWIDTH 960 0
DWIDTH 12 0
BBX 12 12 0 -2
BITMAP
0000
0000
0080
1f00
2400
0400
0800
0800
1000
1200
0c00
0000
ENDCHAR
STARTCHAR U03C5
ENCODING 965
SWIDTH 960 0
DWIDTH 12 0
BBX 12 12 0 -2
BITMAP
0000
0000
0000
0000
2100
5080
1080
1100
2100
2600
1800
0000
ENDCHAR
STARTCHAR U03C6
ENCODING 966
SWIDTH 960 0
DWIDTH 12 0
BBX 12 12 0 -2
BITMAP
0000
0100
0100
0200
0f00
1280
2240
2440
2480
1f00
0800
0800
ENDCHAR
STARTCHAR U03C7
ENCODING 967
SWIDTH 960 0
DWIDTH 12 0
BBX 12 12 0 -2
BITMAP
0000
0000
0080
1080
2900
2600
0400
0c00
1400
2280
2100
0000
ENDCHAR
STARTCHAR U03C8
ENCODING 968
SWIDTH 960 0
DWIDTH 12 0
BBX 12 12 0 -2
BITMAP
0000
0100
0100
2280
1240
1240
2440
2480
1f00
0800
0800
0800
ENDCHAR
STARTCHAR U03C9
ENCODING 969
SWIDTH 960 0
DWIDTH 12 0
BBX 12 12 0 -2
BITMAP
0000
0000
0000
0000
1080
2040
2040
4440
4440
4c80
3300
0000
ENDCHAR
STARTCHAR U0401
ENCODING 1025
SWIDTH 960 0
DWIDTH 12 0
BBX 12 12 0 -2
BITMAP
1980
0000
3f80
1040
1000
1100
1f00
1100
1040
1040
3f80
0000
ENDCHAR
STARTCHAR U0410
ENCODING 1040
SWIDTH 960 0
DWIDTH 12 0
BBX 12 12 0 -2
BITMAP
0000
0400
0400
0a00
0a00
1100
1100
1f00
2080
2080
71c0
0000
ENDCHAR
STARTCHAR U0411
ENCODING 1041
SWIDTH 960 0
DWIDTH 12 0
BBX 12 12 0 -2
BITMAP
0000
3f80
1080
1000
1000
1e00
1100
1080
1080
1100
3e00
0000
ENDCHAR
STARTCHAR U0412
ENCODING 1042
SWIDTH 960 0
DWIDTH 12 0
BBX 12 12 0 -2
BITMAP
0000
3e00
1100
1080
1100
1e00
1100
1080
1080
1100
3e00
0000
ENDCHAR
STARTCHAR U0413
ENCODING 1043
SWIDTH 960 0
DWIDTH 12 0
BBX 12 12 0 -2
BITMAP
0000
3f00
1100
1080
1000
1000
1000
1000
1000
1000
3800
0000
ENDCHAR
STARTCHAR U0414
ENCODING 1044
SWIDTH 960 0
DWIDTH 12 0
BBX 12 12 0 -2
BITMAP
0000
1fc0
0900
0900
0900
0900
0900
1100
1100
2100
7fc0
4040
ENDCHAR
STARTCHAR U0415
ENCODING 1045
SWIDTH 960 0
DWIDTH 12 0
BBX 12 12 0 -2
BITMAP
0000
3f80
1040
1000
1100
1f00
1100
1000
1040
1040
3f80
0000
ENDCHAR
STARTCHAR U0416
ENCODING 1046
SWIDTH 960 0
DWIDTH 12 0
BBX 12 12 0 -2
BITMAP
0000
4e40
2480
2480
1500
0e00
1500
2500
2480
2480
6ec0
0000
ENDCHAR
STARTCHAR U0417
ENCODING 1047
SWIDTH 960 0
DWIDTH 12 0
BBX 12 12 0 -2
BITMAP
0000
0e00
1100
2100
0100
0600
0100
0080
2080
3100
2e00
0000
ENDCHAR
STARTCHAR U0418
ENCODING 1048
SWIDTH 960 0
DWIDTH 12 0
BBX 12 12 0 -2
BITMAP
0000
38c0
1180
1280
1280
1480
1480
1880
1880
1080
39c0
0000
ENDCHAR
STARTCHAR U0419
ENCODING 1049
SWIDTH 960 0
DWIDTH 12 0
BBX 12 12 0 -2
BITMAP
0900
0600
38c0
1180
1280
1280
1480
1880
1880
1080
39c0
0000
ENDCHAR
STARTCHAR U041A
ENCODING 1050
SWIDTH 960 0
DWIDTH 12 0
BBX 12 12 0 -2
BITMAP
0000
3880
1140
1200
1400
1800
1400
1200
1100
1080
39c0
0000
ENDCHAR
STARTCHAR U041B
ENCODING 1051
SWIDTH 960 0
DWIDTH 12 0
BBX 12 12 0 -2
BITMAP
0000
1fc0
0480
0480
0480
0480
0880
0880
0880
5080
21c0
0000
ENDCHAR
STARTCHAR U041C
ENCODING 1052
SWIDTH 960 0
DWIDTH 12 0
BBX 12 12 0 -2
BITMAP
0000
60c0
2080
3180
3180
2a80
2a80
4440
4440
4440
e0e0
0000
ENDCHAR
STARTCHAR U041D
ENCODING 1053
SWIDTH 960 0
DWIDTH 12 0
BBX 12 12 0 -2
BITMAP
0000
71c0
2080
2080
2080
3f80
2080
2080
2080
2080
71c0
0000
ENDCHAR
STARTCHAR U041E
ENCODING 1054
SWIDTH 960 0
DWIDTH 12 0
BBX 12 12 0 -2
BITMAP
0000
0e00
1100
2080
4040
4040
4040
4040
2080
1100
0e00
0000
ENDCHAR
STARTCHAR U041F
ENCODING 1055
SWIDTH 960 0
DWIDTH 12 0
BBX 12 12 0 -2
BITMAP
0000
7f80
2100
2100
2100
2100
2100
2100
2100
2100
7380
0000
ENDCHAR
STARTCHAR U0420
ENCODING 1056
SWIDTH 960 0
DWIDTH 12 0
BBX 12 12 0 -2
BITMAP
0000
3e00
1100
1080
1080
1100
1e00
1000
1000
1000
3800
0000
ENDCHAR
STARTCHAR U0421
ENCODING 1057
SWIDTH 960 0
DWIDTH 12 0
BBX 12 12 0 -2
BITMAP
0000
0740
08c0
1040
2000
2000
2000
2000
1040
0880
0700
0000
ENDCHAR
STARTCHAR U0422
ENCODING 1058
SWIDTH 960 0
DWIDTH 12 0
BBX 12 12 0 -2
BITMAP
0000
7fc0
4440
4440
0400
0400
0400
0400
0400
0400
0e00
0000
ENDCHAR
STARTCHAR U0423
ENCODING 1059
SWIDTH 960 0
DWIDTH 12 0
BBX 12 12 0 -2
BITMAP
0000
71c0
2080
1100
1100
0a00
0a00
0400
0400
2400
1800
0000
ENDCHAR
STARTCHAR U0424
ENCODING 1060
SWIDTH 960 0
DWIDTH 12 0
BBX 12 12 0 -2
BITMAP
0000
0e00
0400
1f00
2480
4440
4440
2480
1f00
0400
0e00
0000
ENDCHAR
STARTCHAR U0425
ENCODING 1061
SWIDTH 960 0
DWIDTH 12 0
BBX 12 12 0 -2
BITMAP
0000
71c0
2080
1100
0a00
0400
0400
0a00
1100
2080
71c0
0000
ENDCHAR
STARTCHAR U0426
ENCODING 1062
SWIDTH 960 0
DWIDTH 12 0
BBX 12 12 0 -2
BITMAP
0000
7380
2100
2100
2100
2100
2100
2100
2100
2100
7fc0
0040
ENDCHAR
STARTCHAR U0427
ENCODING 1063
SWIDTH 960 0
DWIDTH 12 0
BBX 12 12 0 -2
BITMAP
0000
7380
2100
2100
2100
2100
1300
0d00
0100
0100
0380
0000
ENDCHAR
STARTCHAR U0428
ENCODING 1064
SWIDTH 960 0
DWIDTH 12 0
BBX 12 12 0 -2
BITMAP
0000
eee0
4440
4440
4440
4440
4440
4440
4440
4440
ffe0
0000
ENDCHAR
STARTCHAR U0429
ENCODING 1065
SWIDTH 960 0
DWIDTH 12 0
BBX 12 12 0 -2
BITMAP
0000
eee0
4440
4440
4440
4440
4440
4440
4440
4440
fff0
0010
ENDCHAR
STARTCHAR U042A
ENCODING 1066
SWIDTH 960 0
DWIDTH 12 0
BBX 12 12 0 -2
BITMAP
0000
3800
4800
0800
0800
0f00
0880
0840
0840
0880
1f00
0000
ENDCHAR
STARTCHAR U042B
ENCODING 1067
SWIDTH 960 0
DWIDTH 12 0
BBX 12 12 0 -2
BITMAP
0000
61c0
2080
2080
2080
3880
2480
2280
2280
2480
79c0
0000
ENDCHAR
STARTCHAR U042C
ENCODING 1068
SWIDTH 960 0
DWIDTH 12 0
BBX 12 12 0 -2
BITMAP
0000
3000
1000
1000
1e00
1100
1080
1080
1080
1100
1e00
0000
ENDCHAR
STARTCHAR U042D
ENCODING 1069
SWIDTH 960 0
DWIDTH 12 0
BBX 12 12 0 -2
BITMAP
0000
2e00
3100
2080
0080
0c80
1380
0080
2080
1100
0e00
0000
ENDCHAR
STARTCHAR U042E
ENCODING 1070
SWIDTH 960 0
DWIDTH 12 0
BBX 12 12 0 -2
BITMAP
0000
e300
4480
4840
4840
7840
4840
4840
4840
4480
e300
0000
ENDCHAR
STARTCHAR U042F
ENCODING 1071
SWIDTH 960 0
DWIDTH 12 0
BBX 12 12 0 -2
BITMAP
0000
0fc0
1080
2080
1080
0f80
0280
0480
0880
1080
71c0
0000
ENDCHAR
STARTCHAR U0430
ENCODING 1072
SWIDTH 960 0
DWIDTH 12 0
BBX 12 12 0 -2
BITMAP
0000
0000
0000
0000
0600
0900
0700
0900
1100
1200
0d80
0000
ENDCHAR
STARTCHAR U0431
ENCODING 1073
SWIDTH 960 0
DWIDTH 12 0
BBX 12 12 0 -2
BITMAP
0000
0300
0c00
1000
2000
2c00
3200
2100
2100
1200
0c00
0000
ENDCHAR
STARTCHAR U0432
ENCODING 1074
SWIDTH 960 0
DWIDTH 12 0
BBX 12 12 0 -2
BITMAP
0000
0000
0000
0000
3e00
1100
1100
1e00
1100
1100
3e00
0000
ENDCHAR
STARTCHAR U0433
ENCODING 1075
SWIDTH 960 0
DWIDTH 12 0
BBX 12 12 0 -2
BITMAP
0000
0000
0000
0000
3e00
1100
1000
1000
1000
1000
3800
0000
ENDCHAR
STARTCHAR U0434
ENCODING 1076
SWIDTH 960 0
DWIDTH 12 0
BBX 12 12 0 -2
BITMAP
0000
0000
0000
0000
1f80
0900
0900
0900
1100
1100
7f80
4080
ENDCHAR
STARTCHAR U0435
ENCODING 1077
SWIDTH 960 0
DWIDTH 12 0
BBX 12 12 0 -2
BITMAP
0000
0000
0000
0000
0c00
1200
2100
3f00
2000
1100
0e00
0000
ENDCHAR
STARTCHAR U0436
ENCODING 1078
SWIDTH 960 0
DWIDTH 12 0
BBX 12 12 0 -2
BITMAP
0000
0000
0000
0000
6ec0
1500
1500
0e00
1500
2480
6ec0
0000
ENDCHAR
STARTCHAR U0437
ENCODING 1079
SWIDTH 960 0
DWIDTH 12 0
BBX 12 12 0 -2
BITMAP
0000
0000
0000
0000
0700
1880
0080
0700
0080
1080
0f00
0000
ENDCHAR
STARTCHAR U0438
ENCODING 1080
SWIDTH 960 0
DWIDTH 12 0
BBX 12 12 0 -2
BITMAP
0000
0000
0000
0000
39c0
1180
1280
1480
1880
1080
39c0
0000
ENDCHAR
STARTCHAR U0439
ENCODING 1081
SWIDTH 960 0
DWIDTH 12 0
BBX 12 12 0 -2
BITMAP
0000
0900
0600
0000
39c0
1180
1280
1480
1880
1080
39c0
0000
ENDCHAR
STARTCHAR U043A
ENCODING 1082
SWIDTH 960 0
DWIDTH 12 0
BBX 12 12 0 -2
BITMAP
0000
0000
0000
0000
3900
1280
1400
1800
1400
1200
3980
0000
ENDCHAR
STARTCHAR U043B
ENCODING 1083
SWIDTH 960 0
DWIDTH 12 0
BBX 12 12 0 -2
BITMAP
0000
0000
0000
0000
1f00
0a00
0a00
0a00
1200
5200
2700
0000
ENDCHAR
STARTCHAR U043C
ENCODING 1084
SWIDTH 960 0
DWIDTH 12 0
BBX 12 12 0 -2
BITMAP
0000
0000
0000
0000
60c0
3180
3180
2a80
2a80
2480
75c0
0000
ENDCHAR
STARTCHAR U043D
ENCODING 1085
SWIDTH 960 0
DWIDTH 12 0
BBX 12 12 0 -2
BITMAP
0000
0000
0000
0000
3b80
1100
1100
1f00
1100
1100
3b80
0000
ENDCHAR
STARTCHAR U043E
ENCODING 1086
SWIDTH 960 0
DWIDTH 12 0
BBX 12 12 0 -2
BITMAP
0000
0000
0000
0000
0e00
1100
2080
2080
2080
1100
0e00
0000
ENDCHAR
STARTCHAR U043F
ENCODING 1087
SWIDTH 960 0
DWIDTH 12 0
BBX 12 12 0 -2
BITMAP
0000
0000
0000
0000
3f80
1100
1100
1100
1100
1100
3b80
0000
ENDCHAR
STARTCHAR U0440
ENCODING 1088
SWIDTH 960 0
DWIDTH 12 0
BBX 12 12 0 -2
BITMAP
0000
0000
0000
0000
3600
1900
1080
1080
1900
1600
1000
3800
ENDCHAR
STARTCHAR U0441
ENCODING 1089
SWIDTH 960 0
DWIDTH 12 0
BBX 12 12 0 -2
BITMAP
0000
0000
0000
0000
0e00
1100
2000
2000
2000
1100
0e00
0000
ENDCHAR
STARTCHAR U0442
ENCODING 1090
SWIDTH 960 0
DWIDTH 12 0
BBX 12 12 0 -2
BITMAP
0000
0000
0000
0000
3f80
2480
0400
0400
0400
0400
0e00
0000
ENDCHAR
STARTCHAR U0443
ENCODING 1091
SWIDTH 960 0
DWIDTH 12 0
BBX 12 12 0 -2
BITMAP
0000
0000
0000
39c0
1080
0880
0500
0300
0200
0400
2400
1800
ENDCHAR
STARTCHAR U0444
ENCODING 1092
SWIDTH 960 0
DWIDTH 12 0
BBX 12 12 0 -2
BITMAP
0000
0e00
0400
1500
2e80
4440
4440
4440
2e80
1500
0400
0e00
ENDCHAR
STARTCHAR U0445
ENCODING 1093
SWIDTH 960 0
DWIDTH 12 0
BBX 12 12 0 -2
BITMAP
0000
0000
0000
0000
3b80
1100
0a00
0400
0a00
1100
3b80
0000
ENDCHAR
STARTCHAR U0446
ENCODING 1094
SWIDTH 960 0
DWIDTH 12 0
BBX 12 12 0 -2
BITMAP
0000
0000
0000
0000
3b80
1100
1100
1100
1100
1100
3f80
0080
ENDCHAR
STARTCHAR U0447
ENCODING 1095
SWIDTH 960 0
DWIDTH 12 0
BBX 12 12 0 -2
BITMAP
0000
0000
0000
0000
3b80
1100
1100
0f00
0100
0100
0380
0000
ENDCHAR
STARTCHAR U0448
ENCODING 1096
SWIDTH 960 0
DWIDTH 12 0
BBX 12 12 0 -2
BITMAP
0000
0000
0000
0000
2480
2480
2480
2480
2480
2480
3f80
0000
ENDCHAR
STARTCHAR U0449
ENCODING 1097
SWIDTH 960 0
DWIDTH 12 0
BBX 12 12 0 -2
BITMAP
0000
0000
0000
0000
4900
4900
4900
4900
4900
4900
7fc0
0040
ENDCHAR
STARTCHAR U044A
ENCODING 1098
SWIDTH 960 0
DWIDTH 12 0
BBX 12 12 0 -2
BITMAP
0000
0000
0000
0000
3000
5000
1e00
1100
1100
1100
3e00
0000
ENDCHAR
STARTCHAR U044B
ENCODING 1099
SWIDTH 960 0
DWIDTH 12 0
BBX 12 12 0 -2
BITMAP
0000
0000
0000
0000
7380
2100
2100
3900
2500
2500
7b80
0000
ENDCHAR
STARTCHAR U044C
ENCODING 1100
SWIDTH 960 0
DWIDTH 12 0
BBX 12 12 0 -2
BITMAP
0000
0000
0000
0000
3800
1000
1e00
1100
1100
1100
3e00
0000
ENDCHAR
STARTCHAR U044D
ENCODING 1101
SWIDTH 960 0
DWIDTH 12 0
BBX 12 12 0 -2
BITMAP
0000
0000
0000
0000
1e00
2100
0b00
1500
0100
2100
1e00
0000
ENDCHAR
STARTCHAR U044E
ENCODING 1102
SWIDTH 960 0
DWIDTH 12 0
BBX 12 12 0 -2
BITMAP
0000
0000
0000
0000
7300
2480
2840
3840
2840
2480
7300
0000
ENDCHAR
STARTCHAR U044F
ENCODING 1103
SWIDTH 960 0
DWIDTH 12 0
BBX 12 12 0 -2
BITMAP
0000
0000
0000
0000
0f80
1100
1100
0f00
0900
1100
3b80
0000
ENDCHAR
STARTCHAR U0451
ENCODING 1105
SWIDTH 960 0
DWIDTH 12 0
BBX 12 12 0 -2
BITMAP
0000
0000
1200
0000
0c00
1200
2100
3f00
2000
1100
0e00
0000
ENDCHAR
STARTCHAR U2010
ENCODING 8208
SWIDTH 960 0
DWIDTH 12 0
BBX 12 12 0 -2
BITMAP
0000
0000
0000
0000
0000
0000
0f00
0000
0000
0000
0000
0000
ENDCHAR
STARTCHAR U2015
ENCODING 8213
SWIDTH 960 0
DWIDTH 12 0
BBX 12 12 0 -2
BITMAP
0000
0000
0000
0000
0000
0000
fff0
0000
0000
0000
0000
0000
ENDCHAR
STARTCHAR U2018
ENCODING 8216
SWIDTH 960 0
DWIDTH 12 0
BBX 12 12 0 -2
BITMAP
0020
0040
0040
0060
0000
0000
0000
0000
0000
0000
0000
0000
ENDCHAR
STARTCHAR U2019
ENCODING 8217
SWIDTH 960 0
DWIDTH 12 0
BBX 12 12 0 -2
BITMAP
3000
1000
1000
2000
0000
0000
0000
0000
0000
0000
0000
0000
ENDCHAR
STARTCHAR U201C
ENCODING 8220
SWIDTH 960 0
DWIDTH 12 0
BBX 12 12 0 -2
BITMAP
0120
0240
0240
0360
0000
0000
0000
0000
0000
0000
0000
0000
ENDCHAR
STARTCHAR U201D
ENCODING 8221
SWIDTH 960 0
DWIDTH 12 0
BBX 12 12 0 -2
BITMAP
6c00
2400
2400
4800
0000
0000
0000
0000
0000
0000
0000
0000
ENDCHAR
STARTCHAR U2020
ENCODING 8224
SWIDTH 960 0
DWIDTH 12 0
BBX 12 12 0 -2
BITMAP
0400
0e00
2480
7fc0
2480
0e00
0e00
0400
0400
0400
0400
0400
ENDCHAR
STARTCHAR U2021
ENCODING 8225
SWIDTH 960 0
DWIDTH 12 0
BBX 12 12 0 -2
BITMAP
0e00
0e00
2480
7fc0
2480
0400
0400
2480
7fc0
2480
0e00
0e00
ENDCHAR
STARTCHAR U2025
ENCODING 8229
SWIDTH 960 0
DWIDTH 12 0
BBX 12 12 0 -2
BITMAP
0000
0000
0000
0000
0000
2080
2080
0000
0000
0000
0000
0000
ENDCHAR
STARTCHAR U2026
ENCODING 8230
SWIDTH 960 0
DWIDTH 12 0
BBX 12 12 0 -2
BITMAP
0000
0000
0000
0000
0000
4440
4440
0000
0000
0000
0000
0000
ENDCHAR
STARTCHAR U2030
ENCODING 8240
SWIDTH 960 0
DWIDTH 12 0
BBX 12 12 0 -2
BITMAP
3100
4900
4a00
4c00
3400
0800
1000
1440
2aa0
4aa0
4440
0000
ENDCHAR
STARTCHAR U2032
ENCODING 8242
SWIDTH 960 0
DWIDTH 12 0
BBX 12 12 0 -2
BITMAP
1800
0800
0800
1000
0000
0000
0000
0000
0000
0000
0000
0000
ENDCHAR
STARTCHAR U2033
ENCODING 8243
SWIDTH 960 0
DWIDTH 12 0
BBX 12 12 0 -2
BITMAP
3600
1200
1200
2400
0000
0000
0000
0000
0000
0000
0000
0000
ENDCHAR
STARTCHAR U203B
ENCODING 8251
SWIDTH 960 0
DWIDTH 12 0
BBX 12 12 0 -2
BITMAP
0000
4620
2640
1080
0900
6660
6660
0900
1080
2640
4620
0000
ENDCHAR
STARTCHAR U203E
ENCODING 8254
SWIDTH 960 0
DWIDTH 6 0
BBX 6 12 0 -2
BITMAP
fc
00
00
00
00
00
00
00
00
00
00
00
ENDCHAR
STARTCHAR U2103
ENCODING 8451
SWIDTH 960 0
DWIDTH 12 0
BBX 12 12 0 -2
BITMAP
0000
2340
54c0
2840
1000
1000
1000
1000
1040
0880
0700
0000
ENDCHAR
STARTCHAR U212B
ENCODING 8491
SWIDTH 960 0
DWIDTH 12 0
BBX 12 12 0 -2
BITMAP
0400
0a00
0a00
0400
0a00
0a00
1100
1f00
2080
2080
71c0
0000
ENDCHAR
STARTCHAR U2190
ENCODING 8592
SWIDTH 960 0
DWIDTH 12 0
BBX 12 12 0 -2
BITMAP
0000
0000
0000
0c00
3000
fff0
3000
0c00
0000
0000
0000
0000
ENDCHAR
STARTCHAR U2191
ENCODING 8593
SWIDTH 960 0
DWIDTH 12 0
BBX 12 12 0 -2
BITMAP
0200
0200
0700
0700
0a80
0a80
0200
0200
0200
0200
0200
0200
ENDCHAR
STARTCHAR U2192
ENCODING 8594
SWIDTH 960 0
DWIDTH 12 0
BBX 12 12 0 -2
BITMAP
0000
0000
0000
0300
00c0
fff0
00c0
0300
0000
0000
0000
0000
ENDCHAR
STARTCHAR U2193
ENCODING 8595
SWIDTH 960 0
DWIDTH 12 0
BBX 12 12 0 -2
BITMAP
0200
0200
0200
0200
0200
0200
0a80
0a80
0700
0700
0200
0200
ENDCHAR
STARTCHAR U21D2
ENCODING 8658
SWIDTH 960 0
DWIDTH 12 0
BBX 12 12 0 -2
BITMAP
0000
0000
0080
0040
ffe0
0010
ffe0
0040
0080
0000
0000
0000
ENDCHAR
STARTCHAR U21D4
ENCODING 8660
SWIDTH 960 0
DWIDTH 12 0
BBX 12 12 0 -2
BITMAP
0000
0000
1080
2040
7fe0
8010
7fe0
2040
1080
0000
0000
0000
ENDCHAR
STARTCHAR U2200
ENCODING 8704
SWIDTH 960 0
DWIDTH 12 0
BBX 12 12 0 -2
BITMAP
0000
4040
4040
2080
3f80
1100
1100
0a00
0a00
0400
0400
0000
ENDCHAR
STARTCHAR U2202
ENCODING 8706
SWIDTH 960 0
DWIDTH 12 0
BBX 12 12 0 -2
BITMAP
0000
0700
0880
0080
0680
0980
1180
3100
3300
1200
0c00
0000
ENDCHAR
STARTCHAR U2203
ENCODING 8707
SWIDTH 960 0
DWIDTH 12 0
BBX 12 12 0 -2
BITMAP
0000
3fc0
0040
0040
0040
3fc0
0040
0040
0040
3fc0
0000
0000
ENDCHAR
STARTCHAR U2207
ENCODING 8711
SWIDTH 960 0
DWIDTH 12 0
BBX 12 12 0 -2
BITMAP
0000
ffe0
7fc0
6040
2080
3080
1100
1900
0a00
0e00
0400
0400
ENDCHAR
STARTCHAR U2208
ENCODING 8712
SWIDTH 960 0
DWIDTH 12 0
BBX 12 12 0 -2
BITMAP
0000
0000
0fc0
1000
2000
3fc0
2000
1000
0fc0
0000
0000
0000
ENDCHAR
STARTCHAR U220B
ENCODING 8715
SWIDTH 960 0
DWIDTH 12 0
BBX 12 12 0 -2
BITMAP
0000
0000
3f00
0080
0040
3fc0
0040
0080
3f00
0000
0000
0000
ENDCHAR
STARTCHAR U221A
ENCODING 8730
SWIDTH 960 0
DWIDTH 12 0
BBX 12 12 0 -2
BITMAP
03f0
0200
0200
0400
0400
0400
0800
4800
e800
3000
1000
0000
ENDCHAR
STARTCHAR U221D
ENCODING 8733
SWIDTH 960 0
DWIDTH 12 0
BBX 12 12 0 -2
BITMAP
0000
0000
0000
18c0
2520
4200
4200
2520
18c0
0000
0000
0000
ENDCHAR
STARTCHAR U221E
ENCODING 8734
SWIDTH 960 0
DWIDTH 12 0
BBX 12 12 0 -2
BITMAP
0000
0000
0000
3180
4a40
8420
8420
4a40
3180
0000
0000
0000
ENDCHAR
STARTCHAR U2220
ENCODING 8736
SWIDTH 960 0
DWIDTH 12 0
BBX 12 12 0 -2
BITMAP
0000
0040
0080
0100
0200
0400
0800
1000
2000
7fe0
0000
0000
ENDCHAR
STARTCHAR U2225
ENCODING 8741
SWIDTH 960 0
DWIDTH 12 0
BBX 12 12 0 -2
BITMAP
0900
0900
0900
0900
0900
0900
0900
0900
0900
0900
0900
0900
ENDCHAR
STARTCHAR U2227
ENCODING 8743
SWIDTH 960 0
DWIDTH 12 0
BBX 12 12 0 -2
BITMAP
0000
0400
0400
0a00
0a00
1100
1100
2080
2080
4040
4040
0000
ENDCHAR
STARTCHAR U2228
ENCODING 8744
SWIDTH 960 0
DWIDTH 12 0
BBX 12 12 0 -2
BITMAP
0000
4040
4040
2080
2080
1100
1100
0a00
0a00
0400
0400
0000
ENDCHAR
STARTCHAR U2229
ENCODING 8745
SWIDTH 960 0
DWIDTH 12 0
BBX 12 12 0 -2
BITMAP
0000
1e00
2100
4080
4080
4080
4080
4080
4080
4080
4080
0000
ENDCHAR
STARTCHAR U222A
ENCODING 8746
SWIDTH 960 0
DWIDTH 12 0
BBX 12 12 0 -2
BITMAP
0000
4080
4080
4080
4080
4080
4080
4080
4080
2100
1e00
0000
ENDCHAR
STARTCHAR U222B
ENCODING 8747
SWIDTH 960 0
DWIDTH 12 0
BBX 12 12 0 -2
BITMAP
00c0
0100
0200
0200
0300
0300
0100
0180
0180
0080
0100
0600
ENDCHAR
STARTCHAR U222C
ENCODING 8748
SWIDTH 960 0
DWIDTH 12 0
BBX 12 12 0 -2
BITMAP
0660
0880
1100
1100
1980
1980
0880
0cc0
0cc0
0440
0880
3300
ENDCHAR
STARTCHAR U2234
ENCODING 8756
SWIDTH 960 0
DWIDTH 12 0
BBX 12 12 0 -2
BITMAP
0000
0000
0600
0600
0000
0000
0000
0000
30c0
30c0
0000
0000
ENDCHAR
STARTCHAR U2235
ENCODING 8757
SWIDTH 960 0
DWIDTH 12 0
BBX 12 12 0 -2
BITMAP
0000
0000
6180
6180
0000
0000
0000
0000
0c00
0c00
0000
0000
ENDCHAR
STARTCHAR U223D
ENCODING 8765
SWIDTH 960 0
DWIDTH 12 0
BBX 12 12 0 -2
BITMAP
0000
0000
0000
1980
2240
4220
4420
2440
1980
0000
0000
0000
ENDCHAR
STARTCHAR U2252
ENCODING 8786
SWIDTH 960 0
DWIDTH 12 0
BBX 12 12 0 -2
BITMAP
0000
1800
1800
0000
7fe0
0000
0000
7fe0
0000
0180
0180
0000
ENDCHAR
STARTCHAR U2260
ENCODING 8800
SWIDTH 960 0
DWIDTH 12 0
BBX 12 12 0 -2
BITMAP
0000
0100
0100
0200
7fc0
0400
0400
7fc0
0800
1000
1000
0000
ENDCHAR
STARTCHAR U2261
ENCODING 8801
SWIDTH 960 0
DWIDTH 12 0
BBX 12 12 0 -2
BITMAP
0000
0000
0000
7fe0
0000
0000
7fe0
0000
0000
7fe0
0000
0000
ENDCHAR
STARTCHAR U2266
ENCODING 8806
SWIDTH 960 0
DWIDTH 12 0
BBX 12 12 0 -2
BITMAP
0000
0060
0380
1c00
6000
1c00
0380
0060
7fe0
0000
7fe0
0000
ENDCHAR
STARTCHAR U2267
ENCODING 8807
SWIDTH 960 0
DWIDTH 12 0
BBX 12 12 0 -2
BITMAP
0000
6000
1c00
0380
0060
0380
1c00
6000
7fe0
0000
7fe0
0000
ENDCHAR
STARTCHAR U226A
ENCODING 8810
SWIDTH 960 0
DWIDTH 12 0
BBX 12 12 0 -2
BITMAP
0000
0000
0440
0880
1100
2200
4400
2200
1100
0880
0440
0000
ENDCHAR
STARTCHAR U226B
ENCODING 8811
SWIDTH 960 0
DWIDTH 12 0
BBX 12 12 0 -2
BITMAP
0000
0000
4400
2200
1100
0880
0440
0880
1100
2200
4400
0000
ENDCHAR
STARTCHAR U2282
ENCODING 8834
SWIDTH 960 0
DWIDTH 12 0
BBX 12 12 0 -2
BITMAP
0000
0000
1fe0
2000
4000
4000
4000
4000
2000
1fe0
0000
0000
ENDCHAR
STARTCHAR U2283
ENCODING 8835
SWIDTH 960 0
DWIDTH 12 0
BBX 12 12 0 -2
BITMAP
0000
0000
7f80
0040
0020
0020
0020
0020
0040
7f80
0000
0000
ENDCHAR
STARTCHAR U2286
ENCODING 8838
SWIDTH 960 0
DWIDTH 12 0
BBX 12 12 0 -2
BITMAP
0000
0000
1fe0
2000
4000
4000
2000
1fe0
0000
0000
3fe0
0000
ENDCHAR
STARTCHAR U2287
ENCODING 8839
SWIDTH 960 0
DWIDTH 12 0
BBX 12 12 0 -2
BITMAP
0000
0000
7f80
0040
0020
0020
0040
7f80
0000
0000
7fc0
0000
ENDCHAR
STARTCHAR U22A5
ENCODING 8869
SWIDTH 960 0
DWIDTH 12 0
BBX 12 12 0 -2
BITMAP
0000
0400
0400
0400
0400
0400
0400
0400
0400
7fe0
0000
0000
ENDCHAR
STARTCHAR U2312
ENCODING 8978
SWIDTH 960 0
DWIDTH 12 0
BBX 12 12 0 -2
BITMAP
0f00
30c0
4020
0000
0000
0000
0000
0000
0000
0000
0000
0000
ENDCHAR
STARTCHAR U2500
ENCODING 9472
SWIDTH 960 0
DWIDTH 12 0
BBX 12 12 0 -2
BITMAP
0000
0000
0000
0000
0000
fff0
0000
0000
0000
0000
0000
0000
ENDCHAR
STARTCHAR U2501
ENCODING 9473
SWIDTH 960 0
DWIDTH 12 0
BBX 12 12 0 -2
BITMAP
0000
0000
0000
0000
0000
fff0
fff0
0000
0000
0000
0000
0000
ENDCHAR
STARTCHAR U2502
ENCODING 9474
SWIDTH 960 0
DWIDTH 12 0
BBX 12 12 0 -2
BITMAP
0400
0400
0400
0400
0400
0400
0400
0400
0400
0400
0400
0400
ENDCHAR
STARTCHAR U2503
ENCODING 9475
SWIDTH 960 0
DWIDTH 12 0
BBX 12 12 0 -2
BITMAP
0600
0600
0600
0600
0600
0600
0600
0600
0600
0600
0600
0600
ENDCHAR
STARTCHAR U250C
ENCODING 9484
SWIDTH 960 0
DWIDTH 12 0
BBX 12 12 0 -2
BITMAP
0000
0000
0000
0000
0000
07f0
0400
0400
0400
0400
0400
0400
ENDCHAR
STARTCHAR U250F
ENCODING 9487
SWIDTH 960 0
DWIDTH 12 0
BBX 12 12 0 -2
BITMAP
0000
0000
0000
0000
0000
07f0
07f0
0600
0600
0600
0600
0600
ENDCHAR
STARTCHAR U2510
ENCODING 9488
SWIDTH 960 0
DWIDTH 12 0
BBX 12 12 0 -2
BITMAP
0000
0000
0000
0000
0000
fc00
0400
0400
0400
0400
0400
0400
ENDCHAR
STARTCHAR U2513
ENCODING 9491
SWIDTH 960 0
DWIDTH 12 0
BBX 12 12 0 -2
BITMAP
0000
0000
0000
0000
0000
fe00
fe00
0600
0600
0600
0600
0600
ENDCHAR
STARTCHAR U2514
ENCODING 9492
SWIDTH 960 0
DWIDTH 12 0
BBX 12 12 0 -2
BITMAP
0400
0400
0400
0400
0400
07f0
0000
0000
0000
0000
0000
0000
ENDCHAR
STARTCHAR U2517
ENCODING 9495
SWIDTH 960 0
DWIDTH 12 0
BBX 12 12 0 -2
BITMAP
0600
0600
0600
0600
0600
07f0
07f0
0000
0000
0000
0000
0000
ENDCHAR
STARTCHAR U2518
ENCODING 9496
SWIDTH 960 0
DWIDTH 12 0
BBX 12 12 0 -2
BITMAP
0400
0400
0400
0400
0400
fc00
0000
0000
0000
0000
0000
0000
ENDCHAR
STARTCHAR U251B
ENCODING 9499
SWIDTH 960 0
DWIDTH 12 0
BBX 12 12 0 -2
BITMAP
0600
0600
0600
0600
0600
fe00
fe00
0000
0000
0000
0000
0000
ENDCHAR
STARTCHAR U251C
ENCODING 9500
SWIDTH 960 0
DWIDTH 12 0
BBX 12 12 0 -2
BITMAP
0400
0400
0400
0400
0400
07f0
0400
0400
0400
0400
0400
0400
ENDCHAR
STARTCHAR U251D
ENCODING 9501
SWIDTH 960 0
DWIDTH 12 0
BBX 12 12 0 -2
BITMAP
0400
0400
0400
0400
0400
07f0
07f0
0400
0400
0400
0400
0400
ENDCHAR
STARTCHAR U2520
ENCODING 9504
SWIDTH 960 0
DWIDTH 12 0
BBX 12 12 0 -2
BITMAP
0600
0600
0600
0600
0600
07f0
0600
0600
0600
0600
0600
0600
ENDCHAR
STARTCHAR U2523
ENCODING 9507
SWIDTH 960 0
DWIDTH 12 0
BBX 12 12 0 -2
BITMAP
0600
0600
0600
0600
0600
07f0
07f0
0600
0600
0600
0600
0600
ENDCHAR
STARTCHAR U2524
ENCODING 9508
SWIDTH 960 0
DWIDTH 12 0
BBX 12 12 0 -2
BITMAP
0400
0400
0400
0400
0400
fc00
0400
0400
0400
0400
0400
0400
ENDCHAR
STARTCHAR U2525
ENCODING 9509
SWIDTH 960 0
DWIDTH 12 0
BBX 12 12 0 -2
BITMAP
0400
0400
0400
0400
0400
fc00
fc00
0400
0400
0400
0400
0400
ENDCHAR
STARTCHAR U2528
ENCODING 9512
SWIDTH 960 0
DWIDTH 12 0
BBX 12 12 0 -2
BITMAP
0600
0600
0600
0600
0600
fe00
0600
0600
0600
0600
0600
0600
ENDCHAR
STARTCHAR U252B
ENCODING 9515
SWIDTH 960 0
DWIDTH 12 0
BBX 12 12 0 -2
BITMAP
0600
0600
0600
0600
0600
fe00
fe00
0600
0600
0600
0600
0600
ENDCHAR
STARTCHAR U252C
ENCODING 9516
SWIDTH 960 0
DWIDTH 12 0
BBX 12 12 0 -2
BITMAP
0000
0000
0000
0000
0000
fff0
0400
0400
0400
0400
0400
0400
ENDCHAR
STARTCHAR U252F
ENCODING 9519
SWIDTH 960 0
DWIDTH 12 0
BBX 12 12 0 -2
BITMAP
0000
0000
0000
0000
0000
fff0
fff0
0400
0400
0400
0400
0400
ENDCHAR
STARTCHAR U2530
ENCODING 9520
SWIDTH 960 0
DWIDTH 12 0
BBX 12 12 0 -2
BITMAP
0000
0000
0000
0000
0000
fff0
0600
0600
0600
0600
0600
0600
ENDCHAR
STARTCHAR U2533
ENCODING 9523
SWIDTH 960 0
DWIDTH 12 0
BBX 12 12 0 -2
BITMAP
0000
0000
0000
0000
0000
fff0
fff0
0600
0600
0600
0600
0600
ENDCHAR
STARTCHAR U2534
ENCODING 9524
SWIDTH 960 0
DWIDTH 12 0
BBX 12 12 0 -2
BITMAP
0400
0400
0400
0400
0400
fff0
0000
0000
0000
0000
0000
0000
ENDCHAR
STARTCHAR U2537
ENCODING 9527
SWIDTH 960 0
DWIDTH 12 0
BBX 12 12 0 -2
BITMAP
0400
0400
0400
0400
0400
fff0
fff0
0000
0000
0000
0000
0000
ENDCHAR
STARTCHAR U2538
ENCODING 9528
SWIDTH 960 0
DWIDTH 12 0
BBX 12 12 0 -2
BITMAP
0600
0600
0600
0600
0600
fff0
0000
0000
0000
0000
0000
0000
ENDCHAR
STARTCHAR U253B
ENCODING 9531
SWIDTH 960 0
DWIDTH 12 0
BBX 12 12 0 -2
BITMAP
0600
0600
0600
0600
0600
fff0
fff0
0000
0000
0000
0000
0000
ENDCHAR
STARTCHAR U253C
ENCODING 9532
SWIDTH 960 0
DWIDTH 12 0
BBX 12 12 0 -2
BITMAP
0400
0400
0400
0400
0400
fff0
0400
0400
0400
0400
0400
0400
ENDCHAR
STARTCHAR U253F
ENCODING 9535
SWIDTH 960 0
DWIDTH 12 0
BBX 12 12 0 -2
BITMAP
0400
0400
0400
0400
0400
fff0
fff0
0400
0400
0400
0400
0400
ENDCHAR
STARTCHAR U2542
ENCODING 9538
SWIDTH 960 0
DWIDTH 12 0
BBX 12 12 0 -2
BITMAP
0600
0600
0600
0600
0600
fff0
0600
0600
0600
0600
0600
0600
ENDCHAR
STARTCHAR U254B
ENCODING 9547
SWIDTH 960 0
DWIDTH 12 0
BBX 12 12 0 -2
BITMAP
0600
0600
0600
0600
0600
fff0
fff0
0600
0600
0600
0600
0600
ENDCHAR
STARTCHAR U25A0
ENCODING 9632
SWIDTH 960 0
DWIDTH 12 0
BBX 12 12 0 -2
BITMAP
0000
ffe0
ffe0
ffe0
ffe0
ffe0
ffe0
ffe0
ffe0
ffe0
ffe0
ffe0
ENDCHAR
STARTCHAR U25A1
ENCODING 9633
SWIDTH 960 0
DWIDTH 12 0
BBX 12 12 0 -2
BITMAP
0000
ffe0
8020
8020
8020
8020
8020
8020
8020
8020
8020
ffe0
ENDCHAR
STARTCHAR U25B2
ENCODING 9650
SWIDTH 960 0
DWIDTH 12 0
BBX 12 12 0 -2
BITMAP
0400
0400
0e00
0e00
1f00
1f00
3f80
3f80
7fc0
7fc0
ffe0
0000
ENDCHAR
STARTCHAR U25B3
ENCODING 9651
SWIDTH 960 0
DWIDTH 12 0
BBX 12 12 0 -2
BITMAP
0400
0400
0a00
0a00
1100
1100
2080
2080
4040
4040
ffe0
0000
ENDCHAR
STARTCHAR U25BC
ENCODING 9660
SWIDTH 960 0
DWIDTH 12 0
BBX 12 12 0 -2
BITMAP
0000
ffe0
7fc0
7fc0
3f80
3f80
1f00
1f00
0e00
0e00
0400
0400
ENDCHAR
STARTCHAR U25BD
ENCODING 9661
SWIDTH 960 0
DWIDTH 12 0
BBX 12 12 0 -2
BITMAP
0000
ffe0
4040
4040
2080
2080
1100
1100
0a00
0a00
0400
0400
ENDCHAR
STARTCHAR U25C6
ENCODING 9670
SWIDTH 960 0
DWIDTH 12 0
BBX 12 12 0 -2
BITMAP
0000
0400
0e00
1f00
3f80
7fc0
ffe0
7fc0
3f80
1f00
0e00
0400
ENDCHAR
STARTCHAR U25C7
ENCODING 9671
SWIDTH 960 0
DWIDTH 12 0
BBX 12 12 0 -2
BITMAP
0000
0400
0a00
1100
2080
4040
8020
4040
2080
1100
0a00
0400
ENDCHAR
STARTCHAR U25CB
ENCODING 9675
SWIDTH 960 0
DWIDTH 12 0
BBX 12 12 0 -2
BITMAP
0000
0e00
3180
4040
4040
8020
8020
8020
4040
4040
3180
0e00
ENDCHAR
STARTCHAR U25CE
ENCODING 9678
SWIDTH 960 0
DWIDTH 12 0
BBX 12 12 0 -2
BITMAP
0000
0e00
3180
4e40
5140
a0a0
a0a0
a0a0
5140
4e40
3180
0e00
ENDCHAR
STARTCHAR U25CF
ENCODING 9679
SWIDTH 960 0
DWIDTH 12 0
BBX 12 12 0 -2
BITMAP
0000
0e00
3f80
7fc0
7fc0
ffe0
ffe0
ffe0
7fc0
7fc0
3f80
0e00
ENDCHAR
STARTCHAR U25EF
ENCODING 9711
SWIDTH 960 0
DWIDTH 12 0
BBX 12 12 0 -2
BITMAP
0f00
30c0
4020
4020
8010
8010
8010
8010
4020
4020
30c0
0f00
ENDCHAR
STARTCHAR U2605
ENCODING 9733
SWIDTH 960 0
DWIDTH 12 0
BBX 12 12 0 -2
BITMAP
0000
0400
0400
0e00
ffe0
7fc0
3f80
1f00
3f80
3b80
60c0
0000
ENDCHAR
STARTCHAR U2606
ENCODING 9734
SWIDTH 960 0
DWIDTH 12 0
BBX 12 12 0 -2
BITMAP
0000
0400
0400
0a00
fbe0
4040
2080
1100
2480
3b80
60c0
0000
ENDCHAR
STARTCHAR U2640
ENCODING 9792
SWIDTH 960 0
DWIDTH 12 0
BBX 12 12 0 -2
BITMAP
0000
0e00
1100
1100
1100
0e00
0400
0400
3f80
0400
0400
0400
ENDCHAR
STARTCHAR U2642
ENCODING 9794
SWIDTH 960 0
DWIDTH 12 0
BBX 12 12 0 -2
BITMAP
0000
03e0
0060
00a0
0120
0220
3c00
4400
4400
4400
3800
0000
ENDCHAR
STARTCHAR U266A
ENCODING 9834
SWIDTH 960 0
DWIDTH 12 0
BBX 12 12 0 -2
BITMAP
0200
0300
0380
02c0
0240
0240
0280
0200
1e00
3e00
1c00
0000
ENDCHAR
STARTCHAR U266D
ENCODING 9837
SWIDTH 960 0
DWIDTH 12 0
BBX 12 12 0 -2
BITMAP
0800
0800
0800
0800
0800
0b00
0d80
0980
0900
0a00
0c00
0000
ENDCHAR
STARTCHAR U266F
ENCODING 9839
SWIDTH 960 0
DWIDTH 12 0
BBX 12 12 0 -2
BITMAP
0100
0100
09c0
0fc0
3f00
3900
09c0
0fc0
3f00
3900
0800
0800
ENDCHAR
STARTCHAR U3000
ENCODING 12288
SWIDTH 960 0
DWIDTH 12 0
BBX 12 12 0 -2
BITMAP
0000
0000
0000
0000
0000
0000
0000
0000
0000
0000
0000
0000
ENDCHAR
STARTCHAR U3001
ENCODING 12289
SWIDTH 960 0
DWIDTH 12 0
BBX 12 12 0 -2
BITMAP
0000
0000
0000
0000
0000
0000
0000
0000
0000
4000
2000
2000
ENDCHAR
STARTCHAR U3002
ENCODING 12290
SWIDTH 960 0
DWIDTH 12 0
BBX 12 12 0 -2
BITMAP
0000
0000
0000
0000
0000
0000
0000
0000
0000
3000
4800
3000
ENDCHAR
STARTCHAR U3003
ENCODING 12291
SWIDTH 960 0
DWIDTH 12 0
BBX 12 12 0 -2
BITMAP
0000
0000
0000
0900
0900
0900
1200
1200
2400
0000
0000
0000
ENDCHAR
STARTCHAR U3005
ENCODING 12293
SWIDTH 960 0
DWIDTH 12 0
BBX 12 12 0 -2
BITMAP
0000
0000
0800
0f80
0880
1100
2100
4a00
0600
0100
0080
0000
ENDCHAR
STARTCHAR U3006
ENCODING 12294
SWIDTH 960 0
DWIDTH 12 0
BBX 12 12 0 -2
BITMAP
0000
0040
0040
0080
0100
1a00
2600
4900
5000
6000
0000
0000
ENDCHAR
STARTCHAR U3007
ENCODING 12295
SWIDTH 960 0
DWIDTH 12 0
BBX 12 12 0 -2
BITMAP
0000
0e00
3180
4040
4040
8020
8020
8020
4040
4040
3180
0e00
ENDCHAR
STARTCHAR U3008
ENCODING 12296
SWIDTH 960 0
DWIDTH 12 0
BBX 12 12 0 -2
BITMAP
0040
0080
0080
0100
0100
0200
0200
0100
0100
0080
0080
0040
ENDCHAR
STARTCHAR U3009
ENCODING 12297
SWIDTH 960 0
DWIDTH 12 0
BBX 12 12 0 -2
BITMAP
2000
1000
1000
0800
0800
0400
0400
0800
0800
1000
1000
2000
ENDCHAR
STARTCHAR U300A
ENCODING 12298
SWIDTH 960 0
DWIDTH 12 0
BBX 12 12 0 -2
BITMAP
0240
0480
0480
0900
0900
1200
1200
0900
0900
0480
0480
0240
ENDCHAR
STARTCHAR U300B
ENCODING 12299
SWIDTH 960 0
DWIDTH 12 0
BBX 12 12 0 -2
BITMAP
2400
1200
1200
0900
0900
0480
0480
0900
0900
1200
1200
2400
ENDCHAR
STARTCHAR U300C
ENCODING 12300
SWIDTH 960 0
DWIDTH 12 0
BBX 12 12 0 -2
BITMAP
03c0
0200
0200
0200
0200
0200
0200
0200
0000
0000
0000
0000
ENDCHAR
STARTCHAR U300D
ENCODING 12301
SWIDTH 960 0
DWIDTH 12 0
BBX 12 12 0 -2
BITMAP
0000
0000
0000
0000
0400
0400
0400
0400
0400
0400
0400
3c00
ENDCHAR
STARTCHAR U300E
ENCODING 12302
SWIDTH 960 0
DWIDTH 12 0
BBX 12 12 0 -2
BITMAP
07c0
0440
05c0
0500
0500
0500
0500
0700
0000
0000
0000
0000
ENDCHAR
STARTCHAR U300F
ENCODING 12303
SWIDTH 960 0
DWIDTH 12 0
BBX 12 12 0 -2
BITMAP
0000
0000
0000
0000
0e00
0a00
0a00
0a00
0a00
3a00
2200
3e00
ENDCHAR
STARTCHAR U3010
ENCODING 12304
SWIDTH 960 0
DWIDTH 12 0
BBX 12 12 0 -2
BITMAP
03c0
0380
0380
0300
0300
0300
0300
0300
0300
0380
0380
03c0
ENDCHAR
STARTCHAR U3011
ENCODING 12305
SWIDTH 960 0
DWIDTH 12 0
BBX 12 12 0 -2
BITMAP
3c00
1c00
1c00
0c00
0c00
0c00
0c00
0c00
0c00
1c00
1c00
3c00
ENDCHAR
STARTCHAR U3012
ENCODING 12306
SWIDTH 960 0
DWIDTH 12 0
BBX 12 12 0 -2
BITMAP
0000
7fe0
7fe0
0000
fff0
fff0
0600
0600
0600
0600
0600
0600
ENDCHAR
STARTCHAR U3013
ENCODING 12307
SWIDTH 960 0
DWIDTH 12 0
BBX 12 12 0 -2
BITMAP
0000
0000
0000
fff0
fff0
0000
0000
fff0
fff0
0000
0000
0000
ENDCHAR
STARTCHAR U3014
ENCODING 12308
SWIDTH 960 0
DWIDTH 12 0
BBX 12 12 0 -2
BITMAP
00c0
0300
0200
0200
0200
0200
0200
0200
0200
0200
0300
00c0
ENDCHAR
STARTCHAR U3015
ENCODING 12309
SWIDTH 960 0
DWIDTH 12 0
BBX 12 12 0 -2
BITMAP
3000
0c00
0400
0400
0400
0400
0400
0400
0400
0400
0c00
3000
ENDCHAR
STARTCHAR U301C
ENCODING 12316
SWIDTH 960 0
DWIDTH 12 0
BBX 12 12 0 -2
BITMAP
0000
0000
0000
0000
3800
4400
0220
01c0
0000
0000
0000
0000
ENDCHAR
STARTCHAR U3041
ENCODING 12353
SWIDTH 960 0
DWIDTH 12 0
BBX 12 12 0 -2
BITMAP
0000
0000
0000
0000
0800
1e00
0a00
1f00
1c80
2880
1100
0000
ENDCHAR
STARTCHAR U3042
ENCODING 12354
SWIDTH 960 0
DWIDTH 12 0
BBX 12 12 0 -2
BITMAP
0800
0800
3f00
0800
0f00
1280
3240
5440
4c40
4880
3300
0000
ENDCHAR
STARTCHAR U3043
ENCODING 12355
SWIDTH 960 0
DWIDTH 12 0
BBX 12 12 0 -2
BITMAP
0000
0000
0000
0000
0000
1000
1200
2100
2900
1000
0000
0000
ENDCHAR
STARTCHAR U3044
ENCODING 12356
SWIDTH 960 0
DWIDTH 12 0
BBX 12 12 0 -2
BITMAP
0000
0000
2000
2100
4080
4080
4040
4840
2840
1000
0000
0000
ENDCHAR
STARTCHAR U3045
ENCODING 12357
SWIDTH 960 0
DWIDTH 12 0
BBX 12 12 0 -2
BITMAP
0000
0000
0000
0000
1000
0c00
1c00
2200
0200
0400
1800
0000
ENDCHAR
STARTCHAR U3046
ENCODING 12358
SWIDTH 960 0
DWIDTH 12 0
BBX 12 12 0 -2
BITMAP
0800
0600
0000
0e00
3100
0080
0080
0080
0100
0600
1800
0000
ENDCHAR
STARTCHAR U3047
ENCODING 12359
SWIDTH 960 0
DWIDTH 12 0
BBX 12 12 0 -2
BITMAP
0000
0000
0000
0000
1000
0800
3e00
0400
1800
2400
4700
0000
ENDCHAR
STARTCHAR U3048
ENCODING 12360
SWIDTH 960 0
DWIDTH 12 0
BBX 12 12 0 -2
BITMAP
0800
0600
0000
1f00
0100
0200
0400
0c00
1200
2200
41c0
0000
ENDCHAR
STARTCHAR U3049
ENCODING 12361
SWIDTH 960 0
DWIDTH 12 0
BBX 12 12 0 -2
BITMAP
0000
0000
0000
0000
0800
3d00
0880
0e00
1900
2900
1200
0000
ENDCHAR
STARTCHAR U304A
ENCODING 12362
SWIDTH 960 0
DWIDTH 12 0
BBX 12 12 0 -2
BITMAP
0800
0800
0e40
7820
0820
0f00
1880
2840
4840
4880
3300
0000
ENDCHAR
STARTCHAR U304B
ENCODING 12363
SWIDTH 960 0
DWIDTH 12 0
BBX 12 12 0 -2
BITMAP
0000
1000
1080
7c40
1240
1220
1220
2200
2200
5200
0c00
0000
ENDCHAR
STARTCHAR U304C
ENCODING 12364
SWIDTH 960 0
DWIDTH 12 0
BBX 12 12 0 -2
BITMAP
0000
10a0
10a0
7c40
1240
1220
1220
2200
2200
5200
0c00
0000
ENDCHAR
STARTCHAR U304D
ENCODING 12365
SWIDTH 960 0
DWIDTH 12 0
BBX 12 12 0 -2
BITMAP
0400
0700
3c00
0380
3e00
0100
0e80
1180
2000
1000
0f00
0000
ENDCHAR
STARTCHAR U304E
ENCODING 12366
SWIDTH 960 0
DWIDTH 12 0
BBX 12 12 0 -2
BITMAP
0540
0740
3c00
0380
3e00
0100
0e80
1180
2000
1000
0f00
0000
ENDCHAR
STARTCHAR U304F
ENCODING 12367
SWIDTH 960 0
DWIDTH 12 0
BBX 12 12 0 -2
BITMAP
0000
0200
0200
0400
0800
1000
1000
0800
0400
0200
0200
0000
ENDCHAR
STARTCHAR U3050
ENCODING 12368
SWIDTH 960 0
DWIDTH 12 0
BBX 12 12 0 -2
BITMAP
0000
0400
0680
0a80
1000
2000
2000
1000
0800
0400
0400
0000
ENDCHAR
STARTCHAR U3051
ENCODING 12369
SWIDTH 960 0
DWIDTH 12 0
BBX 12 12 0 -2
BITMAP
0080
2080
20e0
2780
4080
4080
4080
5080
2080
0100
0600
0000
ENDCHAR
STARTCHAR U3052
ENCODING 12370
SWIDTH 960 0
DWIDTH 12 0
BBX 12 12 0 -2
BITMAP
0150
2150
20e0
2780
4080
4080
4080
5080
2080
0100
0600
0000
ENDCHAR
STARTCHAR U3053
ENCODING 12371
SWIDTH 960 0
DWIDTH 12 0
BBX 12 12 0 -2
BITMAP
0000
1000
0f80
0000
0000
0000
0000
2000
2040
1f80
0000
0000
ENDCHAR
STARTCHAR U3054
ENCODING 12372
SWIDTH 960 0
DWIDTH 12 0
BBX 12 12 0 -2
BITMAP
0000
2140
1f40
0000
0000
0000
0000
4000
4080
3f00
0000
0000
ENDCHAR
STARTCHAR U3055
ENCODING 12373
SWIDTH 960 0
DWIDTH 12 0
BBX 12 12 0 -2
BITMAP
0400
0400
02c0
3f00
0200
0100
1e80
2180
2000
1800
0700
0000
ENDCHAR
STARTCHAR U3056
ENCODING 12374
SWIDTH 960 0
DWIDTH 12 0
BBX 12 12 0 -2
BITMAP
0940
0940
0580
7e00
0400
0200
3d00
4300
4000
3000
0e00
0000
ENDCHAR
STARTCHAR U3057
ENCODING 12375
SWIDTH 960 0
DWIDTH 12 0
BBX 12 12 0 -2
BITMAP
0000
1000
1000
1000
1000
1000
1000
1000
1040
0980
0600
0000
ENDCHAR
STARTCHAR U3058
ENCODING 12376
SWIDTH 960 0
DWIDTH 12 0
BBX 12 12 0 -2
BITMAP
0000
1000
1140
1140
1000
1000
1000
1000
1040
0980
0600
0000
ENDCHAR
STARTCHAR U3059
ENCODING 12377
SWIDTH 960 0
DWIDTH 12 0
BBX 12 12 0 -2
BITMAP
0200
0200
7fc0
0200
0e00
1200
1200
0e00
0200
0400
1800
0000
ENDCHAR
STARTCHAR U305A
ENCODING 12378
SWIDTH 960 0
DWIDTH 12 0
BBX 12 12 0 -2
BITMAP
02a0
02a0
7fc0
0200
0e00
1200
1200
0e00
0200
0400
1800
0000
ENDCHAR
STARTCHAR U305B
ENCODING 12379
SWIDTH 960 0
DWIDTH 12 0
BBX 12 12 0 -2
BITMAP
0000
0100
1100
11e0
7f00
1100
1100
1200
1000
0800
0780
0000
ENDCHAR
STARTCHAR U305C
ENCODING 12380
SWIDTH 960 0
DWIDTH 12 0
BBX 12 12 0 -2
BITMAP
0000
02a0
22a0
2380
fe00
2200
2200
2400
2000
1000
0f00
0000
ENDCHAR
STARTCHAR U305D
ENCODING 12381
SWIDTH 960 0
DWIDTH 12 0
BBX 12 12 0 -2
BITMAP
0000
1f00
0200
0400
09c0
7e00
0400
0800
0800
0400
0300
0000
ENDCHAR
STARTCHAR U305E
ENCODING 12382
SWIDTH 960 0
DWIDTH 12 0
BBX 12 12 0 -2
BITMAP
0000
1fa0
02a0
0400
09c0
7e00
0400
0800
0800
0400
0300
0000
ENDCHAR
STARTCHAR U305F
ENCODING 12383
SWIDTH 960 0
DWIDTH 12 0
BBX 12 12 0 -2
BITMAP
0800
0800
7e00
1000
10c0
1300
2000
2000
2400
4400
43c0
0000
ENDCHAR
STARTCHAR U3060
ENCODING 12384
SWIDTH 960 0
DWIDTH 12 0
BBX 12 12 0 -2
BITMAP
0800
08a0
7ea0
1000
10c0
1300
2000
2000
2400
4400
43c0
0000
ENDCHAR
STARTCHAR U3061
ENCODING 12385
SWIDTH 960 0
DWIDTH 12 0
BBX 12 12 0 -2
BITMAP
1000
1000
7f00
1000
1000
2600
3900
2080
0080
0300
1c00
0000
ENDCHAR
STARTCHAR U3062
ENCODING 12386
SWIDTH 960 0
DWIDTH 12 0
BBX 12 12 0 -2
BITMAP
1000
1140
7f40
1000
1000
2600
3900
2080
0080
0300
1c00
0000
ENDCHAR
STARTCHAR U3063
ENCODING 12387
SWIDTH 960 0
DWIDTH 12 0
BBX 12 12 0 -2
BITMAP
0000
0000
0000
0000
0000
0000
0e00
3100
0100
0200
0c00
0000
ENDCHAR
STARTCHAR U3064
ENCODING 12388
SWIDTH 960 0
DWIDTH 12 0
BBX 12 12 0 -2
BITMAP
0000
0000
0f00
f080
0040
0040
0080
0300
0c00
0000
0000
0000
ENDCHAR
STARTCHAR U3065
ENCODING 12389
SWIDTH 960 0
DWIDTH 12 0
BBX 12 12 0 -2
BITMAP
0000
00a0
1ea0
e100
0080
0080
0100
0600
1800
0000
0000
0000
ENDCHAR
STARTCHAR U3066
ENCODING 12390
SWIDTH 960 0
DWIDTH 12 0
BBX 12 12 0 -2
BITMAP
0000
01c0
7e00
0200
0400
0800
0800
0800
0400
0380
0000
0000
ENDCHAR
STARTCHAR U3067
ENCODING 12391
SWIDTH 960 0
DWIDTH 12 0
BBX 12 12 0 -2
BITMAP
0000
0380
fc00
0540
0940
1000
1000
1000
0800
0700
0000
0000
ENDCHAR
STARTCHAR U3068
ENCODING 12392
SWIDTH 960 0
DWIDTH 12 0
BBX 12 12 0 -2
BITMAP
0000
0800
0800
0800
04c0
0700
0c00
1000
2000
1000
0fc0
0000
ENDCHAR
STARTCHAR U3069
ENCODING 12393
SWIDTH 960 0
DWIDTH 12 0
BBX 12 12 0 -2
BITMAP
0000
08a0
08a0
0800
04c0
0700
0c00
1000
2000
1000
0fc0
0000
ENDCHAR
STARTCHAR U306A
ENCODING 12394
SWIDTH 960 0
DWIDTH 12 0
BBX 12 12 0 -2
BITMAP
0800
0800
3e40
10a0
1080
2080
2080
4780
08c0
08a0
0700
0000
ENDCHAR
STARTCHAR U306B
ENCODING 12395
SWIDTH 960 0
DWIDTH 12 0
BBX 12 12 0 -2
BITMAP
0000
2000
2180
2600
4000
4000
4000
4400
4400
53c0
2000
0000
ENDCHAR
STARTCHAR U306C
ENCODING 12396
SWIDTH 960 0
DWIDTH 12 0
BBX 12 12 0 -2
BITMAP
0000
0200
2200
2f80
3240
2220
3420
5420
49a0
4a40
31c0
0000
ENDCHAR
STARTCHAR U306D
ENCODING 12397
SWIDTH 960 0
DWIDTH 12 0
BBX 12 12 0 -2
BITMAP
1000
1000
1000
7b80
1440
1840
1040
3040
31c0
5260
1180
0000
ENDCHAR
STARTCHAR U306E
ENCODING 12398
SWIDTH 960 0
DWIDTH 12 0
BBX 12 12 0 -2
BITMAP
0000
0f00
1480
2440
4420
4420
4820
4840
3080
0300
0000
0000
ENDCHAR
STARTCHAR U306F
ENCODING 12399
SWIDTH 960 0
DWIDTH 12 0
BBX 12 12 0 -2
BITMAP
0000
2080
20e0
2f80
4080
4080
4080
4780
48c0
58a0
2700
0000
ENDCHAR
STARTCHAR U3070
ENCODING 12400
SWIDTH 960 0
DWIDTH 12 0
BBX 12 12 0 -2
BITMAP
0050
20d0
2080
2fc0
4080
4080
4080
4780
48c0
58a0
2700
0000
ENDCHAR
STARTCHAR U3071
ENCODING 12401
SWIDTH 960 0
DWIDTH 12 0
BBX 12 12 0 -2
BITMAP
0060
2090
20e0
2f80
4080
4080
4080
4780
48c0
58a0
2700
0000
ENDCHAR
STARTCHAR U3072
ENCODING 12402
SWIDTH 960 0
DWIDTH 12 0
BBX 12 12 0 -2
BITMAP
0000
0200
1c00
0880
1080
10c0
20a0
2080
2080
1100
0e00
0000
ENDCHAR
STARTCHAR U3073
ENCODING 12403
SWIDTH 960 0
DWIDTH 12 0
BBX 12 12 0 -2
BITMAP
0000
0450
3850
1100
2100
2180
4140
4100
4100
2200
1c00
0000
ENDCHAR
STARTCHAR U3074
ENCODING 12404
SWIDTH 960 0
DWIDTH 12 0
BBX 12 12 0 -2
BITMAP
0060
0890
7060
1100
2100
2180
4140
4100
4100
2200
1c00
0000
ENDCHAR
STARTCHAR U3075
ENCODING 12405
SWIDTH 960 0
DWIDTH 12 0
BBX 12 12 0 -2
BITMAP
0000
0800
0700
0000
0400
0480
1240
1220
2120
5100
0e00
0000
ENDCHAR
STARTCHAR U3076
ENCODING 12406
SWIDTH 960 0
DWIDTH 12 0
BBX 12 12 0 -2
BITMAP
0000
08a0
07a0
0000
0400
0480
1240
1220
2120
5100
0e00
0000
ENDCHAR
STARTCHAR U3077
ENCODING 12407
SWIDTH 960 0
DWIDTH 12 0
BBX 12 12 0 -2
BITMAP
0000
0860
0790
0060
0400
0480
1240
1220
2120
5100
0e00
0000
ENDCHAR
STARTCHAR U3078
ENCODING 12408
SWIDTH 960 0
DWIDTH 12 0
BBX 12 12 0 -2
BITMAP
0000
0000
0000
0c00
1200
6100
0080
0040
0020
0000
0000
0000
ENDCHAR
STARTCHAR U3079
ENCODING 12409
SWIDTH 960 0
DWIDTH 12 0
BBX 12 12 0 -2
BITMAP
0000
00a0
00a0
0c00
1200
6100
0080
0040
0020
0000
0000
0000
ENDCHAR
STARTCHAR U307A
ENCODING 12410
SWIDTH 960 0
DWIDTH 12 0
BBX 12 12 0 -2
BITMAP
0000
00c0
0120
0cc0
1200
2100
c080
0040
0020
0000
0000
0000
ENDCHAR
STARTCHAR U307B
ENCODING 12411
SWIDTH 960 0
DWIDTH 12 0
BBX 12 12 0 -2
BITMAP
0000
2fe0
2080
2080
47c0
4080
4080
4780
48c0
58a0
2700
0000
ENDCHAR
STARTCHAR U307C
ENCODING 12412
SWIDTH 960 0
DWIDTH 12 0
BBX 12 12 0 -2
BITMAP
0050
2fd0
2080
2080
47c0
4080
4080
4780
48c0
58a0
2700
0000
ENDCHAR
STARTCHAR U307D
ENCODING 12413
SWIDTH 960 0
DWIDTH 12 0
BBX 12 12 0 -2
BITMAP
0060
2f90
20e0
2080
47c0
4080
4080
4780
48c0
58a0
2700
0000
ENDCHAR
STARTCHAR U307E
ENCODING 12414
SWIDTH 960 0
DWIDTH 12 0
BBX 12 12 0 -2
BITMAP
0200
0200
3fc0
0200
0380
3e00
0200
1e00
2380
2240
1c00
0000
ENDCHAR
STARTCHAR U307F
ENCODING 12415
SWIDTH 960 0
DWIDTH 12 0
BBX 12 12 0 -2
BITMAP
0000
3c00
0400
0480
0480
1f80
28c0
48a0
5080
2100
0200
0000
ENDCHAR
STARTCHAR U3080
ENCODING 12416
SWIDTH 960 0
DWIDTH 12 0
BBX 12 12 0 -2
BITMAP
0800
0800
7cc0
0820
3800
4800
4800
5040
3040
1040
0f80
0000
ENDCHAR
STARTCHAR U3081
ENCODING 12417
SWIDTH 960 0
DWIDTH 12 0
BBX 12 12 0 -2
BITMAP
0000
0200
2700
2a80
3240
2420
5420
4820
4840
3080
0300
0000
ENDCHAR
STARTCHAR U3082
ENCODING 12418
SWIDTH 960 0
DWIDTH 12 0
BBX 12 12 0 -2
BITMAP
0800
0800
3e00
0800
1100
7e00
1000
1080
1080
0900
0600
0000
ENDCHAR
STARTCHAR U3083
ENCODING 12419
SWIDTH 960 0
DWIDTH 12 0
BBX 12 12 0 -2
BITMAP
0000
0000
0000
0000
0a00
0b80
3d40
0840
0580
0400
0400
0000
ENDCHAR
STARTCHAR U3084
ENCODING 12420
SWIDTH 960 0
DWIDTH 12 0
BBX 12 12 0 -2
BITMAP
0400
2400
2380
1640
3a20
d040
0980
0800
0800
0400
0400
0000
ENDCHAR
STARTCHAR U3085
ENCODING 12421
SWIDTH 960 0
DWIDTH 12 0
BBX 12 12 0 -2
BITMAP
0000
0000
0000
0000
0200
1380
1640
1a40
1380
0200
0400
0000
ENDCHAR
STARTCHAR U3086
ENCODING 12422
SWIDTH 960 0
DWIDTH 12 0
BBX 12 12 0 -2
BITMAP
0200
0200
4780
4a40
5220
6220
6a40
4780
4200
0400
0800
0000
ENDCHAR
STARTCHAR U3087
ENCODING 12423
SWIDTH 960 0
DWIDTH 12 0
BBX 12 12 0 -2
BITMAP
0000
0000
0000
0000
0400
0700
0400
0400
1e00
2580
1800
0000
ENDCHAR
STARTCHAR U3088
ENCODING 12424
SWIDTH 960 0
DWIDTH 12 0
BBX 12 12 0 -2
BITMAP
0400
0400
0400
0780
0400
0400
0400
3c00
4700
44c0
3800
0000
ENDCHAR
STARTCHAR U3089
ENCODING 12425
SWIDTH 960 0
DWIDTH 12 0
BBX 12 12 0 -2
BITMAP
0800
0600
0000
2000
2000
2f00
3080
2080
0080
0300
1c00
0000
ENDCHAR
STARTCHAR U308A
ENCODING 12426
SWIDTH 960 0
DWIDTH 12 0
BBX 12 12 0 -2
BITMAP
0100
0880
0880
1080
1080
1080
1480
0880
0080
0100
0600
0000
ENDCHAR
STARTCHAR U308B
ENCODING 12427
SWIDTH 960 0
DWIDTH 12 0
BBX 12 12 0 -2
BITMAP
0000
1f00
0200
0400
0f00
1880
2040
4040
0c80
1300
0e00
0000
ENDCHAR
STARTCHAR U308C
ENCODING 12428
SWIDTH 960 0
DWIDTH 12 0
BBX 12 12 0 -2
BITMAP
1000
1000
1300
1480
7880
1080
1080
3080
3080
5060
1000
0000
ENDCHAR
STARTCHAR U308D
ENCODING 12429
SWIDTH 960 0
DWIDTH 12 0
BBX 12 12 0 -2
BITMAP
0000
1f00
0200
0400
0f00
1880
2040
4040
0080
0100
0e00
0000
ENDCHAR
STARTCHAR U308E
ENCODING 12430
SWIDTH 960 0
DWIDTH 12 0
BBX 12 12 0 -2
BITMAP
0000
0000
0000
0000
0800
1c00
0b80
0c40
1840
2880
0900
0000
ENDCHAR
STARTCHAR U308F
ENCODING 12431
SWIDTH 960 0
DWIDTH 12 0
BBX 12 12 0 -2
BITMAP
1000
1000
1000
1b80
7440
1820
1020
3020
5040
1180
1000
0000
ENDCHAR
STARTCHAR U3090
ENCODING 12432
SWIDTH 960 0
DWIDTH 12 0
BBX 12 12 0 -2
BITMAP
0000
1e00
0200
0200
0f80
1440
2420
4820
4b20
34c0
0380
0000
ENDCHAR
STARTCHAR U3091
ENCODING 12433
SWIDTH 960 0
DWIDTH 12 0
BBX 12 12 0 -2
BITMAP
0000
1f80
0200
0f80
1040
2640
0980
0600
0000
2cc0
4320
0000
ENDCHAR
STARTCHAR U3092
ENCODING 12434
SWIDTH 960 0
DWIDTH 12 0
BBX 12 12 0 -2
BITMAP
0400
0400
3f00
0800
10c0
3900
4600
0a00
1200
1000
0f80
0000
ENDCHAR
STARTCHAR U3093
ENCODING 12435
SWIDTH 960 0
DWIDTH 12 0
BBX 12 12 0 -2
BITMAP
0000
0400
0400
0800
0800
1000
1c00
2200
2220
4240
4180
0000
ENDCHAR
STARTCHAR U309B
ENCODING 12443
SWIDTH 960 0
DWIDTH 12 0
BBX 12 12 0 -2
BITMAP
2000
9000
5000
4000
0000
0000
0000
0000
0000
0000
0000
0000
ENDCHAR
STARTCHAR U309C
ENCODING 12444
SWIDTH 960 0
DWIDTH 12 0
BBX 12 12 0 -2
BITMAP
0000
4000
a000
a000
4000
0000
0000
0000
0000
0000
0000
0000
ENDCHAR
STARTCHAR U309D
ENCODING 12445
SWIDTH 960 0
DWIDTH 12 0
BBX 12 12 0 -2
BITMAP
0000
0000
0000
0000
1800
0600
0100
0380
0400
0000
0000
0000
ENDCHAR
STARTCHAR U309E
ENCODING 12446
SWIDTH 960 0
DWIDTH 12 0
BBX 12 12 0 -2
BITMAP
0000
0100
0480
0200
3000
0c00
0200
0700
0800
0000
0000
0000
ENDCHAR
STARTCHAR U30A1
ENCODING 12449
SWIDTH 960 0
DWIDTH 12 0
BBX 12 12 0 -2
BITMAP
0000
0000
0000
0000
0000
3f00
0900
0e00
0800
0800
1000
0000
ENDCHAR
STARTCHAR U30A2
ENCODING 12450
SWIDTH 960 0
DWIDTH 12 0
BBX 12 12 0 -2
BITMAP
0000
0000
ffc0
0040
0880
0900
0e00
0800
0800
1000
2000
0000
ENDCHAR
STARTCHAR U30A3
ENCODING 12451
SWIDTH 960 0
DWIDTH 12 0
BBX 12 12 0 -2
BITMAP
0000
0000
0000
0000
0200
0200
0400
0c00
3400
0400
0400
0000
ENDCHAR
STARTCHAR U30A4
ENCODING 12452
SWIDTH 960 0
DWIDTH 12 0
BBX 12 12 0 -2
BITMAP
0000
0080
0080
0100
0200
0e00
3200
0200
0200
0200
0200
0000
ENDCHAR
STARTCHAR U30A5
ENCODING 12453
SWIDTH 960 0
DWIDTH 12 0
BBX 12 12 0 -2
BITMAP
0000
0000
0000
0000
0800
0800
3f00
2100
2200
0400
1800
0000
ENDCHAR
STARTCHAR U30A6
ENCODING 12454
SWIDTH 960 0
DWIDTH 12 0
BBX 12 12 0 -2
BITMAP
0400
0400
0400
7fc0
4040
4040
4080
0080
0100
0600
1800
0000
ENDCHAR
STARTCHAR U30A7
ENCODING 12455
SWIDTH 960 0
DWIDTH 12 0
BBX 12 12 0 -2
BITMAP
0000
0000
0000
0000
0000
0000
1f00
0400
0400
3f80
0000
0000
ENDCHAR
STARTCHAR U30A8
ENCODING 12456
SWIDTH 960 0
DWIDTH 12 0
BBX 12 12 0 -2
BITMAP
0000
0000
0000
3fc0
0400
0400
0400
0400
0400
7fe0
0000
0000
ENDCHAR
STARTCHAR U30A9
ENCODING 12457
SWIDTH 960 0
DWIDTH 12 0
BBX 12 12 0 -2
BITMAP
0000
0000
0000
0000
0200
0200
3f80
0600
0a00
3200
0600
0000
ENDCHAR
STARTCHAR U30AA
ENCODING 12458
SWIDTH 960 0
DWIDTH 12 0
BBX 12 12 0 -2
BITMAP
0100
0100
0100
3fe0
0300
0300
0500
0900
3100
0100
0300
0000
ENDCHAR
STARTCHAR U30AB
ENCODING 12459
SWIDTH 960 0
DWIDTH 12 0
BBX 12 12 0 -2
BITMAP
0400
0400
0400
3fc0
0440
0440
0440
0840
0840
1040
2180
0000
ENDCHAR
STARTCHAR U30AC
ENCODING 12460
SWIDTH 960 0
DWIDTH 12 0
BBX 12 12 0 -2
BITMAP
04a0
04a0
0400
3fc0
0440
0440
0440
0840
0840
1040
2180
0000
ENDCHAR
STARTCHAR U30AD
ENCODING 12461
SWIDTH 960 0
DWIDTH 12 0
BBX 12 12 0 -2
BITMAP
0400
0400
0780
7c00
0400
07c0
7e00
0200
0200
0200
0200
0000
ENDCHAR
STARTCHAR U30AE
ENCODING 12462
SWIDTH 960 0
DWIDTH 12 0
BBX 12 12 0 -2
BITMAP
04a0
04a0
0780
7c00
0400
07c0
7e00
0200
0200
0200
0200
0000
ENDCHAR
STARTCHAR U30AF
ENCODING 12463
SWIDTH 960 0
DWIDTH 12 0
BBX 12 12 0 -2
BITMAP
0000
0400
07c0
0440
0840
1080
2080
0100
0200
0c00
3000
0000
ENDCHAR
STARTCHAR U30B0
ENCODING 12464
SWIDTH 960 0
DWIDTH 12 0
BBX 12 12 0 -2
BITMAP
0050
0450
07c0
0440
0840
1080
2080
0100
0200
0c00
3000
0000
ENDCHAR
STARTCHAR U30B1
ENCODING 12465
SWIDTH 960 0
DWIDTH 12 0
BBX 12 12 0 -2
BITMAP
0000
1000
1000
1fe0
1100
2100
4100
0100
0200
0400
1800
0000
ENDCHAR
STARTCHAR U30B2
ENCODING 12466
SWIDTH 960 0
DWIDTH 12 0
BBX 12 12 0 -2
BITMAP
0000
1050
1050
1fc0
1100
2100
4100
0100
0200
0400
1800
0000
ENDCHAR
STARTCHAR U30B3
ENCODING 12467
SWIDTH 960 0
DWIDTH 12 0
BBX 12 12 0 -2
BITMAP
0000
0000
3fc0
0040
0040
0040
0040
0040
3fc0
0040
0000
0000
ENDCHAR
STARTCHAR U30B4
ENCODING 12468
SWIDTH 960 0
DWIDTH 12 0
BBX 12 12 0 -2
BITMAP
0000
00a0
00a0
7f80
0080
0080
0080
0080
0080
7f80
0080
0000
ENDCHAR
STARTCHAR U30B5
ENCODING 12469
SWIDTH 960 0
DWIDTH 12 0
BBX 12 12 0 -2
BITMAP
0000
0880
0880
0880
7fe0
0880
0880
0880
0100
0200
0c00
0000
ENDCHAR
STARTCHAR U30B6
ENCODING 12470
SWIDTH 960 0
DWIDTH 12 0
BBX 12 12 0 -2
BITMAP
0000
1150
1150
1100
7fc0
1100
1100
1100
0200
0400
1800
0000
ENDCHAR
STARTCHAR U30B7
ENCODING 12471
SWIDTH 960 0
DWIDTH 12 0
BBX 12 12 0 -2
BITMAP
0000
3000
0800
0040
6040
1080
0080
0100
0200
0c00
7000
0000
ENDCHAR
STARTCHAR U30B8
ENCODING 12472
SWIDTH 960 0
DWIDTH 12 0
BBX 12 12 0 -2
BITMAP
0000
30a0
08a0
0000
6040
1040
0080
0100
0200
0c00
7000
0000
ENDCHAR
STARTCHAR U30B9
ENCODING 12473
SWIDTH 960 0
DWIDTH 12 0
BBX 12 12 0 -2
BITMAP
0000
0000
3f80
0080
0080
0100
0100
0280
0440
1820
6020
0000
ENDCHAR
STARTCHAR U30BA
ENCODING 12474
SWIDTH 960 0
DWIDTH 12 0
BBX 12 12 0 -2
BITMAP
0000
00a0
3fa0
0080
0080
0100
0100
0280
0440
1820
6020
0000
ENDCHAR
STARTCHAR U30BB
ENCODING 12475
SWIDTH 960 0
DWIDTH 12 0
BBX 12 12 0 -2
BITMAP
0000
1000
1000
11c0
1e40
f080
1100
1200
1000
1000
0f80
0000
ENDCHAR
STARTCHAR U30BC
ENCODING 12476
SWIDTH 960 0
DWIDTH 12 0
BBX 12 12 0 -2
BITMAP
0000
10a0
10a0
11c0
1e40
f080
1100
1200
1000
1000
0f80
0000
ENDCHAR
STARTCHAR U30BD
ENCODING 12477
SWIDTH 960 0
DWIDTH 12 0
BBX 12 12 0 -2
BITMAP
0000
0000
2040
1040
1040
0080
0080
0100
0200
0c00
3000
0000
ENDCHAR
STARTCHAR U30BE
ENCODING 12478
SWIDTH 960 0
DWIDTH 12 0
BBX 12 12 0 -2
BITMAP
0000
00a0
20a0
1040
1040
0080
0080
0100
0200
0c00
3000
0000
ENDCHAR
STARTCHAR U30BF
ENCODING 12479
SWIDTH 960 0
DWIDTH 12 0
BBX 12 12 0 -2
BITMAP
0000
0400
07c0
0840
1040
6680
0180
0100
0200
0c00
3000
0000
ENDCHAR
STARTCHAR U30C0
ENCODING 12480
SWIDTH 960 0
DWIDTH 12 0
BBX 12 12 0 -2
BITMAP
0000
0450
07d0
0840
1040
6680
0180
0100
0200
0c00
3000
0000
ENDCHAR
STARTCHAR U30C1
ENCODING 12481
SWIDTH 960 0
DWIDTH 12 0
BBX 12 12 0 -2
BITMAP
0000
0180
3e00
0200
0200
7fe0
0200
0200
0200
0400
1800
0000
ENDCHAR
STARTCHAR U30C2
ENCODING 12482
SWIDTH 960 0
DWIDTH 12 0
BBX 12 12 0 -2
BITMAP
0000
01d0
3e50
0200
0200
7fe0
0200
0200
0200
0400
1800
0000
ENDCHAR
STARTCHAR U30C3
ENCODING 12483
SWIDTH 960 0
DWIDTH 12 0
BBX 12 12 0 -2
BITMAP
0000
0000
0000
0000
0800
2480
1480
1100
0100
0600
1800
0000
ENDCHAR
STARTCHAR U30C4
ENCODING 12484
SWIDTH 960 0
DWIDTH 12 0
BBX 12 12 0 -2
BITMAP
0000
0800
4440
2440
2440
2080
0080
0100
0200
0c00
3000
0000
ENDCHAR
STARTCHAR U30C5
ENCODING 12485
SWIDTH 960 0
DWIDTH 12 0
BBX 12 12 0 -2
BITMAP
00a0
08a0
4400
2440
2440
2080
0080
0100
0200
0c00
3000
0000
ENDCHAR
STARTCHAR U30C6
ENCODING 12486
SWIDTH 960 0
DWIDTH 12 0
BBX 12 12 0 -2
BITMAP
0000
0000
1f80
0000
0000
7fe0
0200
0200
0400
0800
3000
0000
ENDCHAR
STARTCHAR U30C7
ENCODING 12487
SWIDTH 960 0
DWIDTH 12 0
BBX 12 12 0 -2
BITMAP
0000
00a0
1fa0
0000
0000
7fe0
0200
0200
0400
0800
3000
0000
ENDCHAR
STARTCHAR U30C8
ENCODING 12488
SWIDTH 960 0
DWIDTH 12 0
BBX 12 12 0 -2
BITMAP
1000
1000
1000
1000
1c00
1300
1080
1000
1000
1000
1000
0000
ENDCHAR
STARTCHAR U30C9
ENCODING 12489
SWIDTH 960 0
DWIDTH 12 0
BBX 12 12 0 -2
BITMAP
1000
1140
1140
1000
1c00
1300
1080
1000
1000
1000
1000
0000
ENDCHAR
STARTCHAR U30CA
ENCODING 12490
SWIDTH 960 0
DWIDTH 12 0
BBX 12 12 0 -2
BITMAP
0200
0200
0200
7fe0
0200
0200
0200
0400
0400
0800
3000
0000
ENDCHAR
STARTCHAR U30CB
ENCODING 12491
SWIDTH 960 0
DWIDTH 12 0
BBX 12 12 0 -2
BITMAP
0000
0000
0000
1f80
0000
0000
0000
0000
7fe0
0000
0000
0000
ENDCHAR
STARTCHAR U30CC
ENCODING 12492
SWIDTH 960 0
DWIDTH 12 0
BBX 12 12 0 -2
BITMAP
0000
0000
1fc0
0040
0080
0c80
0300
0280
0440
1820
6000
0000
ENDCHAR
STARTCHAR U30CD
ENCODING 12493
SWIDTH 960 0
DWIDTH 12 0
BBX 12 12 0 -2
BITMAP
0400
0400
3f80
0080
0100
0600
1d80
6460
0400
0400
0400
0000
ENDCHAR
STARTCHAR U30CE
ENCODING 12494
SWIDTH 960 0
DWIDTH 12 0
BBX 12 12 0 -2
BITMAP
0000
0000
0040
0040
0080
0080
0100
0200
0c00
3000
0000
0000
ENDCHAR
STARTCHAR U30CF
ENCODING 12495
SWIDTH 960 0
DWIDTH 12 0
BBX 12 12 0 -2
BITMAP
0000
0000
0000
0900
0880
0880
1040
1040
1020
2020
4020
0000
ENDCHAR
STARTCHAR U30D0
ENCODING 12496
SWIDTH 960 0
DWIDTH 12 0
BBX 12 12 0 -2
BITMAP
0000
0050
0050
0900
0880
0880
1040
1040
1020
2020
4020
0000
ENDCHAR
STARTCHAR U30D1
ENCODING 12497
SWIDTH 960 0
DWIDTH 12 0
BBX 12 12 0 -2
BITMAP
0000
0060
0090
0960
0880
0880
1040
1040
1020
2020
4020
0000
ENDCHAR
STARTCHAR U30D2
ENCODING 12498
SWIDTH 960 0
DWIDTH 12 0
BBX 12 12 0 -2
BITMAP
0000
2000
2000
2000
2180
3e00
2000
2000
2000
1fc0
0000
0000
ENDCHAR
STARTCHAR U30D3
ENCODING 12499
SWIDTH 960 0
DWIDTH 12 0
BBX 12 12 0 -2
BITMAP
0000
20a0
20a0
2000
2380
3c00
2000
2000
2000
1fc0
0000
0000
ENDCHAR
STARTCHAR U30D4
ENCODING 12500
SWIDTH 960 0
DWIDTH 12 0
BBX 12 12 0 -2
BITMAP
0000
20c0
2120
20c0
2380
3c00
2000
2000
2000
1fc0
0000
0000
ENDCHAR
STARTCHAR U30D5
ENCODING 12501
SWIDTH 960 0
DWIDTH 12 0
BBX 12 12 0 -2
BITMAP
0000
0000
7fc0
0040
0040
0080
0080
0100
0200
0c00
3000
0000
ENDCHAR
STARTCHAR U30D6
ENCODING 12502
SWIDTH 960 0
DWIDTH 12 0
BBX 12 12 0 -2
BITMAP
0140
0140
7f80
0080
0080
0100
0100
0200
0400
1800
6000
0000
ENDCHAR
STARTCHAR U30D7
ENCODING 12503
SWIDTH 960 0
DWIDTH 12 0
BBX 12 12 0 -2
BITMAP
00c0
0120
7fc0
0080
0080
0100
0100
0200
0400
1800
6000
0000
ENDCHAR
STARTCHAR U30D8
ENCODING 12504
SWIDTH 960 0
DWIDTH 12 0
BBX 12 12 0 -2
BITMAP
0000
0000
0000
0c00
1200
2100
4080
0040
0020
0000
0000
0000
ENDCHAR
STARTCHAR U30D9
ENCODING 12505
SWIDTH 960 0
DWIDTH 12 0
BBX 12 12 0 -2
BITMAP
0000
00a0
00a0
0c00
1200
2100
4080
0040
0020
0000
0000
0000
ENDCHAR
STARTCHAR U30DA
ENCODING 12506
SWIDTH 960 0
DWIDTH 12 0
BBX 12 12 0 -2
BITMAP
0000
00c0
0120
0cc0
1200
2100
4080
0040
0020
0000
0000
0000
ENDCHAR
STARTCHAR U30DB
ENCODING 12507
SWIDTH 960 0
DWIDTH 12 0
BBX 12 12 0 -2
BITMAP
0400
0400
0400
7fc0
0400
1500
1480
2440
2440
4400
0c00
0000
ENDCHAR
STARTCHAR U30DC
ENCODING 12508
SWIDTH 960 0
DWIDTH 12 0
BBX 12 12 0 -2
BITMAP
0800
0940
0940
ff80
0800
2a00
2900
4880
4880
8800
1800
0000
ENDCHAR
STARTCHAR U30DD
ENCODING 12509
SWIDTH 960 0
DWIDTH 12 0
BBX 12 12 0 -2
BITMAP
0800
08c0
0920
fec0
0800
2a00
2900
4880
4880
8800
1800
0000
ENDCHAR
STARTCHAR U30DE
ENCODING 12510
SWIDTH 960 0
DWIDTH 12 0
BBX 12 12 0 -2
BITMAP
0000
0000
7fc0
0040
0080
0100
3200
0c00
0200
0100
0000
0000
ENDCHAR
STARTCHAR U30DF
ENCODING 12511
SWIDTH 960 0
DWIDTH 12 0
BBX 12 12 0 -2
BITMAP
0000
1c00
0300
0080
0000
1c00
0200
0000
3800
0600
0180
0000
ENDCHAR
STARTCHAR U30E0
ENCODING 12512
SWIDTH 960 0
DWIDTH 12 0
BBX 12 12 0 -2
BITMAP
0000
0400
0400
0400
0800
0a00
1100
1080
2780
7840
0040
0000
ENDCHAR
STARTCHAR U30E1
ENCODING 12513
SWIDTH 960 0
DWIDTH 12 0
BBX 12 12 0 -2
BITMAP
0000
0040
0040
0040
0c40
0380
0080
0140
0220
0c00
3000
0000
ENDCHAR
STARTCHAR U30E2
ENCODING 12514
SWIDTH 960 0
DWIDTH 12 0
BBX 12 12 0 -2
BITMAP
0000
0000
3f80
0800
0800
7fe0
0800
0800
0800
07c0
0000
0000
ENDCHAR
STARTCHAR U30E3
ENCODING 12515
SWIDTH 960 0
DWIDTH 12 0
BBX 12 12 0 -2
BITMAP
0000
0000
0000
0000
0800
0800
0bc0
3c80
0500
0400
0400
0000
ENDCHAR
STARTCHAR U30E4
ENCODING 12516
SWIDTH 960 0
DWIDTH 12 0
BBX 12 12 0 -2
BITMAP
0000
1000
1000
11e0
1e40
e880
0900
0800
0400
0400
0400
0000
ENDCHAR
STARTCHAR U30E5
ENCODING 12517
SWIDTH 960 0
DWIDTH 12 0
BBX 12 12 0 -2
BITMAP
0000
0000
0000
0000
0000
0000
1e00
0200
0200
3f80
0000
0000
ENDCHAR
STARTCHAR U30E6
ENCODING 12518
SWIDTH 960 0
DWIDTH 12 0
BBX 12 12 0 -2
BITMAP
0000
0000
0000
3f80
0080
0080
0100
0100
0100
7fe0
0000
0000
ENDCHAR
STARTCHAR U30E7
ENCODING 12519
SWIDTH 960 0
DWIDTH 12 0
BBX 12 12 0 -2
BITMAP
0000
0000
0000
0000
0000
3f00
0100
1f00
0100
0100
3f00
0000
ENDCHAR
STARTCHAR U30E8
ENCODING 12520
SWIDTH 960 0
DWIDTH 12 0
BBX 12 12 0 -2
BITMAP
0000
0000
7fc0
0040
0040
3fc0
0040
0040
0040
7fc0
0040
0000
ENDCHAR
STARTCHAR U30E9
ENCODING 12521
SWIDTH 960 0
DWIDTH 12 0
BBX 12 12 0 -2
BITMAP
0000
3f80
0000
0000
7fc0
0040
0080
0080
0100
0600
3800
0000
ENDCHAR
STARTCHAR U30EA
ENCODING 12522
SWIDTH 960 0
DWIDTH 12 0
BBX 12 12 0 -2
BITMAP
0000
1080
1080
1080
1080
1080
1080
0100
0100
0200
0c00
0000
ENDCHAR
STARTCHAR U30EB
ENCODING 12523
SWIDTH 960 0
DWIDTH 12 0
BBX 12 12 0 -2
BITMAP
0000
0200
1200
1200
1200
1220
1220
1240
2280
2300
4000
0000
ENDCHAR
STARTCHAR U30EC
ENCODING 12524
SWIDTH 960 0
DWIDTH 12 0
BBX 12 12 0 -2
BITMAP
0000
2000
2000
2000
2000
2000
2080
2100
2200
2c00
3000
0000
ENDCHAR
STARTCHAR U30ED
ENCODING 12525
SWIDTH 960 0
DWIDTH 12 0
BBX 12 12 0 -2
BITMAP
0000
0000
3fc0
2040
2040
2040
2040
2040
3fc0
2040
0000
0000
ENDCHAR
STARTCHAR U30EE
ENCODING 12526
SWIDTH 960 0
DWIDTH 12 0
BBX 12 12 0 -2
BITMAP
0000
0000
0000
0000
0000
3f00
2100
2100
0200
0400
1800
0000
ENDCHAR
STARTCHAR U30EF
ENCODING 12527
SWIDTH 960 0
DWIDTH 12 0
BBX 12 12 0 -2
BITMAP
0000
0000
3fc0
2040
2040
2040
0080
0080
0100
0600
1800
0000
ENDCHAR
STARTCHAR U30F0
ENCODING 12528
SWIDTH 960 0
DWIDTH 12 0
BBX 12 12 0 -2
BITMAP
0100
0100
0100
7fc0
1100
1100
1100
7fe0
0100
0100
0100
0000
ENDCHAR
STARTCHAR U30F1
ENCODING 12529
SWIDTH 960 0
DWIDTH 12 0
BBX 12 12 0 -2
BITMAP
0000
0000
3f80
0080
0500
0600
0400
0400
0400
7fc0
0000
0000
ENDCHAR
STARTCHAR U30F2
ENCODING 12530
SWIDTH 960 0
DWIDTH 12 0
BBX 12 12 0 -2
BITMAP
0000
0000
3fc0
0040
0040
1fc0
0080
0080
0100
0600
3800
0000
ENDCHAR
STARTCHAR U30F3
ENCODING 12531
SWIDTH 960 0
DWIDTH 12 0
BBX 12 12 0 -2
BITMAP
0000
0000
6000
1040
0040
0080
0080
0100
0200
0c00
7000
0000
ENDCHAR
STARTCHAR U30F4
ENCODING 12532
SWIDTH 960 0
DWIDTH 12 0
BBX 12 12 0 -2
BITMAP
04a0
04a0
0400
7fc0
4040
4040
0080
0080
0100
0600
1800
0000
ENDCHAR
STARTCHAR U30F5
ENCODING 12533
SWIDTH 960 0
DWIDTH 12 0
BBX 12 12 0 -2
BITMAP
0000
0000
0000
0000
0800
0800
3f00
0900
0900
1100
2600
0000
ENDCHAR
STARTCHAR U30F6
ENCODING 12534
SWIDTH 960 0
DWIDTH 12 0
BBX 12 12 0 -2
BITMAP
0000
0000
0000
0000
0800
0800
0f80
3200
0200
0400
1800
0000
ENDCHAR
STARTCHAR U30FB
ENCODING 12539
SWIDTH 960 0
DWIDTH 12 0
BBX 12 12 0 -2
BITMAP
0000
0000
0000
0000
0000
0600
0600
0000
0000
0000
0000
0000
ENDCHAR
STARTCHAR U30FC
ENCODING 12540
SWIDTH 960 0
DWIDTH 12 0
BBX 12 12 0 -2
BITMAP
0000
0000
0000
0000
0000
3fc0
0000
0000
0000
0000
0000
0000
ENDCHAR
STARTCHAR U30FD
ENCODING 12541
SWIDTH 960 0
DWIDTH 12 0
BBX 12 12 0 -2
BITMAP
0000
0000
0000
0000
0000
3000
0c00
0200
0100
0000
0000
0000
ENDCHAR
STARTCHAR U30FE
ENCODING 12542
SWIDTH 960 0
DWIDTH 12 0
BBX 12 12 0 -2
BITMAP
0000
0000
0100
0480
0200
3000
0c00
0200
0100
0000
0000
0000
ENDCHAR
STARTCHAR U4E00
ENCODING 19968
SWIDTH 960 0
DWIDTH 12 0
BBX 12 12 0 -2
BITMAP
0000
0000
0000
0000
0000
7fe0
0000
0000
0000
0000
0000
0000
ENDCHAR
STARTCHAR U4E01
ENCODING 19969
SWIDTH 960 0
DWIDTH 12 0
BBX 12 12 0 -2
BITMAP
0000
ffe0
0400
0400
0400
0400
0400
0400
0400
0400
0400
0c00
ENDCHAR
STARTCHAR U4E03
ENCODING 19971
SWIDTH 960 0
DWIDTH 12 0
BBX 12 12 0 -2
BITMAP
1000
1000
1000
1000
11e0
fe00
1000
1000
1000
1040
1040
0fc0
ENDCHAR
STARTCHAR U4E07
ENCODING 19975
SWIDTH 960 0
DWIDTH 12 0
BBX 12 12 0 -2
BITMAP
0000
ffe0
0800
0800
0f80
0880
0880
0880
1080
1080
2080
4300
ENDCHAR
STARTCHAR U4E08
ENCODING 19976
SWIDTH 960 0
DWIDTH 12 0
BBX 12 12 0 -2
BITMAP
0400
0400
0400
ffe0
0400
0400
2400
1400
0c00
0a00
3180
c060
ENDCHAR
STARTCHAR U4E09
ENCODING 19977
SWIDTH 960 0
DWIDTH 12 0
BBX 12 12 0 -2
BITMAP
0000
7fc0
0000
0000
0000
3f80
0000
0000
0000
0000
ffe0
0000
ENDCHAR
STARTCHAR U4E0A
ENCODING 19978
SWIDTH 960 0
DWIDTH 12 0
BBX 12 12 0 -2
BITMAP
0400
0400
0400
0400
0400
07c0
0400
0400
0400
0400
0400
ffe0
ENDCHAR
STARTCHAR U4E0B
ENCODING 19979
SWIDTH 960 0
DWIDTH 12 0
BBX 12 12 0 -2
BITMAP
0000
ffe0
0400
0400
0700
0480
0440
0400
0400
0400
0400
0400
ENDCHAR
STARTCHAR U4E0D
ENCODING 19981
SWIDTH 960 0
DWIDTH 12 0
BBX 12 12 0 -2
BITMAP
0000
7fe0
0200
0400
0600
0d80
3440
c420
0400
0400
0400
0400
ENDCHAR
STARTCHAR U4E0E
ENCODING 19982
SWIDTH 960 0
DWIDTH 12 0
BBX 12 12 0 -2
BITMAP
1000
1000
1fc0
1000
1f00
2100
0100
ffe0
0100
0100
0100
0600
ENDCHAR
STARTCHAR U4E10
ENCODING 19984
SWIDTH 960 0
DWIDTH 12 0
BBX 12 12 0 -2
BITMAP
0000
ffe0
0400
27c0
2400
2400
3fe0
2020
0020
0020
0040
0180
ENDCHAR
STARTCHAR U4E11
ENCODING 19985
SWIDTH 960 0
DWIDTH 12 0
BBX 12 12 0 -2
BITMAP
0000
3f80
0480
0480
0480
7fe0
0480
0880
0880
0880
0880
7fe0
ENDCHAR
STARTCHAR U4E14
ENCODING 19988
SWIDTH 960 0
DWIDTH 12 0
BBX 12 12 0 -2
BITMAP
0000
1f80
1080
1080
1f80
1080
1080
1f80
1080
1080
1080
7fe0
ENDCHAR
STARTCHAR U4E15
ENCODING 19989
SWIDTH 960 0
DWIDTH 12 0
BBX 12 12 0 -2
BITMAP
0000
ffe0
0200
0600
0d80
3440
c420
0400
0400
0400
0000
ffe0
ENDCHAR
STARTCHAR U4E16
ENCODING 19990
SWIDTH 960 0
DWIDTH 12 0
BBX 12 12 0 -2
BITMAP
2480
2480
2480
2480
ffe0
2480
2480
2480
2780
2000
2000
3fc0
ENDCHAR
STARTCHAR U4E17
ENCODING 19991
SWIDTH 960 0
DWIDTH 12 0
BBX 12 12 0 -2
BITMAP
2480
2480
2480
2480
2480
ffe0
2480
2480
2480
2480
2480
3f80
ENDCHAR
STARTCHAR U4E18
ENCODING 19992
SWIDTH 960 0
DWIDTH 12 0
BBX 12 12 0 -2
BITMAP
0000
0180
3e00
2000
2000
3fc0
2100
2100
2100
2100
2100
ffe0
ENDCHAR
STARTCHAR U4E19
ENCODING 19993
SWIDTH 960 0
DWIDTH 12 0
BBX 12 12 0 -2
BITMAP
0000
fff0
0400
0400
7fe0
4620
4920
50a0
60a0
4020
4020
4060
ENDCHAR
STARTCHAR U4E1E
ENCODING 19998
SWIDTH 960 0
DWIDTH 12 0
BBX 12 12 0 -2
BITMAP
0000
3f00
0200
0440
f680
1700
1500
2480
c460
0c00
0000
ffe0
ENDCHAR
STARTCHAR U4E21
ENCODING 20001
SWIDTH 960 0
DWIDTH 12 0
BBX 12 12 0 -2
BITMAP
0000
ffe0
0400
0400
ffe0
8420
a4a0
a4a0
a4a0
bfa0
a020
8060
ENDCHAR
STARTCHAR U4E26
ENCODING 20006
SWIDTH 960 0
DWIDTH 12 0
BBX 12 12 0 -2
BITMAP
2080
1100
1200
ffe0
0a00
4a40
2a40
2a80
2b00
0a00
ffe0
0000
ENDCHAR
STARTCHAR U4E2A
ENCODING 20010
SWIDTH 960 0
DWIDTH 12 0
BBX 12 12 0 -2
BITMAP
0400
0400
0a00
1100
2480
4440
8420
0400
0400
0400
0400
0400
ENDCHAR
STARTCHAR U4E2D
ENCODING 20013
SWIDTH 960 0
DWIDTH 12 0
BBX 12 12 0 -2
BITMAP
0400
0400
7fc0
4440
4440
4440
7fc0
0400
0400
0400
0400
0400
ENDCHAR
STARTCHAR U4E31
ENCODING 20017
SWIDTH 960 0
DWIDTH 12 0
BBX 12 12 0 -2
BITMAP
0900
0900
4920
4920
4920
4920
4920
79e0
4920
0900
1100
2100
ENDCHAR
STARTCHAR U4E32
ENCODING 20018
SWIDTH 960 0
DWIDTH 12 0
BBX 12 12 0 -2
BITMAP
0400
0400
7fc0
4440
7fc0
0400
ffe0
8420
ffe0
0400
0400
0400
ENDCHAR
STARTCHAR U4E36
ENCODING 20022
SWIDTH 960 0
DWIDTH 12 0
BBX 12 12 0 -2
BITMAP
0000
0000
0000
1000
0800
0400
0400
0200
0200
0000
0000
0000
ENDCHAR
STARTCHAR U4E38
ENCODING 20024
SWIDTH 960 0
DWIDTH 12 0
BBX 12 12 0 -2
BITMAP
1000
1000
1000
ff00
1100
1100
5100
3100
1900
2520
4520
80e0
ENDCHAR
STARTCHAR U4E39
ENCODING 20025
SWIDTH 960 0
DWIDTH 12 0
BBX 12 12 0 -2
BITMAP
0000
3f80
2080
2880
2480
2480
ffe0
2080
2080
4080
4080
8180
ENDCHAR
STARTCHAR U4E3B
ENCODING 20027
SWIDTH 960 0
DWIDTH 12 0
BBX 12 12 0 -2
BITMAP
0800
0400
7fc0
0400
0400
0400
3f80
0400
0400
0400
0400
ffe0
ENDCHAR
STARTCHAR U4E3C
ENCODING 20028
SWIDTH 960 0
DWIDTH 12 0
BBX 12 12 0 -2
BITMAP
1100
1100
1100
ffc0
1100
1500
1300
ffe0
1100
1100
2100
4100
ENDCHAR
STARTCHAR U4E3F
ENCODING 20031
SWIDTH 960 0
DWIDTH 12 0
BBX 12 12 0 -2
BITMAP
0200
0200
0200
0200
0200
0200
0200
0200
0400
0400
0800
3000
ENDCHAR
STARTCHAR U4E42
ENCODING 20034
SWIDTH 960 0
DWIDTH 12 0
BBX 12 12 0 -2
BITMAP
0080
1080
1080
1080
2880
0900
0500
0200
0500
0880
3040
c030
ENDCHAR
STARTCHAR U4E43
ENCODING 20035
SWIDTH 960 0
DWIDTH 12 0
BBX 12 12 0 -2
BITMAP
0000
7f00
0900
0900
0bc0
0840
0840
0840
1040
1040
2040
4180
ENDCHAR
STARTCHAR U4E45
ENCODING 20037
SWIDTH 960 0
DWIDTH 12 0
BBX 12 12 0 -2
BITMAP
0800
0800
0f00
1100
1100
2200
4200
0400
0a00
1100
2080
c060
ENDCHAR
STARTCHAR U4E4B
ENCODING 20043
SWIDTH 960 0
DWIDTH 12 0
BBX 12 12 0 -2
BITMAP
0400
0400
3fc0
0040
0080
0100
0200
2400
2800
3000
4c00
83f0
ENDCHAR
STARTCHAR U4E4D
ENCODING 20045
SWIDTH 960 0
DWIDTH 12 0
BBX 12 12 0 -2
BITMAP
2000
2000
3fe0
2400
4400
47c0
8400
0400
07c0
0400
0400
0400
ENDCHAR
STARTCHAR U4E4E
ENCODING 20046
SWIDTH 960 0
DWIDTH 12 0
BBX 12 12 0 -2
BITMAP
0180
7e00
0480
2480
1500
1400
ffe0
0400
0400
0400
0400
0c00
ENDCHAR
STARTCHAR U4E4F
ENCODING 20047
SWIDTH 960 0
DWIDTH 12 0
BBX 12 12 0 -2
BITMAP
03c0
7c00
0400
0400
7fc0
0080
0100
4600
5800
6000
9800
87e0
ENDCHAR
STARTCHAR U4E55
ENCODING 20053
SWIDTH 960 0
DWIDTH 12 0
BBX 12 12 0 -2
BITMAP
01c0
7e00
4200
7fe0
4200
7fe0
4200
5fc0
5240
9240
9380
0200
ENDCHAR
STARTCHAR U4E56
ENCODING 20054
SWIDTH 960 0
DWIDTH 12 0
BBX 12 12 0 -2
BITMAP
0380
7c00
0400
ffe0
0400
1500
f560
1580
1520
3520
d4e0
0400
ENDCHAR
STARTCHAR U4E57
ENCODING 20055
SWIDTH 960 0
DWIDTH 12 0
BBX 12 12 0 -2
BITMAP
0380
3e00
0400
ffe0
2480
7fc0
2480
ffe0
0e00
3580
c460
0400
ENDCHAR
STARTCHAR U4E58
ENCODING 20056
SWIDTH 960 0
DWIDTH 12 0
BBX 12 12 0 -2
BITMAP
0380
3c00
0400
ffe0
1500
7560
1580
3520
d4e0
0e00
3580
c460
ENDCHAR
STARTCHAR U4E59
ENCODING 20057
SWIDTH 960 0
DWIDTH 12 0
BBX 12 12 0 -2
BITMAP
0000
3f80
0080
0100
0200
0400
0800
1000
2000
4020
4020
3fe0
ENDCHAR
STARTCHAR U4E5D
ENCODING 20061
SWIDTH 960 0
DWIDTH 12 0
BBX 12 12 0 -2
BITMAP
0800
0800
0800
7f00
0900
0900
0900
0900
1100
1120
2120
40e0
ENDCHAR
STARTCHAR U4E5E
ENCODING 20062
SWIDTH 960 0
DWIDTH 12 0
BBX 12 12 0 -2
BITMAP
1000
1000
3fe0
2000
5f80
8100
0200
0c00
1000
2020
2020
1fe0
ENDCHAR
STARTCHAR U4E5F
ENCODING 20063
SWIDTH 960 0
DWIDTH 12 0
BBX 12 12 0 -2
BITMAP
0400
2400
2400
2780
3c80
e480
2480
2480
2700
2020
2020
1fe0
ENDCHAR
STARTCHAR U4E62
ENCODING 20066
SWIDTH 960 0
DWIDTH 12 0
BBX 12 12 0 -2
BITMAP
2200
2200
2200
aa00
aa00
aa00
aa00
aa00
aa00
fa20
8220
01e0
ENDCHAR
STARTCHAR U4E71
ENCODING 20081
SWIDTH 960 0
DWIDTH 12 0
BBX 12 12 0 -2
BITMAP
0500
0900
7100
1100
1100
ff00
1100
1100
7d00
4520
4520
7ce0
ENDCHAR
STARTCHAR U4E73
ENCODING 20083
SWIDTH 960 0
DWIDTH 12 0
BBX 12 12 0 -2
BITMAP
0d00
f500
9500
5900
0100
7d00
0900
1100
fd00
1120
1120
30e0
ENDCHAR
STARTCHAR U4E7E
ENCODING 20094
SWIDTH 960 0
DWIDTH 12 0
BBX 12 12 0 -2
BITMAP
2200
fa00
23e0
fc00
8bc0
f840
8880
f900
2200
fc20
2420
23e0
ENDCHAR
STARTCHAR U4E80
ENCODING 20096
SWIDTH 960 0
DWIDTH 12 0
BBX 12 12 0 -2
BITMAP
0800
1f00
2200
ff80
2480
3f80
2480
7fc0
4440
7fc0
0420
03e0
ENDCHAR
STARTCHAR U4E82
ENCODING 20098
SWIDTH 960 0
DWIDTH 12 0
BBX 12 12 0 -2
BITMAP
0e80
f480
5480
9280
7c80
2880
fe80
aa80
fa80
aa90
9290
ae70
ENDCHAR
STARTCHAR U4E85
ENCODING 20101
SWIDTH 960 0
DWIDTH 12 0
BBX 12 12 0 -2
BITMAP
0400
0400
0400
0400
0400
0400
0400
0400
0400
0400
0400
0c00
ENDCHAR
STARTCHAR U4E86
ENCODING 20102
SWIDTH 960 0
DWIDTH 12 0
BBX 12 12 0 -2
BITMAP
0000
7fc0
0080
0100
0600
0400
0400
0400
0400
0400
0400
0c00
ENDCHAR
STARTCHAR U4E88
ENCODING 20104
SWIDTH 960 0
DWIDTH 12 0
BBX 12 12 0 -2
BITMAP
0000
3f80
0100
1a00
0400
ffe0
0440
0480
0400
0400
0400
0c00
ENDCHAR
STARTCHAR U4E89
ENCODING 20105
SWIDTH 960 0
DWIDTH 12 0
BBX 12 12 0 -2
BITMAP
0800
0f00
3100
0200
3f80
0480
ffe0
0480
3f80
0400
0400
0c00
ENDCHAR
STARTCHAR U4E8A
ENCODING 20106
SWIDTH 960 0
DWIDTH 12 0
BBX 12 12 0 -2
BITMAP
0400
ffe0
2480
1500
7fc0
0440
ffe0
0440
7fc0
0400
0400
0c00
ENDCHAR
STARTCHAR U4E8B
ENCODING 20107
SWIDTH 960 0
DWIDTH 12 0
BBX 12 12 0 -2
BITMAP
0400
ffe0
2480
3f80
0400
7f80
0480
ffe0
0480
7f80
0400
0c00
ENDCHAR
STARTCHAR U4E8C
ENCODING 20108
SWIDTH 960 0
DWIDTH 12 0
BBX 12 12 0 -2
BITMAP
0000
0000
7fc0
0000
0000
0000
0000
0000
0000
ffe0
0000
0000
ENDCHAR
STARTCHAR U4E8E
ENCODING 20110
SWIDTH 960 0
DWIDTH 12 0
BBX 12 12 0 -2
BITMAP
0000
7fc0
0400
0400
0400
ffe0
0400
0400
0400
0400
0400
0c00
ENDCHAR
STARTCHAR U4E91
ENCODING 20113
SWIDTH 960 0
DWIDTH 12 0
BBX 12 12 0 -2
BITMAP
0000
3f80
0000
0000
ffe0
0400
0400
0900
0880
1380
7c40
0040
ENDCHAR
STARTCHAR U4E92
ENCODING 20114
SWIDTH 960 0
DWIDTH 12 0
BBX 12 12 0 -2
BITMAP
0000
7fc0
1000
1000
1f00
1100
2100
2100
7e00
0200
0200
ffe0
ENDCHAR
STARTCHAR U4E94
ENCODING 20116
SWIDTH 960 0
DWIDTH 12 0
BBX 12 12 0 -2
BITMAP
0000
3fc0
0400
0400
0400
3f80
0480
0480
0880
0880
0880
7fe0
ENDCHAR
STARTCHAR U4E95
ENCODING 20117
SWIDTH 960 0
DWIDTH 12 0
BBX 12 12 0 -2
BITMAP
0880
0880
0880
7fe0
0880
0880
0880
7fe0
0880
0880
1080
2080
ENDCHAR
STARTCHAR U4E98
ENCODING 20120
SWIDTH 960 0
DWIDTH 12 0
BBX 12 12 0 -2
BITMAP
0000
7fc0
0000
3f80
2080
2080
3f80
2080
2080
3f80
0000
ffe0
ENDCHAR
STARTCHAR U4E99
ENCODING 20121
SWIDTH 960 0
DWIDTH 12 0
BBX 12 12 0 -2
BITMAP
0000
ffe0
1000
1000
1f00
1900
2500
3100
4a00
4a00
0200
ffe0
ENDCHAR
STARTCHAR U4E9B
ENCODING 20123
SWIDTH 960 0
DWIDTH 12 0
BBX 12 12 0 -2
BITMAP
1200
5200
5a40
5380
5220
5e20
f1e0
0000
3f80
0000
0000
ffe0
ENDCHAR
STARTCHAR U4E9C
ENCODING 20124
SWIDTH 960 0
DWIDTH 12 0
BBX 12 12 0 -2
BITMAP
0000
7fe0
0900
0900
3fc0
2940
2940
2940
3fc0
0900
0900
7fe0
ENDCHAR
STARTCHAR U4E9E
ENCODING 20126
SWIDTH 960 0
DWIDTH 12 0
BBX 12 12 0 -2
BITMAP
0000
ffe0
0900
0900
79e0
4020
4020
79e0
0900
0900
0900
ffe0
ENDCHAR
STARTCHAR U4E9F
ENCODING 20127
SWIDTH 960 0
DWIDTH 12 0
BBX 12 12 0 -2
BITMAP
0000
7fc0
0400
0800
1fe0
f320
92a0
92c0
9340
f220
0c00
ffe0
ENDCHAR
STARTCHAR U4EA0
ENCODING 20128
SWIDTH 960 0
DWIDTH 12 0
BBX 12 12 0 -2
BITMAP
0000
0000
0000
0400
0400
0400
ffe0
0000
0000
0000
0000
0000
ENDCHAR
STARTCHAR U4EA1
ENCODING 20129
SWIDTH 960 0
DWIDTH 12 0
BBX 12 12 0 -2
BITMAP
0400
0400
0400
ffe0
2000
2000
2000
2000
2000
2000
1fc0
0000
ENDCHAR
STARTCHAR U4EA2
ENCODING 20130
SWIDTH 960 0
DWIDTH 12 0
BBX 12 12 0 -2
BITMAP
0400
0400
ffe0
0000
1e00
1200
1200
1200
1200
2220
2220
41e0
ENDCHAR
STARTCHAR U4EA4
ENCODING 20132
SWIDTH 960 0
DWIDTH 12 0
BBX 12 12 0 -2
BITMAP
0400
0400
ffe0
1100
1080
2140
5100
0a00
0400
0a00
3180
c060
ENDCHAR
STARTCHAR U4EA5
ENCODING 20133
SWIDTH 960 0
DWIDTH 12 0
BBX 12 12 0 -2
BITMAP
0400
ffe0
0800
0a00
7200
1400
0c80
1900
6200
0d00
3080
c040
ENDCHAR
STARTCHAR U4EA6
ENCODING 20134
SWIDTH 960 0
DWIDTH 12 0
BBX 12 12 0 -2
BITMAP
0400
0400
7fe0
0900
0900
2940
2920
4920
8920
1100
1100
2300
ENDCHAR
STARTCHAR U4EA8
ENCODING 20136
SWIDTH 960 0
DWIDTH 12 0
BBX 12 12 0 -2
BITMAP
0400
ffe0
3f80
2080
3f80
0000
7fc0
0100
0600
0400
0400
0c00
ENDCHAR
STARTCHAR U4EAB
ENCODING 20139
SWIDTH 960 0
DWIDTH 12 0
BBX 12 12 0 -2
BITMAP
0400
ffe0
3f80
2080
3f80
0000
3f80
0200
ffe0
0400
0400
0c00
ENDCHAR
STARTCHAR U4EAC
ENCODING 20140
SWIDTH 960 0
DWIDTH 12 0
BBX 12 12 0 -2
BITMAP
0400
ffe0
0000
3f80
2080
2080
3f80
0400
2480
2440
4440
0c00
ENDCHAR
STARTCHAR U4EAD
ENCODING 20141
SWIDTH 960 0
DWIDTH 12 0
BBX 12 12 0 -2
BITMAP
0400
ffe0
0000
3f80
2080
ffe0
8020
7fc0
0400
0400
0400
0c00
ENDCHAR
STARTCHAR U4EAE
ENCODING 20142
SWIDTH 960 0
DWIDTH 12 0
BBX 12 12 0 -2
BITMAP
0400
ffe0
0000
3f80
2080
3f80
0000
ffe0
8a20
0a00
1220
61e0
ENDCHAR
STARTCHAR U4EB0
ENCODING 20144
SWIDTH 960 0
DWIDTH 12 0
BBX 12 12 0 -2
BITMAP
0400
ffe0
0000
3f80
2080
3f80
2080
3f80
0500
2480
4440
0c00
ENDCHAR
STARTCHAR U4EB3
ENCODING 20147
SWIDTH 960 0
DWIDTH 12 0
BBX 12 12 0 -2
BITMAP
0400
ffe0
0000
3f80
2080
ffe0
8320
3c00
07c0
7c00
0420
03e0
ENDCHAR
STARTCHAR U4EB6
ENCODING 20150
SWIDTH 960 0
DWIDTH 12 0
BBX 12 12 0 -2
BITMAP
0400
ffe0
2e80
2a80
2e80
3f80
0000
1f00
1100
1f00
1100
ffe0
ENDCHAR
STARTCHAR U4EBA
ENCODING 20154
SWIDTH 960 0
DWIDTH 12 0
BBX 12 12 0 -2
BITMAP
0400
0400
0400
0400
0400
0400
0a00
0a00
1100
2080
4040
8020
ENDCHAR
STARTCHAR U4EC0
ENCODING 20160
SWIDTH 960 0
DWIDTH 12 0
BBX 12 12 0 -2
BITMAP
1100
1100
1100
2100
3fe0
6100
a100
2100
2100
2100
2100
2100
ENDCHAR
STARTCHAR U4EC1
ENCODING 20161
SWIDTH 960 0
DWIDTH 12 0
BBX 12 12 0 -2
BITMAP
1000
1000
27c0
2000
6000
a000
2000
2000
2000
2000
2fe0
2000
ENDCHAR
STARTCHAR U4EC2
ENCODING 20162
SWIDTH 960 0
DWIDTH 12 0
BBX 12 12 0 -2
BITMAP
1200
1200
1200
2fe0
2220
6220
a220
2220
2220
2420
2420
28c0
ENDCHAR
STARTCHAR U4EC4
ENCODING 20164
SWIDTH 960 0
DWIDTH 12 0
BBX 12 12 0 -2
BITMAP
0000
3fe0
2200
2200
2200
2200
2200
2500
4500
4880
9040
2020
ENDCHAR
STARTCHAR U4EC6
ENCODING 20166
SWIDTH 960 0
DWIDTH 12 0
BBX 12 12 0 -2
BITMAP
1100
1100
1100
2100
2180
6140
a120
2120
2100
2100
2100
2100
ENDCHAR
STARTCHAR U4EC7
ENCODING 20167
SWIDTH 960 0
DWIDTH 12 0
BBX 12 12 0 -2
BITMAP
2400
2400
2400
5f80
4480
c480
4480
4480
4880
48a0
50a0
6060
ENDCHAR
STARTCHAR U4ECA
ENCODING 20170
SWIDTH 960 0
DWIDTH 12 0
BBX 12 12 0 -2
BITMAP
0400
0400
0a00
1100
3f80
c060
0000
3f80
0100
0200
0200
0400
ENDCHAR
STARTCHAR U4ECB
ENCODING 20171
SWIDTH 960 0
DWIDTH 12 0
BBX 12 12 0 -2
BITMAP
0400
0400
0a00
1100
2080
d160
1100
1100
1100
2100
2100
4100
ENDCHAR
STARTCHAR U4ECD
ENCODING 20173
SWIDTH 960 0
DWIDTH 12 0
BBX 12 12 0 -2
BITMAP
1000
1f80
1480
2480
2480
64e0
a4a0
2420
2420
2820
2820
30c0
ENDCHAR
STARTCHAR U4ECE
ENCODING 20174
SWIDTH 960 0
DWIDTH 12 0
BBX 12 12 0 -2
BITMAP
1080
1080
1080
1080
1080
1080
1080
2940
2940
4620
4220
8410
ENDCHAR
STARTCHAR U4ECF
ENCODING 20175
SWIDTH 960 0
DWIDTH 12 0
BBX 12 12 0 -2
BITMAP
1200
1200
1200
2200
2200
6200
a480
2440
2440
29e0
3e20
2020
ENDCHAR
STARTCHAR U4ED4
ENCODING 20180
SWIDTH 960 0
DWIDTH 12 0
BBX 12 12 0 -2
BITMAP
1000
1fc0
1040
2080
2100
6100
bfe0
2100
2100
2100
2100
2300
ENDCHAR
STARTCHAR U4ED5
ENCODING 20181
SWIDTH 960 0
DWIDTH 12 0
BBX 12 12 0 -2
BITMAP
1100
1100
1100
2100
3ff0
6100
a100
2100
2100
2100
2fc0
2000
ENDCHAR
STARTCHAR U4ED6
ENCODING 20182
SWIDTH 960 0
DWIDTH 12 0
BBX 12 12 0 -2
BITMAP
1100
1500
2500
25c0
6740
bd40
2540
2540
2580
2420
2420
23e0
ENDCHAR
STARTCHAR U4ED7
ENCODING 20183
SWIDTH 960 0
DWIDTH 12 0
BBX 12 12 0 -2
BITMAP
2100
2100
2100
5fe0
4100
c900
4900
5500
4200
4500
4880
5060
ENDCHAR
STARTCHAR U4ED8
ENCODING 20184
SWIDTH 960 0
DWIDTH 12 0
BBX 12 12 0 -2
BITMAP
1080
1080
1080
2fe0
2080
6880
a480
2480
2080
2080
2080
2180
ENDCHAR
STARTCHAR U4ED9
ENCODING 20185
SWIDTH 960 0
DWIDTH 12 0
BBX 12 12 0 -2
BITMAP
1100
1100
1100
2920
2920
6920
a920
2920
2920
2920
2fe0
2820
ENDCHAR
STARTCHAR U4EDD
ENCODING 20189
SWIDTH 960 0
DWIDTH 12 0
BBX 12 12 0 -2
BITMAP
0400
0400
0a00
1100
2080
c060
3f80
0400
0400
0400
0400
ffe0
ENDCHAR
STARTCHAR U4EDE
ENCODING 20190
SWIDTH 960 0
DWIDTH 12 0
BBX 12 12 0 -2
BITMAP
1000
1fe0
1220
2220
2220
6a20
aa20
3220
2220
2420
2420
28c0
ENDCHAR
STARTCHAR U4EDF
ENCODING 20191
SWIDTH 960 0
DWIDTH 12 0
BBX 12 12 0 -2
BITMAP
10c0
1f00
1100
2100
2100
7fe0
a100
2100
2100
2100
2100
2100
ENDCHAR
STARTCHAR U4EE3
ENCODING 20195
SWIDTH 960 0
DWIDTH 12 0
BBX 12 12 0 -2
BITMAP
1280
1240
1200
23e0
3e00
6100
a100
2100
2080
20a0
2060
2020
ENDCHAR
STARTCHAR U4EE4
ENCODING 20196
SWIDTH 960 0
DWIDTH 12 0
BBX 12 12 0 -2
BITMAP
0400
0400
0a00
1100
3f80
c060
3fc0
0440
0440
0580
0400
0400
ENDCHAR
STARTCHAR U4EE5
ENCODING 20197
SWIDTH 960 0
DWIDTH 12 0
BBX 12 12 0 -2
BITMAP
2040
2040
2840
2440
2440
2240
2040
2840
30c0
40a0
8310
0c00
ENDCHAR
STARTCHAR U4EED
ENCODING 20205
SWIDTH 960 0
DWIDTH 12 0
BBX 12 12 0 -2
BITMAP
1000
1fe0
1220
2220
2a20
6620
a320
22e0
2230
2420
2420
28c0
ENDCHAR
STARTCHAR U4EEE
ENCODING 20206
SWIDTH 960 0
DWIDTH 12 0
BBX 12 12 0 -2
BITMAP
1000
17e0
1400
2400
27c0
6640
a540
2580
2880
2980
3240
2c20
ENDCHAR
STARTCHAR U4EF0
ENCODING 20208
SWIDTH 960 0
DWIDTH 12 0
BBX 12 12 0 -2
BITMAP
2300
2c00
29e0
4920
4920
c920
4920
4920
4b20
5dc0
4100
4100
ENDCHAR
STARTCHAR U4EF2
ENCODING 20210
SWIDTH 960 0
DWIDTH 12 0
BBX 12 12 0 -2
BITMAP
1100
1100
1fe0
2920
2920
6920
afe0
2100
2100
2100
2100
2100
ENDCHAR
STARTCHAR U4EF6
ENCODING 20214
SWIDTH 960 0
DWIDTH 12 0
BBX 12 12 0 -2
BITMAP
1100
1500
1500
2fc0
2900
7100
bfe0
2100
2100
2100
2100
2100
ENDCHAR
STARTCHAR U4EF7
ENCODING 20215
SWIDTH 960 0
DWIDTH 12 0
BBX 12 12 0 -2
BITMAP
1200
1200
1500
2880
3040
64a0
a490
2480
2480
2880
2880
3080
ENDCHAR
STARTCHAR U4EFB
ENCODING 20219
SWIDTH 960 0
DWIDTH 12 0
BBX 12 12 0 -2
BITMAP
10c0
1f00
1100
2100
2100
7ff0
a100
2100
2100
2100
2fe0
2000
ENDCHAR
STARTCHAR U4F01
ENCODING 20225
SWIDTH 960 0
DWIDTH 12 0
BBX 12 12 0 -2
BITMAP
0400
0400
0a00
1100
2480
c460
0400
2780
2400
2400
2400
ffe0
ENDCHAR
STARTCHAR U4F09
ENCODING 20233
SWIDTH 960 0
DWIDTH 12 0
BBX 12 12 0 -2
BITMAP
2200
2200
3fe0
4000
4f00
c900
4900
4900
4900
5120
5120
60e0
ENDCHAR
STARTCHAR U4F0A
ENCODING 20234
SWIDTH 960 0
DWIDTH 12 0
BBX 12 12 0 -2
BITMAP
1000
1fc0
1240
2240
7fe0
a240
2240
2fc0
2200
2200
2400
2800
ENDCHAR
STARTCHAR U4F0D
ENCODING 20237
SWIDTH 960 0
DWIDTH 12 0
BBX 12 12 0 -2
BITMAP
1000
1fe0
1200
2200
2200
6f80
a280
2480
2480
2480
2480
3fe0
ENDCHAR
STARTCHAR U4F0E
ENCODING 20238
SWIDTH 960 0
DWIDTH 12 0
BBX 12 12 0 -2
BITMAP
1100
1100
1fe0
2100
2100
6fe0
a040
2440
2280
2100
2680
3860
ENDCHAR
STARTCHAR U4F0F
ENCODING 20239
SWIDTH 960 0
DWIDTH 12 0
BBX 12 12 0 -2
BITMAP
1200
1280
1240
2200
3fe0
6200
a200
2500
2500
2880
3040
2020
ENDCHAR
STARTCHAR U4F10
ENCODING 20240
SWIDTH 960 0
DWIDTH 12 0
BBX 12 12 0 -2
BITMAP
1280
1240
1200
23c0
3e00
6280
a280
2100
2300
24a0
3860
2020
ENDCHAR
STARTCHAR U4F11
ENCODING 20241
SWIDTH 960 0
DWIDTH 12 0
BBX 12 12 0 -2
BITMAP
1100
1100
1100
3fe0
2100
6380
a380
2540
2920
3110
2100
2100
ENDCHAR
STARTCHAR U4F1A
ENCODING 20250
SWIDTH 960 0
DWIDTH 12 0
BBX 12 12 0 -2
BITMAP
0400
0400
0a00
1100
3f80
c060
0000
7fc0
0a00
1300
7c80
0080
ENDCHAR
STARTCHAR U4F1C
ENCODING 20252
SWIDTH 960 0
DWIDTH 12 0
BBX 12 12 0 -2
BITMAP
2200
2200
2f80
4280
44a0
ca60
5200
5fe0
4200
4200
4200
4200
ENDCHAR
STARTCHAR U4F1D
ENCODING 20253
SWIDTH 960 0
DWIDTH 12 0
BBX 12 12 0 -2
BITMAP
1000
17c0
1000
2000
2fe0
6200
a200
2280
2440
25c0
2e20
2020
ENDCHAR
STARTCHAR U4F2F
ENCODING 20271
SWIDTH 960 0
DWIDTH 12 0
BBX 12 12 0 -2
BITMAP
1100
1100
2200
27e0
6420
a420
27e0
2420
2420
2420
2420
27e0
ENDCHAR
STARTCHAR U4F30
ENCODING 20272
SWIDTH 960 0
DWIDTH 12 0
BBX 12 12 0 -2
BITMAP
1100
1100
1fe0
2100
2100
6100
a7c0
2440
2440
2440
2440
27c0
ENDCHAR
STARTCHAR U4F34
ENCODING 20276
SWIDTH 960 0
DWIDTH 12 0
BBX 12 12 0 -2
BITMAP
2200
3240
2a40
4a80
5fc0
c200
4200
5fe0
4200
4200
4200
4200
ENDCHAR
STARTCHAR U4F36
ENCODING 20278
SWIDTH 960 0
DWIDTH 12 0
BBX 12 12 0 -2
BITMAP
1200
1200
2500
2480
6fc0
b020
2fc0
2240
2240
2380
2200
2200
ENDCHAR
STARTCHAR U4F38
ENCODING 20280
SWIDTH 960 0
DWIDTH 12 0
BBX 12 12 0 -2
BITMAP
1100
1100
1fe0
2920
2fe0
6920
a920
2fe0
2100
2100
2100
2100
ENDCHAR
STARTCHAR U4F3A
ENCODING 20282
SWIDTH 960 0
DWIDTH 12 0
BBX 12 12 0 -2
BITMAP
1000
1fe0
1020
2fa0
2020
6f20
a920
2920
2f20
2020
2020
2060
ENDCHAR
STARTCHAR U4F3C
ENCODING 20284
SWIDTH 960 0
DWIDTH 12 0
BBX 12 12 0 -2
BITMAP
2040
2840
2840
4a40
4940
c840
4840
4840
4ac0
4ca0
7110
4200
ENDCHAR
STARTCHAR U4F3D
ENCODING 20285
SWIDTH 960 0
DWIDTH 12 0
BBX 12 12 0 -2
BITMAP
2800
2800
28e0
5ea0
4aa0
caa0
4aa0
4aa0
52a0
52a0
62e0
4c00
ENDCHAR
STARTCHAR U4F43
ENCODING 20291
SWIDTH 960 0
DWIDTH 12 0
BBX 12 12 0 -2
BITMAP
1000
17e0
2520
2520
6520
a7e0
2520
2520
2520
2520
27e0
2000
ENDCHAR
STARTCHAR U4F46
ENCODING 20294
SWIDTH 960 0
DWIDTH 12 0
BBX 12 12 0 -2
BITMAP
1000
17c0
1440
2440
27c0
6440
a440
2440
27c0
2000
2000
2ff0
ENDCHAR
STARTCHAR U4F47
ENCODING 20295
SWIDTH 960 0
DWIDTH 12 0
BBX 12 12 0 -2
BITMAP
1100
1fe0
1820
2000
3fe0
6100
a100
2100
2100
2100
2100
2300
ENDCHAR
STARTCHAR U4F4D
ENCODING 20301
SWIDTH 960 0
DWIDTH 12 0
BBX 12 12 0 -2
BITMAP
1100
1100
1100
2fe0
2040
6840
a440
2440
2480
2480
2100
3fe0
ENDCHAR
STARTCHAR U4F4E
ENCODING 20302
SWIDTH 960 0
DWIDTH 12 0
BBX 12 12 0 -2
BITMAP
10c0
1f00
1900
2900
2fe0
6900
a900
2880
2e80
30a0
2060
2fa0
ENDCHAR
STARTCHAR U4F4F
ENCODING 20303
SWIDTH 960 0
DWIDTH 12 0
BBX 12 12 0 -2
BITMAP
1200
1100
1fe0
2100
2100
6100
a7c0
2100
2100
2100
2100
2fe0
ENDCHAR
STARTCHAR U4F50
ENCODING 20304
SWIDTH 960 0
DWIDTH 12 0
BBX 12 12 0 -2
BITMAP
2200
2200
2200
5fe0
4200
c400
47e0
4900
5100
4100
4fe0
4000
ENDCHAR
STARTCHAR U4F51
ENCODING 20305
SWIDTH 960 0
DWIDTH 12 0
BBX 12 12 0 -2
BITMAP
2200
2200
2200
7fe0
4200
c400
4400
4fc0
5440
6440
4440
47c0
ENDCHAR
STARTCHAR U4F53
ENCODING 20307
SWIDTH 960 0
DWIDTH 12 0
BBX 12 12 0 -2
BITMAP
1100
1100
1100
3fe0
2100
6380
a380
2540
2920
37d0
2100
2100
ENDCHAR
STARTCHAR U4F55
ENCODING 20309
SWIDTH 960 0
DWIDTH 12 0
BBX 12 12 0 -2
BITMAP
1000
1ff0
1040
2040
2f40
6940
a940
2940
2f40
2040
2040
20c0
ENDCHAR
STARTCHAR U4F57
ENCODING 20311
SWIDTH 960 0
DWIDTH 12 0
BBX 12 12 0 -2
BITMAP
1200
1fe0
1820
2820
2400
64c0
a700
2400
2400
2420
2420
23e0
ENDCHAR
STARTCHAR U4F59
ENCODING 20313
SWIDTH 960 0
DWIDTH 12 0
BBX 12 12 0 -2
BITMAP
0400
0400
0a00
3180
df60
0400
7fc0
0400
2480
2440
4440
0c00
ENDCHAR
STARTCHAR U4F5A
ENCODING 20314
SWIDTH 960 0
DWIDTH 12 0
BBX 12 12 0 -2
BITMAP
2200
2a00
2a00
4fc0
5200
c200
5fe0
4200
4500
4500
4880
5040
ENDCHAR
STARTCHAR U4F5B
ENCODING 20315
SWIDTH 960 0
DWIDTH 12 0
BBX 12 12 0 -2
BITMAP
2500
2500
2fc0
4540
5fc0
d500
5fe0
4520
4520
4940
4900
5100
ENDCHAR
STARTCHAR U4F5C
ENCODING 20316
SWIDTH 960 0
DWIDTH 12 0
BBX 12 12 0 -2
BITMAP
1200
1200
13e0
2500
2500
69e0
a100
2100
21e0
2100
2100
2100
ENDCHAR
STARTCHAR U4F5D
ENCODING 20317
SWIDTH 960 0
DWIDTH 12 0
BBX 12 12 0 -2
BITMAP
1200
1200
17e0
2420
2820
7f20
a920
2920
2f20
2020
2020
20c0
ENDCHAR
STARTCHAR U4F5E
ENCODING 20318
SWIDTH 960 0
DWIDTH 12 0
BBX 12 12 0 -2
BITMAP
2fc0
2000
2fe0
4200
4200
dfe0
4480
4480
4f00
4180
4240
5c20
ENDCHAR
STARTCHAR U4F69
ENCODING 20329
SWIDTH 960 0
DWIDTH 12 0
BBX 12 12 0 -2
BITMAP
2000
3fc0
3040
5fc0
5240
d240
5fc0
5ac0
5ac0
6b50
6230
4210
ENDCHAR
STARTCHAR U4F6F
ENCODING 20335
SWIDTH 960 0
DWIDTH 12 0
BBX 12 12 0 -2
BITMAP
1440
1280
1fe0
2100
2100
6fc0
a100
2100
3fe0
2100
2100
2100
ENDCHAR
STARTCHAR U4F70
ENCODING 20336
SWIDTH 960 0
DWIDTH 12 0
BBX 12 12 0 -2
BITMAP
1000
1fe0
1100
2200
2fc0
6840
a840
2fc0
2840
2840
2840
2fc0
ENDCHAR
STARTCHAR U4F73
ENCODING 20339
SWIDTH 960 0
DWIDTH 12 0
BBX 12 12 0 -2
BITMAP
2200
2200
3fc0
4200
4200
dfe0
4200
4200
5fc0
4200
4200
7fe0
ENDCHAR
STARTCHAR U4F75
ENCODING 20341
SWIDTH 960 0
DWIDTH 12 0
BBX 12 12 0 -2
BITMAP
1840
1440
2480
2fe0
6480
a480
3ff0
2480
2480
2880
2880
3080
ENDCHAR
STARTCHAR U4F76
ENCODING 20342
SWIDTH 960 0
DWIDTH 12 0
BBX 12 12 0 -2
BITMAP
1100
1100
1fe0
2100
2100
6fc0
a000
2fc0
2840
2840
2840
2fc0
ENDCHAR
STARTCHAR U4F7B
ENCODING 20347
SWIDTH 960 0
DWIDTH 12 0
BBX 12 12 0 -2
BITMAP
2500
2500
2540
5540
4d80
c500
4d80
5540
4500
4920
4920
50e0
ENDCHAR
STARTCHAR U4F7C
ENCODING 20348
SWIDTH 960 0
DWIDTH 12 0
BBX 12 12 0 -2
BITMAP
1100
1100
1fe0
2280
2440
6ca0
a480
2280
2100
2280
2440
3820
ENDCHAR
STARTCHAR U4F7F
ENCODING 20351
SWIDTH 960 0
DWIDTH 12 0
BBX 12 12 0 -2
BITMAP
1100
1fe0
1100
2fe0
2920
6920
afe0
2900
2500
2300
2480
3860
ENDCHAR
STARTCHAR U4F83
ENCODING 20355
SWIDTH 960 0
DWIDTH 12 0
BBX 12 12 0 -2
BITMAP
1000
1fc0
1840
2840
2840
6fc0
a000
2a80
2a80
2aa0
32a0
2060
ENDCHAR
STARTCHAR U4F86
ENCODING 20358
SWIDTH 960 0
DWIDTH 12 0
BBX 12 12 0 -2
BITMAP
0400
0400
ffe0
2480
2480
3580
4e40
8420
0e00
3580
c460
0400
ENDCHAR
STARTCHAR U4F88
ENCODING 20360
SWIDTH 960 0
DWIDTH 12 0
BBX 12 12 0 -2
BITMAP
1200
13c0
1440
3a80
2100
6680
b9e0
2220
2d40
2080
2300
2c00
ENDCHAR
STARTCHAR U4F8B
ENCODING 20363
SWIDTH 960 0
DWIDTH 12 0
BBX 12 12 0 -2
BITMAP
2020
3fa0
28a0
48a0
5ea0
d2a0
5aa0
64a0
44a0
4820
5020
6060
ENDCHAR
STARTCHAR U4F8D
ENCODING 20365
SWIDTH 960 0
DWIDTH 12 0
BBX 12 12 0 -2
BITMAP
1200
1fc0
1200
2200
3fe0
6080
bfe0
2880
2480
2080
2080
2180
ENDCHAR
STARTCHAR U4F8F
ENCODING 20367
SWIDTH 960 0
DWIDTH 12 0
BBX 12 12 0 -2
BITMAP
2100
2900
2fe0
4900
5100
dff0
4100
4380
4540
5930
4100
4100
ENDCHAR
STARTCHAR U4F91
ENCODING 20369
SWIDTH 960 0
DWIDTH 12 0
BBX 12 12 0 -2
BITMAP
1200
1200
1fe0
2200
27c0
6440
afc0
3440
27c0
2440
2440
24c0
ENDCHAR
STARTCHAR U4F96
ENCODING 20374
SWIDTH 960 0
DWIDTH 12 0
BBX 12 12 0 -2
BITMAP
0400
0a00
3180
df60
0000
7fc0
4a40
4a40
7fc0
4a40
4a40
4ac0
ENDCHAR
STARTCHAR U4F98
ENCODING 20376
SWIDTH 960 0
DWIDTH 12 0
BBX 12 12 0 -2
BITMAP
2200
3fe0
3020
50a0
4300
ce00
4200
43e0
5e00
4200
4220
41e0
ENDCHAR
STARTCHAR U4F9B
ENCODING 20379
SWIDTH 960 0
DWIDTH 12 0
BBX 12 12 0 -2
BITMAP
1240
1240
1240
2fe0
2240
6240
a240
3ff0
2000
2240
2420
2820
ENDCHAR
STARTCHAR U4F9D
ENCODING 20381
SWIDTH 960 0
DWIDTH 12 0
BBX 12 12 0 -2
BITMAP
1100
1100
1fe0
2100
2220
6540
ad80
3500
2480
2480
2740
2c20
ENDCHAR
STARTCHAR U4FA0
ENCODING 20384
SWIDTH 960 0
DWIDTH 12 0
BBX 12 12 0 -2
BITMAP
2200
2200
3fc0
5240
4a80
ca00
7fe0
4200
4300
4480
4840
7020
ENDCHAR
STARTCHAR U4FA1
ENCODING 20385
SWIDTH 960 0
DWIDTH 12 0
BBX 12 12 0 -2
BITMAP
1000
1fe0
1280
2280
2fe0
6aa0
aaa0
2aa0
2aa0
2aa0
2fe0
2800
ENDCHAR
STARTCHAR U4FAB
ENCODING 20395
SWIDTH 960 0
DWIDTH 12 0
BBX 12 12 0 -2
BITMAP
2100
2100
2fe0
4800
4800
c7c0
4400
5fe0
4480
4e80
4380
4c40
ENDCHAR
STARTCHAR U4FAD
ENCODING 20397
SWIDTH 960 0
DWIDTH 12 0
BBX 12 12 0 -2
BITMAP
2000
2fe0
2820
4fe0
4880
c880
4b40
48c0
5020
5610
6100
4080
ENDCHAR
STARTCHAR U4FAE
ENCODING 20398
SWIDTH 960 0
DWIDTH 12 0
BBX 12 12 0 -2
BITMAP
2800
2fe0
2800
57c0
5540
c540
5fe0
4940
4940
5fe0
5040
4180
ENDCHAR
STARTCHAR U4FAF
ENCODING 20399
SWIDTH 960 0
DWIDTH 12 0
BBX 12 12 0 -2
BITMAP
1000
17c0
1040
2fe0
2400
67e0
a900
3100
2fe0
2280
2440
3820
ENDCHAR
STARTCHAR U4FB5
ENCODING 20405
SWIDTH 960 0
DWIDTH 12 0
BBX 12 12 0 -2
BITMAP
17c0
1040
17c0
2040
3ff0
7010
b7d0
2040
2680
2100
2280
2c60
ENDCHAR
STARTCHAR U4FB6
ENCODING 20406
SWIDTH 960 0
DWIDTH 12 0
BBX 12 12 0 -2
BITMAP
1000
17c0
1440
2440
27c0
6200
a400
2fe0
2820
2820
2820
2fe0
ENDCHAR
STARTCHAR U4FBF
ENCODING 20415
SWIDTH 960 0
DWIDTH 12 0
BBX 12 12 0 -2
BITMAP
1000
1fe0
1100
2fe0
2920
6fe0
a920
2fe0
2500
2300
2480
3860
ENDCHAR
STARTCHAR U4FC2
ENCODING 20418
SWIDTH 960 0
DWIDTH 12 0
BBX 12 12 0 -2
BITMAP
10c0
1f00
1240
2c80
2300
6240
afa0
2100
2540
2520
2920
2100
ENDCHAR
STARTCHAR U4FC3
ENCODING 20419
SWIDTH 960 0
DWIDTH 12 0
BBX 12 12 0 -2
BITMAP
2000
2fc0
2840
4840
4fc0
c100
4900
49e0
4900
4d00
5300
60e0
ENDCHAR
STARTCHAR U4FC4
ENCODING 20420
SWIDTH 960 0
DWIDTH 12 0
BBX 12 12 0 -2
BITMAP
2500
3940
2920
2900
7fe0
4900
cd40
4940
5880
69a0
4a60
5820
ENDCHAR
STARTCHAR U4FCA
ENCODING 20426
SWIDTH 960 0
DWIDTH 12 0
BBX 12 12 0 -2
BITMAP
1100
1240
1fa0
2280
22a0
64e0
aa00
23c0
2640
2980
26c0
3820
ENDCHAR
STARTCHAR U4FCE
ENCODING 20430
SWIDTH 960 0
DWIDTH 12 0
BBX 12 12 0 -2
BITMAP
27c0
2440
2440
5440
4fc0
a440
2440
27c0
5440
4c40
8440
1fe0
ENDCHAR
STARTCHAR U4FD0
ENCODING 20432
SWIDTH 960 0
DWIDTH 12 0
BBX 12 12 0 -2
BITMAP
2320
3ca0
24a0
44a0
7fa0
cca0
4ea0
55a0
64a0
4420
4420
4460
ENDCHAR
STARTCHAR U4FD1
ENCODING 20433
SWIDTH 960 0
DWIDTH 12 0
BBX 12 12 0 -2
BITMAP
1000
1fc0
1280
2100
2fe0
6920
afe0
2920
2fe0
2920
2920
2960
ENDCHAR
STARTCHAR U4FD4
ENCODING 20436
SWIDTH 960 0
DWIDTH 12 0
BBX 12 12 0 -2
BITMAP
2000
2fc0
2840
4fc0
4840
cfc0
4840
4fc0
4500
4500
4920
50e0
ENDCHAR
STARTCHAR U4FD7
ENCODING 20439
SWIDTH 960 0
DWIDTH 12 0
BBX 12 12 0 -2
BITMAP
1280
1240
1520
2920
2280
6440
a820
37d0
2440
2440
2440
27c0
ENDCHAR
STARTCHAR U4FD8
ENCODING 20440
SWIDTH 960 0
DWIDTH 12 0
BBX 12 12 0 -2
BITMAP
20c0
3f80
2c80
5240
6220
dfc0
4180
4200
7fe0
4200
4200
4600
ENDCHAR
STARTCHAR U4FDA
ENCODING 20442
SWIDTH 960 0
DWIDTH 12 0
BBX 12 12 0 -2
BITMAP
1000
1fc0
1a40
2fc0
2a40
6a40
afc0
2200
2fc0
2200
2200
3fe0
ENDCHAR
STARTCHAR U4FDB
ENCODING 20443
SWIDTH 960 0
DWIDTH 12 0
BBX 12 12 0 -2
BITMAP
2400
2780
2880
4100
5fc0
d240
5240
5fc0
4500
4520
4920
50e0
ENDCHAR
STARTCHAR U4FDD
ENCODING 20445
SWIDTH 960 0
DWIDTH 12 0
BBX 12 12 0 -2
BITMAP
2000
2fc0
2840
4840
4fc0
c200
7fe0
4700
4a80
5240
6220
4200
ENDCHAR
STARTCHAR U4FDF
ENCODING 20447
SWIDTH 960 0
DWIDTH 12 0
BBX 12 12 0 -2
BITMAP
2400
2500
2880
5f40
4800
cfc0
5200
6200
7fe0
4500
4880
7060
ENDCHAR
STARTCHAR U4FE1
ENCODING 20449
SWIDTH 960 0
DWIDTH 12 0
BBX 12 12 0 -2
BITMAP
1380
1000
1fe0
2000
27c0
6000
a7c0
2000
27c0
2440
2440
27c0
ENDCHAR
STARTCHAR U4FE3
ENCODING 20451
SWIDTH 960 0
DWIDTH 12 0
BBX 12 12 0 -2
BITMAP
2000
2fc0
2840
4840
4fc0
c000
4fc0
4200
5fe0
4300
4480
5860
ENDCHAR
STARTCHAR U4FE4
ENCODING 20452
SWIDTH 960 0
DWIDTH 12 0
BBX 12 12 0 -2
BITMAP
2880
2500
3fc0
2240
5fc0
5200
dfe0
4620
4a20
5220
62c0
4200
ENDCHAR
STARTCHAR U4FE5
ENCODING 20453
SWIDTH 960 0
DWIDTH 12 0
BBX 12 12 0 -2
BITMAP
2100
3ff0
2100
4fe0
4920
cfe0
4920
4fe0
4100
5ff0
4100
4100
ENDCHAR
STARTCHAR U4FEE
ENCODING 20462
SWIDTH 960 0
DWIDTH 12 0
BBX 12 12 0 -2
BITMAP
2400
27e0
2c40
5280
5180
de40
5130
5680
5120
5640
4180
4e00
ENDCHAR
STARTCHAR U4FEF
ENCODING 20463
SWIDTH 960 0
DWIDTH 12 0
BBX 12 12 0 -2
BITMAP
2200
3fe0
3240
5240
57e0
dc40
5640
5540
5540
6440
6440
44c0
ENDCHAR
STARTCHAR U4FF3
ENCODING 20467
SWIDTH 960 0
DWIDTH 12 0
BBX 12 12 0 -2
BITMAP
2500
2500
3de0
4500
4500
dde0
4500
4500
7de0
4900
4900
5100
ENDCHAR
STARTCHAR U4FF5
ENCODING 20469
SWIDTH 960 0
DWIDTH 12 0
BBX 12 12 0 -2
BITMAP
2100
2fe0
2100
4fe0
4100
dff0
4200
4520
4d40
5480
4740
4c20
ENDCHAR
STARTCHAR U4FF6
ENCODING 20470
SWIDTH 960 0
DWIDTH 12 0
BBX 12 12 0 -2
BITMAP
2800
29e0
2e20
48a0
7fa0
c8a0
4ca0
5a40
5a40
68c0
4920
4a20
ENDCHAR
STARTCHAR U4FF8
ENCODING 20472
SWIDTH 960 0
DWIDTH 12 0
BBX 12 12 0 -2
BITMAP
2100
2fe0
2100
47c0
4280
dff0
4540
5fb0
4100
4fe0
4100
4100
ENDCHAR
STARTCHAR U4FFA
ENCODING 20474
SWIDTH 960 0
DWIDTH 12 0
BBX 12 12 0 -2
BITMAP
2200
2200
3fe0
4500
cac0
5fa0
6a80
4f80
4a80
4f80
4220
41e0
ENDCHAR
STARTCHAR U4FFE
ENCODING 20478
SWIDTH 960 0
DWIDTH 12 0
BBX 12 12 0 -2
BITMAP
2200
2400
3fc0
5240
5fc0
d240
5fc0
4900
7fe0
4100
4100
4100
ENDCHAR
STARTCHAR U5005
ENCODING 20485
SWIDTH 960 0
DWIDTH 12 0
BBX 12 12 0 -2
BITMAP
2200
2200
3fe0
4880
4880
d540
5220
4200
7fe0
4200
4200
4200
ENDCHAR
STARTCHAR U5006
ENCODING 20486
SWIDTH 960 0
DWIDTH 12 0
BBX 12 12 0 -2
BITMAP
2000
3ff0
2100
5ff0
5110
ddd0
5550
5550
5bb0
5110
5110
5130
ENDCHAR
STARTCHAR U5009
ENCODING 20489
SWIDTH 960 0
DWIDTH 12 0
BBX 12 12 0 -2
BITMAP
0400
0a00
3180
ffe0
2080
3f80
2080
3f80
2000
3fc0
5040
9fc0
ENDCHAR
STARTCHAR U500B
ENCODING 20491
SWIDTH 960 0
DWIDTH 12 0
BBX 12 12 0 -2
BITMAP
2000
3fe0
3220
5220
5fe0
d220
57a0
54a0
54a0
57a0
5020
5fe0
ENDCHAR
STARTCHAR U500D
ENCODING 20493
SWIDTH 960 0
DWIDTH 12 0
BBX 12 12 0 -2
BITMAP
1100
1100
1fe0
2440
2280
7fe0
a000
27c0
2440
2440
2440
27c0
ENDCHAR
STARTCHAR U500F
ENCODING 20495
SWIDTH 960 0
DWIDTH 12 0
BBX 12 12 0 -2
BITMAP
2400
27e0
2440
5b80
5280
dc60
5180
5140
5fe0
5100
4280
4c60
ENDCHAR
STARTCHAR U5011
ENCODING 20497
SWIDTH 960 0
DWIDTH 12 0
BBX 12 12 0 -2
BITMAP
1000
1ee0
1aa0
2ee0
2aa0
6ee0
a820
2820
2820
2820
2820
2860
ENDCHAR
STARTCHAR U5012
ENCODING 20498
SWIDTH 960 0
DWIDTH 12 0
BBX 12 12 0 -2
BITMAP
2020
3f20
24a0
4aa0
5da0
c4a0
5fa0
44a0
44a0
4720
5820
4060
ENDCHAR
STARTCHAR U5014
ENCODING 20500
SWIDTH 960 0
DWIDTH 12 0
BBX 12 12 0 -2
BITMAP
2000
2fe0
2820
4fe0
4900
cd40
4d40
57c0
5100
6920
4920
4fe0
ENDCHAR
STARTCHAR U5016
ENCODING 20502
SWIDTH 960 0
DWIDTH 12 0
BBX 12 12 0 -2
BITMAP
1100
1100
1fc0
2100
3fe0
6440
afe0
2100
2fc0
2100
2100
2100
ENDCHAR
STARTCHAR U5019
ENCODING 20505
SWIDTH 960 0
DWIDTH 12 0
BBX 12 12 0 -2
BITMAP
2000
27c0
2040
5fe0
5400
d7c0
5900
5100
5fe0
5280
4440
5820
ENDCHAR
STARTCHAR U501A
ENCODING 20506
SWIDTH 960 0
DWIDTH 12 0
BBX 12 12 0 -2
BITMAP
2200
3fe0
2300
4480
5840
ffe0
4040
4f40
4940
4f40
4040
40c0
ENDCHAR
STARTCHAR U501F
ENCODING 20511
SWIDTH 960 0
DWIDTH 12 0
BBX 12 12 0 -2
BITMAP
1480
1480
1fc0
2480
3fe0
6000
afc0
2840
2fc0
2840
2840
2fc0
ENDCHAR
STARTCHAR U5021
ENCODING 20513
SWIDTH 960 0
DWIDTH 12 0
BBX 12 12 0 -2
BITMAP
17c0
1440
17c0
2440
27c0
6000
afe0
2820
2fe0
2820
2820
2fe0
ENDCHAR
STARTCHAR U5023
ENCODING 20515
SWIDTH 960 0
DWIDTH 12 0
BBX 12 12 0 -2
BITMAP
2900
2900
29f0
7f20
4920
cea0
4ac0
4a40
5240
52a0
62a0
4d10
ENDCHAR
STARTCHAR U5024
ENCODING 20516
SWIDTH 960 0
DWIDTH 12 0
BBX 12 12 0 -2
BITMAP
2100
2fe0
2100
47c0
5440
d7c0
5440
57c0
5440
57c0
5000
5fe0
ENDCHAR
STARTCHAR U5025
ENCODING 20517
SWIDTH 960 0
DWIDTH 12 0
BBX 12 12 0 -2
BITMAP
2200
2200
3fe0
5520
4500
c9e0
5000
5fc0
4200
4200
4200
7fe0
ENDCHAR
STARTCHAR U5026
ENCODING 20518
SWIDTH 960 0
DWIDTH 12 0
BBX 12 12 0 -2
BITMAP
2240
2a80
3fc0
4200
5fe0
c500
4880
5f40
6120
4f00
4840
47c0
ENDCHAR
STARTCHAR U5028
ENCODING 20520
SWIDTH 960 0
DWIDTH 12 0
BBX 12 12 0 -2
BITMAP
2000
2fe0
2820
4fe0
4900
cff0
4900
4900
57e0
5420
6420
47e0
ENDCHAR
STARTCHAR U5029
ENCODING 20521
SWIDTH 960 0
DWIDTH 12 0
BBX 12 12 0 -2
BITMAP
2200
3fc0
2200
4f80
4200
ffe0
5240
5240
5fc0
5040
5040
50c0
ENDCHAR
STARTCHAR U502A
ENCODING 20522
SWIDTH 960 0
DWIDTH 12 0
BBX 12 12 0 -2
BITMAP
2200
2cc0
2840
2ec0
4840
4840
cfc0
4500
4500
4520
4920
50e0
ENDCHAR
STARTCHAR U502B
ENCODING 20523
SWIDTH 960 0
DWIDTH 12 0
BBX 12 12 0 -2
BITMAP
2200
2200
2500
4880
5fc0
e020
5fc0
5540
5fc0
5540
5540
50c0
ENDCHAR
STARTCHAR U502C
ENCODING 20524
SWIDTH 960 0
DWIDTH 12 0
BBX 12 12 0 -2
BITMAP
2200
23e0
2200
5fc0
5040
dfc0
5040
5fc0
4200
7fe0
4200
4200
ENDCHAR
STARTCHAR U502D
ENCODING 20525
SWIDTH 960 0
DWIDTH 12 0
BBX 12 12 0 -2
BITMAP
20c0
2f00
2200
5fe0
4700
ca80
5260
4400
5fe0
4c80
4300
5cc0
ENDCHAR
STARTCHAR U5036
ENCODING 20534
SWIDTH 960 0
DWIDTH 12 0
BBX 12 12 0 -2
BITMAP
1000
1fc0
1840
2840
2fc0
6840
afc0
2840
3fe0
2280
2440
3820
ENDCHAR
STARTCHAR U5039
ENCODING 20537
SWIDTH 960 0
DWIDTH 12 0
BBX 12 12 0 -2
BITMAP
1100
1280
1440
2ba0
3110
6fe0
a920
2fe0
2300
2280
2440
2820
ENDCHAR
STARTCHAR U5043
ENCODING 20547
SWIDTH 960 0
DWIDTH 12 0
BBX 12 12 0 -2
BITMAP
2000
3fe0
37c0
5440
57c0
d440
5fe0
5240
5680
5180
5640
5fe0
ENDCHAR
STARTCHAR U5047
ENCODING 20551
SWIDTH 960 0
DWIDTH 12 0
BBX 12 12 0 -2
BITMAP
2000
3ee0
3220
5220
5ee0
d000
5ee0
5120
50a0
5e40
50a0
5310
ENDCHAR
STARTCHAR U5048
ENCODING 20552
SWIDTH 960 0
DWIDTH 12 0
BBX 12 12 0 -2
BITMAP
2000
2fc0
2840
4fc0
4840
cfc0
4400
4fe0
5920
6aa0
4fa0
40c0
ENDCHAR
STARTCHAR U5049
ENCODING 20553
SWIDTH 960 0
DWIDTH 12 0
BBX 12 12 0 -2
BITMAP
1200
17c0
1240
3ff0
2440
67c0
a100
2fc0
2900
3fe0
2100
2100
ENDCHAR
STARTCHAR U504F
ENCODING 20559
SWIDTH 960 0
DWIDTH 12 0
BBX 12 12 0 -2
BITMAP
2fc0
2000
3fc0
5040
5fc0
d000
5fe0
5aa0
5fe0
6aa0
6aa0
4860
ENDCHAR
STARTCHAR U5050
ENCODING 20560
SWIDTH 960 0
DWIDTH 12 0
BBX 12 12 0 -2
BITMAP
2100
2fe0
2440
4280
4fe0
c880
4940
4e80
4920
5640
5180
6600
ENDCHAR
STARTCHAR U5055
ENCODING 20565
SWIDTH 960 0
DWIDTH 12 0
BBX 12 12 0 -2
BITMAP
2900
2900
2f60
4980
4f20
f8e0
4000
4fc0
4840
4fc0
4840
4fc0
ENDCHAR
STARTCHAR U5056
ENCODING 20566
SWIDTH 960 0
DWIDTH 12 0
BBX 12 12 0 -2
BITMAP
2200
2200
2fc0
4280
5fe0
c300
4480
4fc0
7440
47c0
4440
47c0
ENDCHAR
STARTCHAR U505A
ENCODING 20570
SWIDTH 960 0
DWIDTH 12 0
BBX 12 12 0 -2
BITMAP
2880
2880
2880
7ff0
4940
cb40
5d40
5540
5480
5d80
4240
4420
ENDCHAR
STARTCHAR U505C
ENCODING 20572
SWIDTH 960 0
DWIDTH 12 0
BBX 12 12 0 -2
BITMAP
1100
1fe0
1000
27c0
2440
7ff0
b010
27c0
2100
2100
2100
2300
ENDCHAR
STARTCHAR U5065
ENCODING 20581
SWIDTH 960 0
DWIDTH 12 0
BBX 12 12 0 -2
BITMAP
2080
23e0
3ca0
47f0
48a0
dfe0
4480
57e0
4c80
47e0
4a80
51f0
ENDCHAR
STARTCHAR U506C
ENCODING 20588
SWIDTH 960 0
DWIDTH 12 0
BBX 12 12 0 -2
BITMAP
2400
2400
27e0
4aa0
56a0
e9a0
4220
44c0
5600
5520
6450
43c0
ENDCHAR
STARTCHAR U5072
ENCODING 20594
SWIDTH 960 0
DWIDTH 12 0
BBX 12 12 0 -2
BITMAP
2000
3fc0
3240
5fc0
5240
d240
5fc0
4200
5540
5520
64a0
4380
ENDCHAR
STARTCHAR U5074
ENCODING 20596
SWIDTH 960 0
DWIDTH 12 0
BBX 12 12 0 -2
BITMAP
2020
3ea0
32a0
52a0
5ea0
52a0
dea0
52a0
5ea0
4420
4a20
5060
ENDCHAR
STARTCHAR U5075
ENCODING 20597
SWIDTH 960 0
DWIDTH 12 0
BBX 12 12 0 -2
BITMAP
1100
11e0
1100
2fc0
2840
6fc0
a840
2fc0
2840
2fc0
2440
3820
ENDCHAR
STARTCHAR U5076
ENCODING 20598
SWIDTH 960 0
DWIDTH 12 0
BBX 12 12 0 -2
BITMAP
2000
2fc0
2a40
4fc0
4a40
cfc0
4200
5fe0
52a0
53a0
5ca0
5060
ENDCHAR
STARTCHAR U5078
ENCODING 20600
SWIDTH 960 0
DWIDTH 12 0
BBX 12 12 0 -2
BITMAP
2200
2300
2480
4f40
5020
fca0
54a0
5d40
5540
5d40
54a0
54a0
ENDCHAR
STARTCHAR U507D
ENCODING 20605
SWIDTH 960 0
DWIDTH 12 0
BBX 12 12 0 -2
BITMAP
2900
2500
2200
5f80
4480
c7c0
4840
5fe0
6020
4aa0
5220
40c0
ENDCHAR
STARTCHAR U5080
ENCODING 20608
SWIDTH 960 0
DWIDTH 12 0
BBX 12 12 0 -2
BITMAP
2200
2400
3fc0
5240
5fc0
d240
5fc0
4680
4680
4b60
4a20
51e0
ENDCHAR
STARTCHAR U5085
ENCODING 20613
SWIDTH 960 0
DWIDTH 12 0
BBX 12 12 0 -2
BITMAP
2280
3fe0
2200
5fc0
5240
dfc0
5240
4080
7fe0
4880
4480
4180
ENDCHAR
STARTCHAR U508D
ENCODING 20621
SWIDTH 960 0
DWIDTH 12 0
BBX 12 12 0 -2
BITMAP
2100
3fe0
2480
4480
5fe0
d220
5fe0
4200
43c0
4440
4840
7180
ENDCHAR
STARTCHAR U5091
ENCODING 20625
SWIDTH 960 0
DWIDTH 12 0
BBX 12 12 0 -2
BITMAP
2840
2c40
35e0
5d40
47e0
c840
7240
5fe0
4700
4a80
5260
4200
ENDCHAR
STARTCHAR U5098
ENCODING 20632
SWIDTH 960 0
DWIDTH 12 0
BBX 12 12 0 -2
BITMAP
0400
0a00
3180
c460
2480
5540
2480
5540
ffe0
0400
0400
0400
ENDCHAR
STARTCHAR U5099
ENCODING 20633
SWIDTH 960 0
DWIDTH 12 0
BBX 12 12 0 -2
BITMAP
2480
2fe0
2480
5fe0
5000
d7e0
5520
57e0
5520
57e0
6520
4560
ENDCHAR
STARTCHAR U509A
ENCODING 20634
SWIDTH 960 0
DWIDTH 12 0
BBX 12 12 0 -2
BITMAP
2880
2880
3fe0
5540
6240
d540
5540
4880
4c80
5340
6240
4420
ENDCHAR
STARTCHAR U50AC
ENCODING 20652
SWIDTH 960 0
DWIDTH 12 0
BBX 12 12 0 -2
BITMAP
1100
1920
1fe0
2480
2900
6fe0
b900
2fc0
2900
2fc0
2900
2fe0
ENDCHAR
STARTCHAR U50AD
ENCODING 20653
SWIDTH 960 0
DWIDTH 12 0
BBX 12 12 0 -2
BITMAP
2200
3fe0
3100
57c0
5140
dfe0
d520
57e0
5520
57e0
5520
6560
ENDCHAR
STARTCHAR U50B2
ENCODING 20658
SWIDTH 960 0
DWIDTH 12 0
BBX 12 12 0 -2
BITMAP
2880
2880
3ef0
4920
7f20
caa0
7ec0
4840
4ec0
4aa0
5320
6610
ENDCHAR
STARTCHAR U50B3
ENCODING 20659
SWIDTH 960 0
DWIDTH 12 0
BBX 12 12 0 -2
BITMAP
2280
3fe0
2a40
4fc0
4a40
cfc0
42c0
5f20
4080
7fe0
4880
4180
ENDCHAR
STARTCHAR U50B4
ENCODING 20660
SWIDTH 960 0
DWIDTH 12 0
BBX 12 12 0 -2
BITMAP
2000
3fe0
53c0
5240
d3c0
5000
57e0
55a0
55a0
57e0
5000
5fe0
ENDCHAR
STARTCHAR U50B5
ENCODING 20661
SWIDTH 960 0
DWIDTH 12 0
BBX 12 12 0 -2
BITMAP
1100
1fc0
2100
2fc0
6100
bfe0
2440
27c0
2440
27c0
2640
3820
ENDCHAR
STARTCHAR U50B7
ENCODING 20663
SWIDTH 960 0
DWIDTH 12 0
BBX 12 12 0 -2
BITMAP
1400
17e0
2c40
37c0
6440
bff0
2400
2fe0
32a0
2d20
2220
2cc0
ENDCHAR
STARTCHAR U50BE
ENCODING 20670
SWIDTH 960 0
DWIDTH 12 0
BBX 12 12 0 -2
BITMAP
2000
2fe0
2100
53c0
5640
dbc0
5240
53c0
5640
4fc0
4340
4c20
ENDCHAR
STARTCHAR U50C2
ENCODING 20674
SWIDTH 960 0
DWIDTH 12 0
BBX 12 12 0 -2
BITMAP
2200
2fc0
2a40
7fe0
4a40
cfc0
4a40
5fe0
4480
4c80
4300
5cc0
ENDCHAR
STARTCHAR U50C5
ENCODING 20677
SWIDTH 960 0
DWIDTH 12 0
BBX 12 12 0 -2
BITMAP
2280
2fe0
2280
4fe0
4920
cfe0
4100
4fe0
4100
47c0
4100
4fe0
ENDCHAR
STARTCHAR U50C9
ENCODING 20681
SWIDTH 960 0
DWIDTH 12 0
BBX 12 12 0 -2
BITMAP
0400
0a00
3180
df60
0000
7bc0
4a40
7bc0
2080
30c0
4920
8220
ENDCHAR
STARTCHAR U50CA
ENCODING 20682
SWIDTH 960 0
DWIDTH 12 0
BBX 12 12 0 -2
BITMAP
3fe0
2500
3fc0
5540
5fc0
c200
7fe0
4fc0
58a0
6f80
4820
47e0
ENDCHAR
STARTCHAR U50CD
ENCODING 20685
SWIDTH 960 0
DWIDTH 12 0
BBX 12 12 0 -2
BITMAP
2740
3c40
24f0
5f50
5550
df50
5550
5f50
4450
5e50
4790
58b0
ENDCHAR
STARTCHAR U50CF
ENCODING 20687
SWIDTH 960 0
DWIDTH 12 0
BBX 12 12 0 -2
BITMAP
2380
2500
3fe0
4920
4fe0
c320
5d40
4680
59c0
46a0
5890
4300
ENDCHAR
STARTCHAR U50D1
ENCODING 20689
SWIDTH 960 0
DWIDTH 12 0
BBX 12 12 0 -2
BITMAP
17c0
1100
2fe0
2280
2c60
6380
a280
2fe0
2ba0
2aa0
2ba0
2860
ENDCHAR
STARTCHAR U50D5
ENCODING 20693
SWIDTH 960 0
DWIDTH 12 0
BBX 12 12 0 -2
BITMAP
2500
3540
3fe0
6500
5fc0
c200
4fc0
4200
5fe0
4500
4880
7060
ENDCHAR
STARTCHAR U50D6
ENCODING 20694
SWIDTH 960 0
DWIDTH 12 0
BBX 12 12 0 -2
BITMAP
2200
3fe0
2200
5fc0
5040
dfc0
4880
7fe0
4000
5fc0
5040
5fc0
ENDCHAR
STARTCHAR U50DA
ENCODING 20698
SWIDTH 960 0
DWIDTH 12 0
BBX 12 12 0 -2
BITMAP
2200
3fe0
2200
5540
4880
dfc0
68a0
4f80
4280
4a40
5240
4600
ENDCHAR
STARTCHAR U50DE
ENCODING 20702
SWIDTH 960 0
DWIDTH 12 0
BBX 12 12 0 -2
BITMAP
20c0
3f40
2920
5f80
4880
cfc0
4840
4fe0
5120
54a0
6a20
48c0
ENDCHAR
STARTCHAR U50E3
ENCODING 20707
SWIDTH 960 0
DWIDTH 12 0
BBX 12 12 0 -2
BITMAP
2480
3fe0
2480
5ff0
4480
cb40
5120
4fc0
4840
4fc0
4840
4fc0
ENDCHAR
STARTCHAR U50E5
ENCODING 20709
SWIDTH 960 0
DWIDTH 12 0
BBX 12 12 0 -2
BITMAP
2200
2fc0
2200
7fe0
4880
ddc0
4880
5dc0
7fe0
4500
4920
50e0
ENDCHAR
STARTCHAR U50E7
ENCODING 20711
SWIDTH 960 0
DWIDTH 12 0
BBX 12 12 0 -2
BITMAP
1440
1280
2fe0
2920
6fe0
a920
2fe0
27c0
2440
27c0
2440
27c0
ENDCHAR
STARTCHAR U50ED
ENCODING 20717
SWIDTH 960 0
DWIDTH 12 0
BBX 12 12 0 -2
BITMAP
2440
3fe0
3540
5ff0
4cc0
d550
6670
4fc0
4840
4fc0
4840
4fc0
ENDCHAR
STARTCHAR U50EE
ENCODING 20718
SWIDTH 960 0
DWIDTH 12 0
BBX 12 12 0 -2
BITMAP
2100
2fe0
2440
5ff0
4920
cfe0
4920
4fe0
4100
4fe0
4100
5ff0
ENDCHAR
STARTCHAR U50F5
ENCODING 20725
SWIDTH 960 0
DWIDTH 12 0
BBX 12 12 0 -2
BITMAP
2000
3fe0
2a40
4fc0
4a40
dfe0
4000
4fc0
4a40
4fc0
4a40
5fe0
ENDCHAR
STARTCHAR U50F9
ENCODING 20729
SWIDTH 960 0
DWIDTH 12 0
BBX 12 12 0 -2
BITMAP
2000
3fe0
2500
5fe0
5520
dfe0
4840
4fc0
4fc0
4840
4fc0
5860
ENDCHAR
STARTCHAR U50FB
ENCODING 20731
SWIDTH 960 0
DWIDTH 12 0
BBX 12 12 0 -2
BITMAP
2080
3c80
37e0
5540
5d40
d3e0
5c80
7480
57e0
5480
5c80
4080
ENDCHAR
STARTCHAR U5100
ENCODING 20736
SWIDTH 960 0
DWIDTH 12 0
BBX 12 12 0 -2
BITMAP
2480
3fe0
2200
4fc0
4200
ffe0
4d40
5fe0
4540
5ca0
4560
4c20
ENDCHAR
STARTCHAR U5101
ENCODING 20737
SWIDTH 960 0
DWIDTH 12 0
BBX 12 12 0 -2
BITMAP
2480
2500
2fe0
5900
6fc0
c900
4fe0
4000
5de0
5520
5720
5060
ENDCHAR
STARTCHAR U5102
ENCODING 20738
SWIDTH 960 0
DWIDTH 12 0
BBX 12 12 0 -2
BITMAP
2280
2fe0
2aa0
4fe0
4aa0
dfe0
5000
5fe0
5520
54c0
6740
4c20
ENDCHAR
STARTCHAR U5104
ENCODING 20740
SWIDTH 960 0
DWIDTH 12 0
BBX 12 12 0 -2
BITMAP
2100
2fc0
2480
3fe0
4840
4fc0
c840
4fc0
5600
5540
64a0
4380
ENDCHAR
STARTCHAR U5109
ENCODING 20745
SWIDTH 960 0
DWIDTH 12 0
BBX 12 12 0 -2
BITMAP
2200
2300
2480
4fc0
5020
ddd0
5540
5dc0
4880
4cc0
5120
6200
ENDCHAR
STARTCHAR U5112
ENCODING 20754
SWIDTH 960 0
DWIDTH 12 0
BBX 12 12 0 -2
BITMAP
2fc0
2200
3fe0
5220
57a0
c000
5fe0
4200
4fe0
4aa0
4aa0
4ae0
ENDCHAR
STARTCHAR U5114
ENCODING 20756
SWIDTH 960 0
DWIDTH 12 0
BBX 12 12 0 -2
BITMAP
2100
2fe0
2100
5fe0
4fa0
c200
5fe0
4040
7fe0
5640
5d40
40c0
ENDCHAR
STARTCHAR U5115
ENCODING 20757
SWIDTH 960 0
DWIDTH 12 0
BBX 12 12 0 -2
BITMAP
2100
2fe0
22a0
5de0
4d40
d5a0
6440
47c0
4440
47c0
4840
5040
ENDCHAR
STARTCHAR U5116
ENCODING 20758
SWIDTH 960 0
DWIDTH 12 0
BBX 12 12 0 -2
BITMAP
3e80
3480
3ee0
5300
5e00
d4e0
5f00
4000
5fc0
5540
5540
7fe0
ENDCHAR
STARTCHAR U5118
ENCODING 20760
SWIDTH 960 0
DWIDTH 12 0
BBX 12 12 0 -2
BITMAP
2200
2fc0
2240
7fe0
4fc0
c200
7fe0
52a0
5fc0
5540
5540
7fe0
ENDCHAR
STARTCHAR U511A
ENCODING 20762
SWIDTH 960 0
DWIDTH 12 0
BBX 12 12 0 -2
BITMAP
2480
3fe0
2480
5fc0
5540
dfc0
4000
7fe0
67a0
5c80
4300
5c00
ENDCHAR
STARTCHAR U511F
ENCODING 20767
SWIDTH 960 0
DWIDTH 12 0
BBX 12 12 0 -2
BITMAP
2a40
2580
3fe0
57a0
54a0
cfc0
4840
4fc0
4840
4fc0
4440
5820
ENDCHAR
STARTCHAR U5121
ENCODING 20769
SWIDTH 960 0
DWIDTH 12 0
BBX 12 12 0 -2
BITMAP
2000
2fc0
2a40
4fc0
4a40
cfc0
4000
7fe0
6aa0
7fe0
6aa0
7fe0
ENDCHAR
STARTCHAR U512A
ENCODING 20778
SWIDTH 960 0
DWIDTH 12 0
BBX 12 12 0 -2
BITMAP
3fe0
2200
2780
4480
5fe0
d6a0
4b40
57a0
4c80
5300
4680
5860
ENDCHAR
STARTCHAR U5132
ENCODING 20786
SWIDTH 960 0
DWIDTH 12 0
BBX 12 12 0 -2
BITMAP
2c80
21e0
3e80
4080
5fe0
c100
5de0
4120
5fe0
5520
5520
5de0
ENDCHAR
STARTCHAR U5137
ENCODING 20791
SWIDTH 960 0
DWIDTH 12 0
BBX 12 12 0 -2
BITMAP
3de0
2000
3de0
6aa0
5fe0
dfc0
5540
5fc0
5aa0
5cc0
6aa0
5ce0
ENDCHAR
STARTCHAR U513A
ENCODING 20794
SWIDTH 960 0
DWIDTH 12 0
BBX 12 12 0 -2
BITMAP
2aa0
3f40
2bf0
5f40
5540
dfe0
4540
5f40
45e0
7f40
5340
61f0
ENDCHAR
STARTCHAR U513B
ENCODING 20795
SWIDTH 960 0
DWIDTH 12 0
BBX 12 12 0 -2
BITMAP
2a40
3fe0
34a0
4780
4fc0
cdc0
4b40
4fc0
4100
5fe0
4a40
5520
ENDCHAR
STARTCHAR U513C
ENCODING 20796
SWIDTH 960 0
DWIDTH 12 0
BBX 12 12 0 -2
BITMAP
2ee0
2aa0
3fe0
5680
5280
dff0
55a0
57a0
5540
5f40
52a0
6310
ENDCHAR
STARTCHAR U513F
ENCODING 20799
SWIDTH 960 0
DWIDTH 12 0
BBX 12 12 0 -2
BITMAP
1100
1100
1100
1100
1100
1100
1100
1100
2100
2120
4120
80e0
ENDCHAR
STARTCHAR U5140
ENCODING 20800
SWIDTH 960 0
DWIDTH 12 0
BBX 12 12 0 -2
BITMAP
0000
ffe0
1100
1100
1100
1100
1100
1100
2100
2120
4120
80e0
ENDCHAR
STARTCHAR U5141
ENCODING 20801
SWIDTH 960 0
DWIDTH 12 0
BBX 12 12 0 -2
BITMAP
0800
0800
1300
20c0
7f20
0a00
0a00
0a00
1200
1220
2220
41e0
ENDCHAR
STARTCHAR U5143
ENCODING 20803
SWIDTH 960 0
DWIDTH 12 0
BBX 12 12 0 -2
BITMAP
0000
1f80
0000
0000
7fe0
0900
0900
0900
1100
1120
2120
40e0
ENDCHAR
STARTCHAR U5144
ENCODING 20804
SWIDTH 960 0
DWIDTH 12 0
BBX 12 12 0 -2
BITMAP
0000
3f80
2080
2080
2080
3f80
0a00
0a00
0a00
1220
2220
c1e0
ENDCHAR
STARTCHAR U5145
ENCODING 20805
SWIDTH 960 0
DWIDTH 12 0
BBX 12 12 0 -2
BITMAP
0800
0800
ffe0
0a00
1180
7e40
1200
1200
1200
2220
4220
81e0
ENDCHAR
STARTCHAR U5146
ENCODING 20806
SWIDTH 960 0
DWIDTH 12 0
BBX 12 12 0 -2
BITMAP
0a00
0a40
4a40
2a80
2b00
0a00
1b00
2ac0
d200
1220
2220
c1e0
ENDCHAR
STARTCHAR U5147
ENCODING 20807
SWIDTH 960 0
DWIDTH 12 0
BBX 12 12 0 -2
BITMAP
0200
5a40
4440
4640
4940
5040
7fc0
0a00
0a00
1220
2220
c1e0
ENDCHAR
STARTCHAR U5148
ENCODING 20808
SWIDTH 960 0
DWIDTH 12 0
BBX 12 12 0 -2
BITMAP
0400
2400
2400
3f80
2400
4400
ffe0
0a00
0a00
1220
2220
c1e0
ENDCHAR
STARTCHAR U5149
ENCODING 20809
SWIDTH 960 0
DWIDTH 12 0
BBX 12 12 0 -2
BITMAP
0400
4480
2480
2500
0400
7fe0
0a00
0a00
1200
1220
2220
c1e0
ENDCHAR
STARTCHAR U514B
ENCODING 20811
SWIDTH 960 0
DWIDTH 12 0
BBX 12 12 0 -2
BITMAP
0400
0400
ffe0
0400
3f80
2080
2080
3f80
0a00
0a20
1220
e1e0
ENDCHAR
STARTCHAR U514C
ENCODING 20812
SWIDTH 960 0
DWIDTH 12 0
BBX 12 12 0 -2
BITMAP
0b00
1100
2080
dfe0
2080
2080
3f80
0a00
0a00
1220
2220
c1e0
ENDCHAR
STARTCHAR U514D
ENCODING 20813
SWIDTH 960 0
DWIDTH 12 0
BBX 12 12 0 -2
BITMAP
0800
0f00
1200
2400
ffc0
2440
2440
3fc0
0a00
1220
2220
c1e0
ENDCHAR
STARTCHAR U514E
ENCODING 20814
SWIDTH 960 0
DWIDTH 12 0
BBX 12 12 0 -2
BITMAP
01c0
7e00
0400
7fc0
4440
4440
7fc0
0a00
0b00
12a0
2220
c1e0
ENDCHAR
STARTCHAR U5150
ENCODING 20816
SWIDTH 960 0
DWIDTH 12 0
BBX 12 12 0 -2
BITMAP
4f80
4880
4880
4f80
4880
4880
4f80
4200
1200
1220
2220
c1e0
ENDCHAR
STARTCHAR U5152
ENCODING 20818
SWIDTH 960 0
DWIDTH 12 0
BBX 12 12 0 -2
BITMAP
0800
3380
2080
2080
3b80
2080
2080
3f80
0900
0920
1120
60e0
ENDCHAR
STARTCHAR U5154
ENCODING 20820
SWIDTH 960 0
DWIDTH 12 0
BBX 12 12 0 -2
BITMAP
0800
0f00
1200
2400
ffc0
4440
4440
7fc0
0b00
12a0
2220
c1e0
ENDCHAR
STARTCHAR U515A
ENCODING 20826
SWIDTH 960 0
DWIDTH 12 0
BBX 12 12 0 -2
BITMAP
2480
1500
ffe0
8020
bfa0
2080
2080
3f80
0a00
0a00
3220
c1e0
ENDCHAR
STARTCHAR U515C
ENCODING 20828
SWIDTH 960 0
DWIDTH 12 0
BBX 12 12 0 -2
BITMAP
1400
6fc0
4a40
4e40
4a40
7bc0
4e40
0000
0a00
1220
2220
c1e0
ENDCHAR
STARTCHAR U5162
ENCODING 20834
SWIDTH 960 0
DWIDTH 12 0
BBX 12 12 0 -2
BITMAP
1080
ffe0
1080
7bc0
4a40
4a40
7bc0
3180
3180
36a0
5aa0
8460
ENDCHAR
STARTCHAR U5165
ENCODING 20837
SWIDTH 960 0
DWIDTH 12 0
BBX 12 12 0 -2
BITMAP
0000
1c00
0400
0400
0400
0400
0a00
0a00
1100
2080
4040
8020
ENDCHAR
STARTCHAR U5168
ENCODING 20840
SWIDTH 960 0
DWIDTH 12 0
BBX 12 12 0 -2
BITMAP
0400
0400
0a00
1100
2080
ffe0
0400
0400
3f80
0400
0400
ffe0
ENDCHAR
STARTCHAR U5169
ENCODING 20841
SWIDTH 960 0
DWIDTH 12 0
BBX 12 12 0 -2
BITMAP
0000
ffe0
0400
ffe0
8420
b5a0
94a0
94a0
ad60
c620
8420
8460
ENDCHAR
STARTCHAR U516A
ENCODING 20842
SWIDTH 960 0
DWIDTH 12 0
BBX 12 12 0 -2
BITMAP
1c00
0a00
1100
2e80
c060
7940
6940
5a80
6a80
5940
4940
5940
ENDCHAR
STARTCHAR U516B
ENCODING 20843
SWIDTH 960 0
DWIDTH 12 0
BBX 12 12 0 -2
BITMAP
0000
1f00
0100
0100
1100
1100
1100
1080
2080
2040
4040
8020
ENDCHAR
STARTCHAR U516C
ENCODING 20844
SWIDTH 960 0
DWIDTH 12 0
BBX 12 12 0 -2
BITMAP
1100
1100
1100
2080
2440
4420
8400
0900
0880
1780
7840
0040
ENDCHAR
STARTCHAR U516D
ENCODING 20845
SWIDTH 960 0
DWIDTH 12 0
BBX 12 12 0 -2
BITMAP
0400
0400
0400
ffe0
0000
1200
1100
2080
2040
4040
8040
0000
ENDCHAR
STARTCHAR U516E
ENCODING 20846
SWIDTH 960 0
DWIDTH 12 0
BBX 12 12 0 -2
BITMAP
1600
1200
2100
4080
bf60
0800
0800
1f00
1100
0100
0100
0600
ENDCHAR
STARTCHAR U5171
ENCODING 20849
SWIDTH 960 0
DWIDTH 12 0
BBX 12 12 0 -2
BITMAP
1100
1100
1100
7fc0
1100
1100
1100
ffe0
0100
1080
2040
c040
ENDCHAR
STARTCHAR U5175
ENCODING 20853
SWIDTH 960 0
DWIDTH 12 0
BBX 12 12 0 -2
BITMAP
0300
3c00
2000
2000
3fc0
2100
2100
2100
ffe0
1200
2180
c040
ENDCHAR
STARTCHAR U5176
ENCODING 20854
SWIDTH 960 0
DWIDTH 12 0
BBX 12 12 0 -2
BITMAP
1100
1100
7fc0
1100
1f00
1100
1f00
1100
ffe0
1100
20c0
c020
ENDCHAR
STARTCHAR U5177
ENCODING 20855
SWIDTH 960 0
DWIDTH 12 0
BBX 12 12 0 -2
BITMAP
3f00
2100
3f00
2100
3f00
2100
3f00
0000
ffe0
1200
2180
c040
ENDCHAR
STARTCHAR U5178
ENCODING 20856
SWIDTH 960 0
DWIDTH 12 0
BBX 12 12 0 -2
BITMAP
0a00
0a00
7fc0
4a40
4a40
7fc0
4a40
4a40
ffe0
1100
20c0
c020
ENDCHAR
STARTCHAR U517C
ENCODING 20860
SWIDTH 960 0
DWIDTH 12 0
BBX 12 12 0 -2
BITMAP
1100
ffe0
0a00
7fc0
0a40
ffe0
0a40
7fc0
1b00
2a80
ca60
0a00
ENDCHAR
STARTCHAR U5180
ENCODING 20864
SWIDTH 960 0
DWIDTH 12 0
BBX 12 12 0 -2
BITMAP
1240
f380
1220
3fe0
e480
3f80
2480
7fc0
1100
fff0
3080
c040
ENDCHAR
STARTCHAR U5182
ENCODING 20866
SWIDTH 960 0
DWIDTH 12 0
BBX 12 12 0 -2
BITMAP
0000
7fe0
4020
4020
4020
4020
4020
4020
4020
4020
4020
4060
ENDCHAR
STARTCHAR U5185
ENCODING 20869
SWIDTH 960 0
DWIDTH 12 0
BBX 12 12 0 -2
BITMAP
0400
0400
7fe0
4420
4420
4a20
5120
60a0
4020
4020
4020
4060
ENDCHAR
STARTCHAR U5186
ENCODING 20870
SWIDTH 960 0
DWIDTH 12 0
BBX 12 12 0 -2
BITMAP
0000
7fc0
4440
4440
4440
7fc0
4040
4040
4040
4040
4040
40c0
ENDCHAR
STARTCHAR U5189
ENCODING 20873
SWIDTH 960 0
DWIDTH 12 0
BBX 12 12 0 -2
BITMAP
0400
0400
3f80
2480
2480
3f80
2480
2480
ffe0
2080
2080
2180
ENDCHAR
STARTCHAR U518A
ENCODING 20874
SWIDTH 960 0
DWIDTH 12 0
BBX 12 12 0 -2
BITMAP
0000
3fc0
2940
2940
2940
2940
ffe0
2940
2940
2940
2940
20c0
ENDCHAR
STARTCHAR U518C
ENCODING 20876
SWIDTH 960 0
DWIDTH 12 0
BBX 12 12 0 -2
BITMAP
7bc0
4a40
4a40
4a40
4a40
ffe0
4a40
4a40
4a40
4a40
4a40
9cc0
ENDCHAR
STARTCHAR U518D
ENCODING 20877
SWIDTH 960 0
DWIDTH 12 0
BBX 12 12 0 -2
BITMAP
0000
7fc0
0400
3f80
2480
3f80
2480
2480
ffe0
2080
2080
2180
ENDCHAR
STARTCHAR U518F
ENCODING 20879
SWIDTH 960 0
DWIDTH 12 0
BBX 12 12 0 -2
BITMAP
0000
7fe0
4920
4920
50e0
6020
4f20
4920
4920
4f20
4020
4060
ENDCHAR
STARTCHAR U5190
ENCODING 20880
SWIDTH 960 0
DWIDTH 12 0
BBX 12 12 0 -2
BITMAP
7fe0
4020
5fa0
4020
5fa0
0000
3fc0
2040
3f40
2fc0
2040
20c0
ENDCHAR
STARTCHAR U5191
ENCODING 20881
SWIDTH 960 0
DWIDTH 12 0
BBX 12 12 0 -2
BITMAP
0400
7fc0
4440
7fc0
4440
7fc0
2080
2e80
2080
2e80
2080
2180
ENDCHAR
STARTCHAR U5192
ENCODING 20882
SWIDTH 960 0
DWIDTH 12 0
BBX 12 12 0 -2
BITMAP
0000
7fc0
4040
7fc0
4040
7fc0
2080
3f80
2080
3f80
2080
3f80
ENDCHAR
STARTCHAR U5193
ENCODING 20883
SWIDTH 960 0
DWIDTH 12 0
BBX 12 12 0 -2
BITMAP
1100
7fc0
1100
7fc0
1100
ffe0
2480
3f80
2480
ffe0
2080
2180
ENDCHAR
STARTCHAR U5195
ENCODING 20885
SWIDTH 960 0
DWIDTH 12 0
BBX 12 12 0 -2
BITMAP
7fc0
4040
5f40
4040
5f40
3200
ffc0
4440
7fc0
0a00
3220
c1e0
ENDCHAR
STARTCHAR U5196
ENCODING 20886
SWIDTH 960 0
DWIDTH 12 0
BBX 12 12 0 -2
BITMAP
0000
0000
0000
0000
ffe0
8020
8020
0000
0000
0000
0000
0000
ENDCHAR
STARTCHAR U5197
ENCODING 20887
SWIDTH 960 0
DWIDTH 12 0
BBX 12 12 0 -2
BITMAP
0000
ffe0
8020
8020
1e00
1200
1200
1200
1200
1220
2220
c1e0
ENDCHAR
STARTCHAR U5199
ENCODING 20889
SWIDTH 960 0
DWIDTH 12 0
BBX 12 12 0 -2
BITMAP
0000
ffe0
9020
9020
1f80
1000
1f00
0100
ffe0
0100
0100
0600
ENDCHAR
STARTCHAR U51A0
ENCODING 20896
SWIDTH 960 0
DWIDTH 12 0
BBX 12 12 0 -2
BITMAP
0000
ffe0
80a0
fca0
03e0
fc80
2a80
2a80
2880
49a0
4820
87e0
ENDCHAR
STARTCHAR U51A2
ENCODING 20898
SWIDTH 960 0
DWIDTH 12 0
BBX 12 12 0 -2
BITMAP
0000
ffe0
8020
bfa0
0c40
5240
e780
1b00
7680
1a40
6200
0c00
ENDCHAR
STARTCHAR U51A4
ENCODING 20900
SWIDTH 960 0
DWIDTH 12 0
BBX 12 12 0 -2
BITMAP
0000
fff0
8410
1f00
e200
7fc0
4440
4440
7fc0
0b00
32a0
c1e0
ENDCHAR
STARTCHAR U51A5
ENCODING 20901
SWIDTH 960 0
DWIDTH 12 0
BBX 12 12 0 -2
BITMAP
0000
ffe0
8020
bfa0
2080
3f80
2080
3f80
0400
ffe0
1180
6040
ENDCHAR
STARTCHAR U51A6
ENCODING 20902
SWIDTH 960 0
DWIDTH 12 0
BBX 12 12 0 -2
BITMAP
0000
ffe0
8120
79c0
0100
ffc0
5440
5280
5180
5240
9420
8fe0
ENDCHAR
STARTCHAR U51A8
ENCODING 20904
SWIDTH 960 0
DWIDTH 12 0
BBX 12 12 0 -2
BITMAP
0000
ffe0
8020
bfa0
0000
3f80
2080
7fc0
4440
7fc0
4440
7fc0
ENDCHAR
STARTCHAR U51A9
ENCODING 20905
SWIDTH 960 0
DWIDTH 12 0
BBX 12 12 0 -2
BITMAP
0000
ffe0
8820
b9a0
2080
3b80
2080
3f80
0800
3fe0
d520
20c0
ENDCHAR
STARTCHAR U51AA
ENCODING 20906
SWIDTH 960 0
DWIDTH 12 0
BBX 12 12 0 -2
BITMAP
0000
ffe0
9220
ffe0
2100
3f00
2100
ffe0
2900
7f80
a960
2b00
ENDCHAR
STARTCHAR U51AB
ENCODING 20907
SWIDTH 960 0
DWIDTH 12 0
BBX 12 12 0 -2
BITMAP
0800
0400
0400
0000
0100
0200
0400
0400
0800
0800
0800
0000
ENDCHAR
STARTCHAR U51AC
ENCODING 20908
SWIDTH 960 0
DWIDTH 12 0
BBX 12 12 0 -2
BITMAP
0400
0f80
1080
2900
c600
0a00
3180
cc60
0200
1800
0600
0100
ENDCHAR
STARTCHAR U51B0
ENCODING 20912
SWIDTH 960 0
DWIDTH 12 0
BBX 12 12 0 -2
BITMAP
0100
8100
4100
4110
1d20
05c0
0580
2940
4920
5110
8100
8300
ENDCHAR
STARTCHAR U51B1
ENCODING 20913
SWIDTH 960 0
DWIDTH 12 0
BBX 12 12 0 -2
BITMAP
0000
9fe0
4400
4400
07c0
0440
0840
2880
4f80
4880
8080
9ff0
ENDCHAR
STARTCHAR U51B2
ENCODING 20914
SWIDTH 960 0
DWIDTH 12 0
BBX 12 12 0 -2
BITMAP
0100
8100
4100
4ff0
0910
0910
0910
2ff0
4900
4100
8100
8100
ENDCHAR
STARTCHAR U51B3
ENCODING 20915
SWIDTH 960 0
DWIDTH 12 0
BBX 12 12 0 -2
BITMAP
0100
8100
4fe0
4120
0120
0120
3ff0
4100
4100
8280
8440
1830
ENDCHAR
STARTCHAR U51B4
ENCODING 20916
SWIDTH 960 0
DWIDTH 12 0
BBX 12 12 0 -2
BITMAP
0000
8fe0
4480
4480
0480
1fe0
0180
2180
4280
4c80
b080
8180
ENDCHAR
STARTCHAR U51B5
ENCODING 20917
SWIDTH 960 0
DWIDTH 12 0
BBX 12 12 0 -2
BITMAP
0000
8fc0
4840
4840
0840
0fc0
2500
4500
4500
8920
9120
20e0
ENDCHAR
STARTCHAR U51B6
ENCODING 20918
SWIDTH 960 0
DWIDTH 12 0
BBX 12 12 0 -2
BITMAP
0200
8200
4280
4440
09e0
1e20
0000
2fc0
4840
4840
8840
8fc0
ENDCHAR
STARTCHAR U51B7
ENCODING 20919
SWIDTH 960 0
DWIDTH 12 0
BBX 12 12 0 -2
BITMAP
0200
8200
4500
4980
1fc0
2020
0fc0
2240
4240
4380
8200
8200
ENDCHAR
STARTCHAR U51BD
ENCODING 20925
SWIDTH 960 0
DWIDTH 12 0
BBX 12 12 0 -2
BITMAP
0020
9ea0
48a0
48a0
1ea0
12a0
1aa0
66a0
44a0
8420
8820
1060
ENDCHAR
STARTCHAR U51C4
ENCODING 20932
SWIDTH 960 0
DWIDTH 12 0
BBX 12 12 0 -2
BITMAP
0200
9fe0
4200
4fc0
0240
1fe0
2240
5fe0
4480
8e80
8380
1c40
ENDCHAR
STARTCHAR U51C5
ENCODING 20933
SWIDTH 960 0
DWIDTH 12 0
BBX 12 12 0 -2
BITMAP
0000
9fe0
5220
5fe0
1220
1220
3fa0
58a0
58a0
9fa0
9020
1fe0
ENDCHAR
STARTCHAR U51C6
ENCODING 20934
SWIDTH 960 0
DWIDTH 12 0
BBX 12 12 0 -2
BITMAP
0440
8480
4fe0
4900
1900
2fc0
2900
4900
4fc0
8900
8900
0fe0
ENDCHAR
STARTCHAR U51C9
ENCODING 20937
SWIDTH 960 0
DWIDTH 12 0
BBX 12 12 0 -2
BITMAP
0200
9fe0
4000
4fc0
0840
0840
2fc0
4200
4a80
8a40
9240
0600
ENDCHAR
STARTCHAR U51CB
ENCODING 20939
SWIDTH 960 0
DWIDTH 12 0
BBX 12 12 0 -2
BITMAP
0000
8fe0
4920
4ba0
0920
0fe0
2820
4ba0
4aa0
8ba0
9020
2060
ENDCHAR
STARTCHAR U51CC
ENCODING 20940
SWIDTH 960 0
DWIDTH 12 0
BBX 12 12 0 -2
BITMAP
0200
9fc0
4200
5fe0
0500
39e0
0400
4780
5880
8700
8d80
b060
ENDCHAR
STARTCHAR U51CD
ENCODING 20941
SWIDTH 960 0
DWIDTH 12 0
BBX 12 12 0 -2
BITMAP
0200
9fe0
4200
4fc0
0a40
0fc0
2a40
4fc0
4700
8ac0
b220
0200
ENDCHAR
STARTCHAR U51D6
ENCODING 20950
SWIDTH 960 0
DWIDTH 12 0
BBX 12 12 0 -2
BITMAP
0480
8500
4fe0
1900
0fc0
4900
8fe0
8400
0400
ffe0
0400
0400
ENDCHAR
STARTCHAR U51DB
ENCODING 20955
SWIDTH 960 0
DWIDTH 12 0
BBX 12 12 0 -2
BITMAP
0100
9ff0
4aa0
4ba0
0820
0fe0
27c0
4000
5ff0
8920
9110
0300
ENDCHAR
STARTCHAR U51DC
ENCODING 20956
SWIDTH 960 0
DWIDTH 12 0
BBX 12 12 0 -2
BITMAP
0200
bfe0
5040
1740
1540
1fc0
0180
2e00
5fe0
4a80
9240
8200
ENDCHAR
STARTCHAR U51DD
ENCODING 20957
SWIDTH 960 0
DWIDTH 12 0
BBX 12 12 0 -2
BITMAP
23e0
2420
b940
6480
1fe0
10a0
1e80
6ae0
5e80
8a80
9580
2460
ENDCHAR
STARTCHAR U51E0
ENCODING 20960
SWIDTH 960 0
DWIDTH 12 0
BBX 12 12 0 -2
BITMAP
1f00
1100
1100
1100
1100
1100
1100
1100
2100
2120
4120
80e0
ENDCHAR
STARTCHAR U51E1
ENCODING 20961
SWIDTH 960 0
DWIDTH 12 0
BBX 12 12 0 -2
BITMAP
0000
1f00
1100
1100
1100
1900
1500
1500
1100
2120
2120
40e0
ENDCHAR
STARTCHAR U51E6
ENCODING 20966
SWIDTH 960 0
DWIDTH 12 0
BBX 12 12 0 -2
BITMAP
2000
2380
3a80
2a80
4a80
4a80
aaa0
12a0
1460
2800
4600
81f0
ENDCHAR
STARTCHAR U51E7
ENCODING 20967
SWIDTH 960 0
DWIDTH 12 0
BBX 12 12 0 -2
BITMAP
0000
7fc0
4440
4440
5f40
5540
5540
5540
5540
5750
8430
8410
ENDCHAR
STARTCHAR U51E9
ENCODING 20969
SWIDTH 960 0
DWIDTH 12 0
BBX 12 12 0 -2
BITMAP
0000
7fc0
4440
4440
7fc0
4440
4e40
4d40
54c0
6450
8430
8410
ENDCHAR
STARTCHAR U51EA
ENCODING 20970
SWIDTH 960 0
DWIDTH 12 0
BBX 12 12 0 -2
BITMAP
0000
7fc0
4440
4440
5440
5740
5440
5440
5450
7fb0
4030
8010
ENDCHAR
STARTCHAR U51ED
ENCODING 20973
SWIDTH 960 0
DWIDTH 12 0
BBX 12 12 0 -2
BITMAP
20c0
2f00
4100
dfe0
4100
4fc0
4000
1f00
1100
1120
2120
40e0
ENDCHAR
STARTCHAR U51F0
ENCODING 20976
SWIDTH 960 0
DWIDTH 12 0
BBX 12 12 0 -2
BITMAP
0000
7fc0
4440
5f40
5140
5f40
5140
5f40
4440
5f50
8430
bf90
ENDCHAR
STARTCHAR U51F1
ENCODING 20977
SWIDTH 960 0
DWIDTH 12 0
BBX 12 12 0 -2
BITMAP
2000
abc0
fa40
0240
fa40
0240
fa40
8a40
fa40
5240
7c40
c870
ENDCHAR
STARTCHAR U51F5
ENCODING 20981
SWIDTH 960 0
DWIDTH 12 0
BBX 12 12 0 -2
BITMAP
4020
4020
4020
4020
4020
4020
4020
4020
4020
4020
7fe0
4020
ENDCHAR
STARTCHAR U51F6
ENCODING 20982
SWIDTH 960 0
DWIDTH 12 0
BBX 12 12 0 -2
BITMAP
0080
40a0
50a0
4920
4520
4220
4520
48a0
70a0
4020
7fe0
4000
ENDCHAR
STARTCHAR U51F8
ENCODING 20984
SWIDTH 960 0
DWIDTH 12 0
BBX 12 12 0 -2
BITMAP
0000
1f00
1100
1100
1100
f1e0
8020
8020
8020
8020
ffe0
0000
ENDCHAR
STARTCHAR U51F9
ENCODING 20985
SWIDTH 960 0
DWIDTH 12 0
BBX 12 12 0 -2
BITMAP
0000
f1e0
9120
9120
9120
9120
9f20
8020
8020
8020
ffe0
0000
ENDCHAR
STARTCHAR U51FA
ENCODING 20986
SWIDTH 960 0
DWIDTH 12 0
BBX 12 12 0 -2
BITMAP
0400
0400
2480
2480
2480
3f80
0400
4440
4440
4440
4440
7fc0
ENDCHAR
STARTCHAR U51FD
ENCODING 20989
SWIDTH 960 0
DWIDTH 12 0
BBX 12 12 0 -2
BITMAP
0000
7fc0
0400
8420
8ea0
a2a0
9720
8aa0
b260
8620
8020
ffe0
ENDCHAR
STARTCHAR U51FE
ENCODING 20990
SWIDTH 960 0
DWIDTH 12 0
BBX 12 12 0 -2
BITMAP
0000
1f80
0100
8620
8420
bfe0
ad60
aca0
bd60
8620
8c20
ffe0
ENDCHAR
STARTCHAR U5200
ENCODING 20992
SWIDTH 960 0
DWIDTH 12 0
BBX 12 12 0 -2
BITMAP
0000
7fe0
0220
0220
0220
0220
0420
0420
0820
0820
1020
20c0
ENDCHAR
STARTCHAR U5203
ENCODING 20995
SWIDTH 960 0
DWIDTH 12 0
BBX 12 12 0 -2
BITMAP
0000
7fe0
0420
0420
0420
1c20
0620
0520
0820
0820
1020
20c0
ENDCHAR
STARTCHAR U5204
ENCODING 20996
SWIDTH 960 0
DWIDTH 12 0
BBX 12 12 0 -2
BITMAP
0000
7fc0
0440
0440
4440
2440
1440
0840
0e40
11e0
2040
4180
ENDCHAR
STARTCHAR U5206
ENCODING 20998
SWIDTH 960 0
DWIDTH 12 0
BBX 12 12 0 -2
BITMAP
0900
0900
0880
1080
2040
5fa0
8490
0480
0480
0880
1080
2300
ENDCHAR
STARTCHAR U5207
ENCODING 20999
SWIDTH 960 0
DWIDTH 12 0
BBX 12 12 0 -2
BITMAP
0000
4fe0
4120
4d20
f120
4120
4120
4920
3a20
0220
0420
18c0
ENDCHAR
STARTCHAR U5208
ENCODING 21000
SWIDTH 960 0
DWIDTH 12 0
BBX 12 12 0 -2
BITMAP
0020
0520
0520
0520
c920
2920
1120
1920
2520
2420
4020
8060
ENDCHAR
STARTCHAR U520A
ENCODING 21002
SWIDTH 960 0
DWIDTH 12 0
BBX 12 12 0 -2
BITMAP
0020
7d20
1120
1120
1120
fd20
1120
1120
1120
1020
1020
1060
ENDCHAR
STARTCHAR U520B
ENCODING 21003
SWIDTH 960 0
DWIDTH 12 0
BBX 12 12 0 -2
BITMAP
1c20
f120
1120
1120
1120
ff20
1120
1120
1120
1020
2020
4060
ENDCHAR
STARTCHAR U520E
ENCODING 21006
SWIDTH 960 0
DWIDTH 12 0
BBX 12 12 0 -2
BITMAP
2020
20a0
7ea0
56a0
96a0
26a0
2aa0
4aa0
92a0
2220
4220
0c60
ENDCHAR
STARTCHAR U5211
ENCODING 21009
SWIDTH 960 0
DWIDTH 12 0
BBX 12 12 0 -2
BITMAP
0020
fd20
4920
4920
4920
ff20
4920
4920
4920
4820
4820
8860
ENDCHAR
STARTCHAR U5214
ENCODING 21012
SWIDTH 960 0
DWIDTH 12 0
BBX 12 12 0 -2
BITMAP
2020
2120
7d20
2520
2520
2520
ff20
2120
3120
2820
4820
8060
ENDCHAR
STARTCHAR U5217
ENCODING 21015
SWIDTH 960 0
DWIDTH 12 0
BBX 12 12 0 -2
BITMAP
0020
fd20
2120
2120
3d20
4520
6520
9920
0920
1020
2020
4060
ENDCHAR
STARTCHAR U521D
ENCODING 21021
SWIDTH 960 0
DWIDTH 12 0
BBX 12 12 0 -2
BITMAP
2000
27e0
f920
0920
1120
2520
3920
6920
a620
2220
2420
28c0
ENDCHAR
STARTCHAR U5224
ENCODING 21028
SWIDTH 960 0
DWIDTH 12 0
BBX 12 12 0 -2
BITMAP
1020
9520
5520
5920
7d20
1120
1120
ff20
1120
1020
1020
1060
ENDCHAR
STARTCHAR U5225
ENCODING 21029
SWIDTH 960 0
DWIDTH 12 0
BBX 12 12 0 -2
BITMAP
0020
7d20
4520
4520
7d20
2120
3d20
2520
2520
2420
4420
9860
ENDCHAR
STARTCHAR U5227
ENCODING 21031
SWIDTH 960 0
DWIDTH 12 0
BBX 12 12 0 -2
BITMAP
2000
27e0
f920
2120
2120
fd20
2120
2120
5120
4a20
fa20
04c0
ENDCHAR
STARTCHAR U5229
ENCODING 21033
SWIDTH 960 0
DWIDTH 12 0
BBX 12 12 0 -2
BITMAP
0c20
7120
1120
1120
fd20
3120
3920
5520
5020
9020
1020
1060
ENDCHAR
STARTCHAR U522A
ENCODING 21034
SWIDTH 960 0
DWIDTH 12 0
BBX 12 12 0 -2
BITMAP
0020
fea0
aaa0
aaa0
aaa0
ffa0
aaa0
aaa0
aaa0
aa20
aa20
8660
ENDCHAR
STARTCHAR U522E
ENCODING 21038
SWIDTH 960 0
DWIDTH 12 0
BBX 12 12 0 -2
BITMAP
0620
7920
1120
1120
ff20
1120
1120
7d20
4520
4420
4420
7c60
ENDCHAR
STARTCHAR U5230
ENCODING 21040
SWIDTH 960 0
DWIDTH 12 0
BBX 12 12 0 -2
BITMAP
0020
ff20
1120
2920
fd20
1320
1120
fd20
1120
1020
1e20
e060
ENDCHAR
STARTCHAR U5233
ENCODING 21043
SWIDTH 960 0
DWIDTH 12 0
BBX 12 12 0 -2
BITMAP
1020
fea0
28a0
44a0
baa0
00a0
fea0
20a0
3ca0
4420
0420
1860
ENDCHAR
STARTCHAR U5236
ENCODING 21046
SWIDTH 960 0
DWIDTH 12 0
BBX 12 12 0 -2
BITMAP
5020
5120
7d20
9120
ff20
1120
7d20
5520
5520
5520
5820
1060
ENDCHAR
STARTCHAR U5237
ENCODING 21047
SWIDTH 960 0
DWIDTH 12 0
BBX 12 12 0 -2
BITMAP
7c20
4520
4520
7d20
5120
7d20
5520
5520
d520
d420
5c20
1060
ENDCHAR
STARTCHAR U5238
ENCODING 21048
SWIDTH 960 0
DWIDTH 12 0
BBX 12 12 0 -2
BITMAP
2480
1480
1500
7fc0
0a00
ffe0
1100
3f80
c960
0900
1100
2600
ENDCHAR
STARTCHAR U5239
ENCODING 21049
SWIDTH 960 0
DWIDTH 12 0
BBX 12 12 0 -2
BITMAP
0420
6920
1120
2920
c520
1120
ff20
1920
3520
5020
9020
1060
ENDCHAR
STARTCHAR U523A
ENCODING 21050
SWIDTH 960 0
DWIDTH 12 0
BBX 12 12 0 -2
BITMAP
1020
ff20
1120
7d20
5520
5520
5520
3920
5520
9020
1020
1060
ENDCHAR
STARTCHAR U523B
ENCODING 21051
SWIDTH 960 0
DWIDTH 12 0
BBX 12 12 0 -2
BITMAP
1020
1120
ff20
1120
2920
6920
1520
2520
4820
1820
2420
c060
ENDCHAR
STARTCHAR U5243
ENCODING 21059
SWIDTH 960 0
DWIDTH 12 0
BBX 12 12 0 -2
BITMAP
4420
2920
fd20
1520
7d20
9120
fd20
1520
3520
5c20
9020
1060
ENDCHAR
STARTCHAR U5244
ENCODING 21060
SWIDTH 960 0
DWIDTH 12 0
BBX 12 12 0 -2
BITMAP
0020
ff20
5520
5520
a920
5520
5520
0120
fd20
1020
1e20
f060
ENDCHAR
STARTCHAR U5247
ENCODING 21063
SWIDTH 960 0
DWIDTH 12 0
BBX 12 12 0 -2
BITMAP
0020
7920
4920
7920
4920
7920
4920
4920
7920
2820
4420
8060
ENDCHAR
STARTCHAR U524A
ENCODING 21066
SWIDTH 960 0
DWIDTH 12 0
BBX 12 12 0 -2
BITMAP
1020
9520
5920
7d20
4520
7d20
4520
7d20
4520
4420
4420
4c60
ENDCHAR
STARTCHAR U524B
ENCODING 21067
SWIDTH 960 0
DWIDTH 12 0
BBX 12 12 0 -2
BITMAP
1020
fd20
1120
7d20
4520
4520
7d20
2920
2820
4860
4810
87f0
ENDCHAR
STARTCHAR U524C
ENCODING 21068
SWIDTH 960 0
DWIDTH 12 0
BBX 12 12 0 -2
BITMAP
1020
1120
ff20
1120
fd20
9520
9520
fd20
3920
5420
9020
1060
ENDCHAR
STARTCHAR U524D
ENCODING 21069
SWIDTH 960 0
DWIDTH 12 0
BBX 12 12 0 -2
BITMAP
2100
1200
ffe0
0000
7a40
4a40
7a40
4a40
7a40
4a40
4840
58c0
ENDCHAR
STARTCHAR U524F
ENCODING 21071
SWIDTH 960 0
DWIDTH 12 0
BBX 12 12 0 -2
BITMAP
8800
4be0
50a0
f8a0
52a0
51a0
fce0
50b0
5120
5120
9220
94c0
ENDCHAR
STARTCHAR U5254
ENCODING 21076
SWIDTH 960 0
DWIDTH 12 0
BBX 12 12 0 -2
BITMAP
0020
7ca0
44a0
7ca0
44a0
7ca0
20a0
7ea0
aaa0
4a20
9220
2c60
ENDCHAR
STARTCHAR U5256
ENCODING 21078
SWIDTH 960 0
DWIDTH 12 0
BBX 12 12 0 -2
BITMAP
1020
1120
ff20
4520
2920
ff20
0120
7d20
4520
4420
7c20
4060
ENDCHAR
STARTCHAR U525B
ENCODING 21083
SWIDTH 960 0
DWIDTH 12 0
BBX 12 12 0 -2
BITMAP
0020
fea0
82a0
c6a0
aaa0
fea0
92a0
d6a0
d6a0
fe20
8220
8660
ENDCHAR
STARTCHAR U525E
ENCODING 21086
SWIDTH 960 0
DWIDTH 12 0
BBX 12 12 0 -2
BITMAP
1020
ff20
1120
2920
4520
ff20
0520
7520
5520
7420
0420
0c60
ENDCHAR
STARTCHAR U5263
ENCODING 21091
SWIDTH 960 0
DWIDTH 12 0
BBX 12 12 0 -2
BITMAP
1020
2920
4520
bb20
1120
7d20
5520
7d20
1920
1420
2220
c060
ENDCHAR
STARTCHAR U5264
ENCODING 21092
SWIDTH 960 0
DWIDTH 12 0
BBX 12 12 0 -2
BITMAP
1020
ff20
4520
3920
2920
c720
7d20
4520
7d20
4420
4420
8c60
ENDCHAR
STARTCHAR U5265
ENCODING 21093
SWIDTH 960 0
DWIDTH 12 0
BBX 12 12 0 -2
BITMAP
7820
0920
3920
0920
ff20
1320
5520
3920
5820
9620
1020
3060
ENDCHAR
STARTCHAR U5269
ENCODING 21097
SWIDTH 960 0
DWIDTH 12 0
BBX 12 12 0 -2
BITMAP
0c20
70a0
10a0
ffa0
54a0
d6a0
54a0
d6a0
38a0
5420
9020
1060
ENDCHAR
STARTCHAR U526A
ENCODING 21098
SWIDTH 960 0
DWIDTH 12 0
BBX 12 12 0 -2
BITMAP
2080
1100
ffe0
6a40
5a40
6a40
5a40
48c0
ffc0
0440
1840
e180
ENDCHAR
STARTCHAR U526F
ENCODING 21103
SWIDTH 960 0
DWIDTH 12 0
BBX 12 12 0 -2
BITMAP
0020
fd20
0120
7d20
4520
7d20
0120
fd20
9520
fc20
9420
fc60
ENDCHAR
STARTCHAR U5270
ENCODING 21104
SWIDTH 960 0
DWIDTH 12 0
BBX 12 12 0 -2
BITMAP
0c20
7120
1120
ff20
5520
ff20
5520
ff20
3920
5420
9220
1060
ENDCHAR
STARTCHAR U5271
ENCODING 21105
SWIDTH 960 0
DWIDTH 12 0
BBX 12 12 0 -2
BITMAP
2000
37e0
4920
f520
2120
fb20
a9a0
f970
3220
2a20
4420
88c0
ENDCHAR
STARTCHAR U5272
ENCODING 21106
SWIDTH 960 0
DWIDTH 12 0
BBX 12 12 0 -2
BITMAP
1020
ff20
9320
7d20
1120
7d20
1120
ff20
0120
7c20
4420
7c60
ENDCHAR
STARTCHAR U5273
ENCODING 21107
SWIDTH 960 0
DWIDTH 12 0
BBX 12 12 0 -2
BITMAP
4420
fea0
44a0
10a0
28a0
44a0
bea0
00a0
7ca0
4420
4420
7c60
ENDCHAR
STARTCHAR U5274
ENCODING 21108
SWIDTH 960 0
DWIDTH 12 0
BBX 12 12 0 -2
BITMAP
1020
5520
7d20
0120
ff20
0120
7d20
4520
7d20
4820
3c20
e060
ENDCHAR
STARTCHAR U5275
ENCODING 21109
SWIDTH 960 0
DWIDTH 12 0
BBX 12 12 0 -2
BITMAP
1020
2820
4520
fd20
4520
7d20
4520
7d20
4120
bc20
a420
3c60
ENDCHAR
STARTCHAR U527D
ENCODING 21117
SWIDTH 960 0
DWIDTH 12 0
BBX 12 12 0 -2
BITMAP
ff20
28a0
fea0
aaa0
fea0
00a0
7ca0
00a0
fea0
5420
9220
3060
ENDCHAR
STARTCHAR U527F
ENCODING 21119
SWIDTH 960 0
DWIDTH 12 0
BBX 12 12 0 -2
BITMAP
5420
a920
5520
7d20
5520
7d20
5520
ff20
3920
5420
9220
1060
ENDCHAR
STARTCHAR U5283
ENCODING 21123
SWIDTH 960 0
DWIDTH 12 0
BBX 12 12 0 -2
BITMAP
1020
7d20
1520
ff20
1520
ff20
5520
7d20
5520
7c20
1e20
e060
ENDCHAR
STARTCHAR U5287
ENCODING 21127
SWIDTH 960 0
DWIDTH 12 0
BBX 12 12 0 -2
BITMAP
1c20
1120
7d20
6520
7920
4120
7d20
5320
6d20
5c20
aa20
1060
ENDCHAR
STARTCHAR U5288
ENCODING 21128
SWIDTH 960 0
DWIDTH 12 0
BBX 12 12 0 -2
BITMAP
7880
4fe0
7940
4140
7fe0
c880
7be0
0080
7fe0
0820
1020
61c0
ENDCHAR
STARTCHAR U5289
ENCODING 21129
SWIDTH 960 0
DWIDTH 12 0
BBX 12 12 0 -2
BITMAP
2020
de20
ab20
ab20
f520
2920
fd20
1120
fd20
9020
5c20
f060
ENDCHAR
STARTCHAR U528D
ENCODING 21133
SWIDTH 960 0
DWIDTH 12 0
BBX 12 12 0 -2
BITMAP
2020
3120
4920
b520
0120
fd20
b520
fd20
4920
6d20
b220
9060
ENDCHAR
STARTCHAR U5291
ENCODING 21137
SWIDTH 960 0
DWIDTH 12 0
BBX 12 12 0 -2
BITMAP
1020
fea0
28a0
f7a0
56a0
b5a0
44a0
7ca0
44a0
7c20
4420
8460
ENDCHAR
STARTCHAR U5292
ENCODING 21138
SWIDTH 960 0
DWIDTH 12 0
BBX 12 12 0 -2
BITMAP
2000
37e0
48a0
f4a0
01a0
fda0
b6a0
fd20
5120
5a20
a420
88c0
ENDCHAR
STARTCHAR U5294
ENCODING 21140
SWIDTH 960 0
DWIDTH 12 0
BBX 12 12 0 -2
BITMAP
2000
37e0
48a0
f6a0
02a0
fda0
b4a0
fd60
5130
5a20
a420
88c0
ENDCHAR
STARTCHAR U529B
ENCODING 21147
SWIDTH 960 0
DWIDTH 12 0
BBX 12 12 0 -2
BITMAP
0400
0400
0400
7fc0
0440
0440
0440
0840
0840
1040
2040
4180
ENDCHAR
STARTCHAR U529F
ENCODING 21151
SWIDTH 960 0
DWIDTH 12 0
BBX 12 12 0 -2
BITMAP
0100
0100
f100
2fe0
2120
2120
2120
2920
3220
c220
0420
08c0
ENDCHAR
STARTCHAR U52A0
ENCODING 21152
SWIDTH 960 0
DWIDTH 12 0
BBX 12 12 0 -2
BITMAP
2000
2000
21e0
fd20
2520
2520
2520
2520
2520
4520
45e0
9800
ENDCHAR
STARTCHAR U52A3
ENCODING 21155
SWIDTH 960 0
DWIDTH 12 0
BBX 12 12 0 -2
BITMAP
0400
2480
2440
4d20
8620
1800
e400
7fc0
0440
0840
1040
6180
ENDCHAR
STARTCHAR U52A9
ENCODING 21161
SWIDTH 960 0
DWIDTH 12 0
BBX 12 12 0 -2
BITMAP
0100
7900
4900
4fe0
7920
4920
4920
7920
4920
5e20
e220
04c0
ENDCHAR
STARTCHAR U52AA
ENCODING 21162
SWIDTH 960 0
DWIDTH 12 0
BBX 12 12 0 -2
BITMAP
1000
fbc0
2840
4a80
3100
2e80
c460
7fc0
0440
0440
1840
6180
ENDCHAR
STARTCHAR U52AB
ENCODING 21163
SWIDTH 960 0
DWIDTH 12 0
BBX 12 12 0 -2
BITMAP
1080
1080
7c80
13e0
10a0
fea0
10a0
1120
2920
3d20
c220
04c0
ENDCHAR
STARTCHAR U52AC
ENCODING 21164
SWIDTH 960 0
DWIDTH 12 0
BBX 12 12 0 -2
BITMAP
2100
2100
3d00
47e0
4520
f520
5520
5520
7520
0620
0420
18c0
ENDCHAR
STARTCHAR U52AD
ENCODING 21165
SWIDTH 960 0
DWIDTH 12 0
BBX 12 12 0 -2
BITMAP
0100
f900
2900
2fe0
4920
5920
8120
7920
4a20
4a20
4c20
78c0
ENDCHAR
STARTCHAR U52B1
ENCODING 21169
SWIDTH 960 0
DWIDTH 12 0
BBX 12 12 0 -2
BITMAP
0c80
7080
4080
7fe0
50a0
5ca0
54a0
54a0
5520
5520
a620
ccc0
ENDCHAR
STARTCHAR U52B4
ENCODING 21172
SWIDTH 960 0
DWIDTH 12 0
BBX 12 12 0 -2
BITMAP
4840
2440
1480
ffe0
8820
8820
7f80
0880
0880
1080
2080
4300
ENDCHAR
STARTCHAR U52B5
ENCODING 21173
SWIDTH 960 0
DWIDTH 12 0
BBX 12 12 0 -2
BITMAP
0400
1500
1480
3fc0
0a00
ffe0
1100
2880
ff60
0900
1100
2600
ENDCHAR
STARTCHAR U52B9
ENCODING 21177
SWIDTH 960 0
DWIDTH 12 0
BBX 12 12 0 -2
BITMAP
1100
1100
fd00
2fe0
4920
8d20
2920
1120
1220
2a20
4420
88c0
ENDCHAR
STARTCHAR U52BC
ENCODING 21180
SWIDTH 960 0
DWIDTH 12 0
BBX 12 12 0 -2
BITMAP
2100
2100
fd00
27e0
2120
f920
0120
7920
4a20
4a20
4c20
78c0
ENDCHAR
STARTCHAR U52BE
ENCODING 21182
SWIDTH 960 0
DWIDTH 12 0
BBX 12 12 0 -2
BITMAP
1100
1100
fd00
27e0
5120
d120
2920
4920
9220
2a20
4420
88c0
ENDCHAR
STARTCHAR U52C1
ENCODING 21185
SWIDTH 960 0
DWIDTH 12 0
BBX 12 12 0 -2
BITMAP
0100
fd00
5500
57e0
a920
5520
0120
fd20
1120
1220
1a20
e4c0
ENDCHAR
STARTCHAR U52C3
ENCODING 21187
SWIDTH 960 0
DWIDTH 12 0
BBX 12 12 0 -2
BITMAP
2100
fd00
2100
ffe0
8520
7920
1120
1d20
f120
1220
1220
34c0
ENDCHAR
STARTCHAR U52C5
ENCODING 21189
SWIDTH 960 0
DWIDTH 12 0
BBX 12 12 0 -2
BITMAP
1100
7d00
1100
7fe0
5520
5520
7d20
3920
3520
5220
9220
14c0
ENDCHAR
STARTCHAR U52C7
ENCODING 21191
SWIDTH 960 0
DWIDTH 12 0
BBX 12 12 0 -2
BITMAP
3f80
0900
3fc0
2440
3fc0
2440
3fc0
0400
7fe0
0820
3020
c0c0
ENDCHAR
STARTCHAR U52C9
ENCODING 21193
SWIDTH 960 0
DWIDTH 12 0
BBX 12 12 0 -2
BITMAP
2080
3c80
4880
ffe0
54a0
54a0
7ca0
1920
2920
2ac0
4810
87f0
ENDCHAR
STARTCHAR U52CD
ENCODING 21197
SWIDTH 960 0
DWIDTH 12 0
BBX 12 12 0 -2
BITMAP
1100
fd00
0100
7fe0
4920
4920
7920
1120
5920
5620
9220
34c0
ENDCHAR
STARTCHAR U52D2
ENCODING 21202
SWIDTH 960 0
DWIDTH 12 0
BBX 12 12 0 -2
BITMAP
5100
f900
5100
77e0
2120
f920
a920
f920
2220
fa20
2420
28c0
ENDCHAR
STARTCHAR U52D5
ENCODING 21205
SWIDTH 960 0
DWIDTH 12 0
BBX 12 12 0 -2
BITMAP
1d00
f100
13e0
fd20
5520
7d20
5520
7d20
1120
7a20
1e20
e4c0
ENDCHAR
STARTCHAR U52D7
ENCODING 21207
SWIDTH 960 0
DWIDTH 12 0
BBX 12 12 0 -2
BITMAP
3f80
2080
3f80
2080
3f80
7900
4fe0
7920
4920
7920
5a20
e4c0
ENDCHAR
STARTCHAR U52D8
ENCODING 21208
SWIDTH 960 0
DWIDTH 12 0
BBX 12 12 0 -2
BITMAP
4900
fd00
4900
7fe0
4920
7920
4920
fd20
a920
cd20
8220
7cc0
ENDCHAR
STARTCHAR U52D9
ENCODING 21209
SWIDTH 960 0
DWIDTH 12 0
BBX 12 12 0 -2
BITMAP
0200
fbe0
0c80
5280
2180
fe60
2900
2fc0
6140
a240
2440
6980
ENDCHAR
STARTCHAR U52DD
ENCODING 21213
SWIDTH 960 0
DWIDTH 12 0
BBX 12 12 0 -2
BITMAP
0100
7540
5fe0
5100
7fe0
5280
5540
7fe0
5250
5240
5440
b980
ENDCHAR
STARTCHAR U52DE
ENCODING 21214
SWIDTH 960 0
DWIDTH 12 0
BBX 12 12 0 -2
BITMAP
1100
5540
2a80
4440
ffe0
8820
0800
7fc0
0840
0840
1040
6180
ENDCHAR
STARTCHAR U52DF
ENCODING 21215
SWIDTH 960 0
DWIDTH 12 0
BBX 12 12 0 -2
BITMAP
1100
ffe0
1100
3f80
2080
3f80
2080
ffe0
2480
7fc0
88a0
3300
ENDCHAR
STARTCHAR U52E0
ENCODING 21216
SWIDTH 960 0
DWIDTH 12 0
BBX 12 12 0 -2
BITMAP
ee80
6680
aa80
67e0
aaa0
10a0
28a0
c4a0
3120
c920
3220
c4c0
ENDCHAR
STARTCHAR U52E2
ENCODING 21218
SWIDTH 960 0
DWIDTH 12 0
BBX 12 12 0 -2
BITMAP
1100
7900
17c0
fd40
5bc0
9560
7e20
0400
7fc0
0440
0840
3180
ENDCHAR
STARTCHAR U52E3
ENCODING 21219
SWIDTH 960 0
DWIDTH 12 0
BBX 12 12 0 -2
BITMAP
2100
f900
2100
7fe0
2120
fd20
4920
7920
4920
7a20
2a20
c4c0
ENDCHAR
STARTCHAR U52E4
ENCODING 21220
SWIDTH 960 0
DWIDTH 12 0
BBX 12 12 0 -2
BITMAP
2900
fd00
2900
7fe0
5520
7d20
1120
7d20
1120
7920
1e20
f4c0
ENDCHAR
STARTCHAR U52E6
ENCODING 21222
SWIDTH 960 0
DWIDTH 12 0
BBX 12 12 0 -2
BITMAP
5500
a900
5500
7fe0
5520
7d20
5520
7d20
1920
3520
5220
94c0
ENDCHAR
STARTCHAR U52E7
ENCODING 21223
SWIDTH 960 0
DWIDTH 12 0
BBX 12 12 0 -2
BITMAP
4100
7d00
4900
7fe0
9120
7d20
d120
7d20
5120
7d20
5220
7cc0
ENDCHAR
STARTCHAR U52F2
ENCODING 21234
SWIDTH 960 0
DWIDTH 12 0
BBX 12 12 0 -2
BITMAP
7d00
1100
ffe0
5520
7d20
5520
7d20
1220
fcc0
4080
5240
8920
ENDCHAR
STARTCHAR U52F3
ENCODING 21235
SWIDTH 960 0
DWIDTH 12 0
BBX 12 12 0 -2
BITMAP
0d00
f100
1100
ffe0
d520
dd20
b520
fd20
1120
fe20
5a20
94c0
ENDCHAR
STARTCHAR U52F5
ENCODING 21237
SWIDTH 960 0
DWIDTH 12 0
BBX 12 12 0 -2
BITMAP
0080
7e80
5480
7fe0
7ea0
6aa0
7ea0
48a0
7ea0
ab20
be20
26c0
ENDCHAR
STARTCHAR U52F8
ENCODING 21240
SWIDTH 960 0
DWIDTH 12 0
BBX 12 12 0 -2
BITMAP
4880
fe80
4880
efe0
aaa0
eea0
50a0
fca0
5120
7d20
5220
7cc0
ENDCHAR
STARTCHAR U52F9
ENCODING 21241
SWIDTH 960 0
DWIDTH 12 0
BBX 12 12 0 -2
BITMAP
1000
1000
3fe0
2020
4020
8020
0020
0020
0020
0020
0040
0180
ENDCHAR
STARTCHAR U52FA
ENCODING 21242
SWIDTH 960 0
DWIDTH 12 0
BBX 12 12 0 -2
BITMAP
1000
1000
1fc0
2040
4040
9040
0840
0440
0440
0040
0040
0180
ENDCHAR
STARTCHAR U52FE
ENCODING 21246
SWIDTH 960 0
DWIDTH 12 0
BBX 12 12 0 -2
BITMAP
2000
2000
3fe0
2420
4420
4420
8a20
0920
17a0
78a0
0020
00c0
ENDCHAR
STARTCHAR U52FF
ENCODING 21247
SWIDTH 960 0
DWIDTH 12 0
BBX 12 12 0 -2
BITMAP
2000
2000
3fe0
2920
4920
8920
1120
1220
2220
4420
0820
10c0
ENDCHAR
STARTCHAR U5301
ENCODING 21249
SWIDTH 960 0
DWIDTH 12 0
BBX 12 12 0 -2
BITMAP
1000
1000
1fc0
1240
2240
5240
8c40
0640
09c0
1060
2040
0180
ENDCHAR
STARTCHAR U5302
ENCODING 21250
SWIDTH 960 0
DWIDTH 12 0
BBX 12 12 0 -2
BITMAP
1000
1000
1fe0
2020
3020
5320
9c20
1020
1120
0f20
0020
00c0
ENDCHAR
STARTCHAR U5305
ENCODING 21253
SWIDTH 960 0
DWIDTH 12 0
BBX 12 12 0 -2
BITMAP
1000
1000
1fc0
2040
de40
0240
0240
3e40
2080
2020
2020
1fe0
ENDCHAR
STARTCHAR U5306
ENCODING 21254
SWIDTH 960 0
DWIDTH 12 0
BBX 12 12 0 -2
BITMAP
1000
1000
3fe0
2920
4920
b920
1720
12a0
2220
4420
0840
0180
ENDCHAR
STARTCHAR U5308
ENCODING 21256
SWIDTH 960 0
DWIDTH 12 0
BBX 12 12 0 -2
BITMAP
1000
1000
3fe0
2020
4220
baa0
24a0
2aa0
30a0
3fa0
0040
0180
ENDCHAR
STARTCHAR U530D
ENCODING 21261
SWIDTH 960 0
DWIDTH 12 0
BBX 12 12 0 -2
BITMAP
1000
1fe0
2520
7fa0
8420
3fa0
24a0
3fa0
24a0
3fa0
24a0
01c0
ENDCHAR
STARTCHAR U530F
ENCODING 21263
SWIDTH 960 0
DWIDTH 12 0
BBX 12 12 0 -2
BITMAP
2100
2100
fbe0
2220
57a0
eaa0
faa0
23c0
3a00
4a20
0a20
31e0
ENDCHAR
STARTCHAR U5310
ENCODING 21264
SWIDTH 960 0
DWIDTH 12 0
BBX 12 12 0 -2
BITMAP
1000
1fe0
2020
7fa0
9f20
1120
3fa0
24a0
3fa0
24a0
3fa0
01c0
ENDCHAR
STARTCHAR U5315
ENCODING 21269
SWIDTH 960 0
DWIDTH 12 0
BBX 12 12 0 -2
BITMAP
2000
2000
2000
2100
2200
2400
3800
e000
2000
2040
2040
1fc0
ENDCHAR
STARTCHAR U5316
ENCODING 21270
SWIDTH 960 0
DWIDTH 12 0
BBX 12 12 0 -2
BITMAP
1200
1200
1240
2240
2280
6300
a200
2200
2200
2220
2220
21e0
ENDCHAR
STARTCHAR U5317
ENCODING 21271
SWIDTH 960 0
DWIDTH 12 0
BBX 12 12 0 -2
BITMAP
1200
1200
1200
1260
f380
1200
1200
1200
3200
d220
1220
11e0
ENDCHAR
STARTCHAR U5319
ENCODING 21273
SWIDTH 960 0
DWIDTH 12 0
BBX 12 12 0 -2
BITMAP
7a00
4a00
7a00
4a60
7b80
0200
fa00
1220
5e20
71e0
5c00
83f0
ENDCHAR
STARTCHAR U531A
ENCODING 21274
SWIDTH 960 0
DWIDTH 12 0
BBX 12 12 0 -2
BITMAP
0000
7ff0
4000
4000
4000
4000
4000
4000
4000
4000
7ff0
4000
ENDCHAR
STARTCHAR U531D
ENCODING 21277
SWIDTH 960 0
DWIDTH 12 0
BBX 12 12 0 -2
BITMAP
0000
7fe0
4200
4200
5fc0
5240
5240
5240
5280
4200
4200
7fe0
ENDCHAR
STARTCHAR U5320
ENCODING 21280
SWIDTH 960 0
DWIDTH 12 0
BBX 12 12 0 -2
BITMAP
0000
7fe0
4180
4e00
4800
4fc0
4900
4900
5100
6100
4100
7fe0
ENDCHAR
STARTCHAR U5321
ENCODING 21281
SWIDTH 960 0
DWIDTH 12 0
BBX 12 12 0 -2
BITMAP
0000
ffe0
8000
bfc0
8400
8400
9f80
8400
8400
bfc0
8000
ffe0
ENDCHAR
STARTCHAR U5323
ENCODING 21283
SWIDTH 960 0
DWIDTH 12 0
BBX 12 12 0 -2
BITMAP
0000
7fe0
4000
5fc0
5240
5fc0
5240
5fc0
4200
4200
4200
7fe0
ENDCHAR
STARTCHAR U532A
ENCODING 21290
SWIDTH 960 0
DWIDTH 12 0
BBX 12 12 0 -2
BITMAP
0000
ffe0
8a00
8a00
bbc0
8a00
bbc0
8a00
fbe0
9200
a200
ffe0
ENDCHAR
STARTCHAR U532F
ENCODING 21295
SWIDTH 960 0
DWIDTH 12 0
BBX 12 12 0 -2
BITMAP
0000
ffe0
a280
97e0
cd00
a7c0
8500
97c0
9500
a7e0
a000
ffe0
ENDCHAR
STARTCHAR U5331
ENCODING 21297
SWIDTH 960 0
DWIDTH 12 0
BBX 12 12 0 -2
BITMAP
0000
ffe0
8400
9f80
9480
ffe0
9080
9f80
9080
9f80
b040
ffe0
ENDCHAR
STARTCHAR U5333
ENCODING 21299
SWIDTH 960 0
DWIDTH 12 0
BBX 12 12 0 -2
BITMAP
0000
ffe0
8600
8900
b0c0
fb80
aa80
bb80
9100
9a80
a440
ffe0
ENDCHAR
STARTCHAR U5338
ENCODING 21304
SWIDTH 960 0
DWIDTH 12 0
BBX 12 12 0 -2
BITMAP
0000
ffe0
2000
2000
2000
2000
2000
2000
2000
2000
1000
0fc0
ENDCHAR
STARTCHAR U5339
ENCODING 21305
SWIDTH 960 0
DWIDTH 12 0
BBX 12 12 0 -2
BITMAP
0000
ffe0
9200
9200
9240
a240
c1c0
8000
8000
ffe0
8000
0000
ENDCHAR
STARTCHAR U533A
ENCODING 21306
SWIDTH 960 0
DWIDTH 12 0
BBX 12 12 0 -2
BITMAP
0000
7fe0
4080
4080
5900
4500
4200
4500
4880
5000
7fe0
4000
ENDCHAR
STARTCHAR U533B
ENCODING 21307
SWIDTH 960 0
DWIDTH 12 0
BBX 12 12 0 -2
BITMAP
0000
7fe0
4800
4f80
5200
6200
5fc0
4200
4500
4880
5000
7fe0
ENDCHAR
STARTCHAR U533F
ENCODING 21311
SWIDTH 960 0
DWIDTH 12 0
BBX 12 12 0 -2
BITMAP
0000
ffe0
8900
bfc0
8900
ffc0
8800
9f80
a880
cf80
8000
ffe0
ENDCHAR
STARTCHAR U5340
ENCODING 21312
SWIDTH 960 0
DWIDTH 12 0
BBX 12 12 0 -2
BITMAP
0000
ffe0
4000
4f80
4880
4f80
4000
7de0
6520
7de0
4000
7fe0
ENDCHAR
STARTCHAR U5341
ENCODING 21313
SWIDTH 960 0
DWIDTH 12 0
BBX 12 12 0 -2
BITMAP
0400
0400
0400
0400
ffe0
0400
0400
0400
0400
0400
0400
0400
ENDCHAR
STARTCHAR U5343
ENCODING 21315
SWIDTH 960 0
DWIDTH 12 0
BBX 12 12 0 -2
BITMAP
0080
0700
7c00
0400
0400
ffe0
0400
0400
0400
0400
0400
0400
ENDCHAR
STARTCHAR U5345
ENCODING 21317
SWIDTH 960 0
DWIDTH 12 0
BBX 12 12 0 -2
BITMAP
2440
2440
2440
2440
2440
ffe0
2440
2440
2440
4440
4440
8040
ENDCHAR
STARTCHAR U5346
ENCODING 21318
SWIDTH 960 0
DWIDTH 12 0
BBX 12 12 0 -2
BITMAP
0800
0800
7f00
1100
1100
2120
44e0
0400
ffe0
0400
0400
0400
ENDCHAR
STARTCHAR U5347
ENCODING 21319
SWIDTH 960 0
DWIDTH 12 0
BBX 12 12 0 -2
BITMAP
0100
0d00
7100
1100
1100
ffe0
1100
1100
1100
2100
2100
4100
ENDCHAR
STARTCHAR U5348
ENCODING 21320
SWIDTH 960 0
DWIDTH 12 0
BBX 12 12 0 -2
BITMAP
1000
1000
1fc0
2200
4200
0200
ffe0
0200
0200
0200
0200
0200
ENDCHAR
STARTCHAR U5349
ENCODING 21321
SWIDTH 960 0
DWIDTH 12 0
BBX 12 12 0 -2
BITMAP
0400
0400
7fc0
0400
1480
1480
1080
ffe0
1080
2080
2080
4080
ENDCHAR
STARTCHAR U534A
ENCODING 21322
SWIDTH 960 0
DWIDTH 12 0
BBX 12 12 0 -2
BITMAP
0400
2480
1480
1500
7fc0
0400
0400
ffe0
0400
0400
0400
0400
ENDCHAR
STARTCHAR U534D
ENCODING 21325
SWIDTH 960 0
DWIDTH 12 0
BBX 12 12 0 -2
BITMAP
0000
7c20
0420
0420
0420
0420
7fe0
4400
4400
4400
4400
47e0
ENDCHAR
STARTCHAR U5351
ENCODING 21329
SWIDTH 960 0
DWIDTH 12 0
BBX 12 12 0 -2
BITMAP
0800
3fc0
2440
3fc0
2440
3fc0
1200
2200
fff0
0200
0200
0200
ENDCHAR
STARTCHAR U5352
ENCODING 21330
SWIDTH 960 0
DWIDTH 12 0
BBX 12 12 0 -2
BITMAP
0400
0400
7fc0
1100
1100
2a80
4440
ffe0
0400
0400
0400
0400
ENDCHAR
STARTCHAR U5353
ENCODING 21331
SWIDTH 960 0
DWIDTH 12 0
BBX 12 12 0 -2
BITMAP
0400
07c0
0400
3f80
2080
3f80
2080
3f80
0400
ffe0
0400
0400
ENDCHAR
STARTCHAR U5354
ENCODING 21332
SWIDTH 960 0
DWIDTH 12 0
BBX 12 12 0 -2
BITMAP
4200
4fc0
4240
f240
4440
4980
4880
7fe0
54a0
54a0
6520
4e60
ENDCHAR
STARTCHAR U5357
ENCODING 21335
SWIDTH 960 0
DWIDTH 12 0
BBX 12 12 0 -2
BITMAP
0400
ffe0
0400
0400
7fc0
5140
4a40
5f40
4440
5f40
4440
44c0
ENDCHAR
STARTCHAR U5358
ENCODING 21336
SWIDTH 960 0
DWIDTH 12 0
BBX 12 12 0 -2
BITMAP
2440
1280
3f80
2480
3f80
2480
3f80
0400
ffe0
0400
0400
0400
ENDCHAR
STARTCHAR U535A
ENCODING 21338
SWIDTH 960 0
DWIDTH 12 0
BBX 12 12 0 -2
BITMAP
4240
5fe0
4200
5fc0
f240
5fc0
5240
7fe0
4080
4880
4480
4180
ENDCHAR
STARTCHAR U535C
ENCODING 21340
SWIDTH 960 0
DWIDTH 12 0
BBX 12 12 0 -2
BITMAP
0800
0800
0800
0c00
0a00
0900
0880
0880
0800
0800
0800
0800
ENDCHAR
STARTCHAR U535E
ENCODING 21342
SWIDTH 960 0
DWIDTH 12 0
BBX 12 12 0 -2
BITMAP
0400
0400
ffe0
0400
0600
0500
0480
0480
0400
0400
0400
0400
ENDCHAR
STARTCHAR U5360
ENCODING 21344
SWIDTH 960 0
DWIDTH 12 0
BBX 12 12 0 -2
BITMAP
0400
0400
0400
07e0
0400
0400
0400
3f80
2080
2080
2080
3f80
ENDCHAR
STARTCHAR U5366
ENCODING 21350
SWIDTH 960 0
DWIDTH 12 0
BBX 12 12 0 -2
BITMAP
1100
1100
7d00
1100
fd80
1140
1120
7d20
1100
1f00
e100
0100
ENDCHAR
STARTCHAR U5369
ENCODING 21353
SWIDTH 960 0
DWIDTH 12 0
BBX 12 12 0 -2
BITMAP
0000
1fc0
1040
1040
1040
1040
1040
1040
1380
1000
1000
1000
ENDCHAR
STARTCHAR U536E
ENCODING 21358
SWIDTH 960 0
DWIDTH 12 0
BBX 12 12 0 -2
BITMAP
01c0
3e00
2000
3fe0
2000
2f80
2880
2880
2b00
4800
4820
87e0
ENDCHAR
STARTCHAR U536F
ENCODING 21359
SWIDTH 960 0
DWIDTH 12 0
BBX 12 12 0 -2
BITMAP
0c00
71e0
4120
4920
4920
4920
4920
5920
e9c0
0900
1100
2100
ENDCHAR
STARTCHAR U5370
ENCODING 21360
SWIDTH 960 0
DWIDTH 12 0
BBX 12 12 0 -2
BITMAP
0800
73e0
4220
4220
7a20
4220
4220
4220
7ac0
4200
0200
0200
ENDCHAR
STARTCHAR U5371
ENCODING 21361
SWIDTH 960 0
DWIDTH 12 0
BBX 12 12 0 -2
BITMAP
0800
1f00
6200
0400
3fe0
2000
2f80
2880
4880
49a0
8820
07e0
ENDCHAR
STARTCHAR U5373
ENCODING 21363
SWIDTH 960 0
DWIDTH 12 0
BBX 12 12 0 -2
BITMAP
0000
7de0
4520
7d20
4520
4520
7d20
5120
49c0
7500
c500
0100
ENDCHAR
STARTCHAR U5374
ENCODING 21364
SWIDTH 960 0
DWIDTH 12 0
BBX 12 12 0 -2
BITMAP
2000
21e0
fd20
2120
2120
fd20
2120
2920
4dc0
7500
c500
0100
ENDCHAR
STARTCHAR U5375
ENCODING 21365
SWIDTH 960 0
DWIDTH 12 0
BBX 12 12 0 -2
BITMAP
0c00
71e0
4520
6520
55a0
4560
4520
5920
e9c0
0900
1100
2100
ENDCHAR
STARTCHAR U5377
ENCODING 21367
SWIDTH 960 0
DWIDTH 12 0
BBX 12 12 0 -2
BITMAP
0400
2480
2440
7fc0
0a00
ffe0
1100
3f80
d160
1700
1040
0fc0
ENDCHAR
STARTCHAR U5378
ENCODING 21368
SWIDTH 960 0
DWIDTH 12 0
BBX 12 12 0 -2
BITMAP
2000
3de0
5120
9120
7f20
1120
5d20
5120
51c0
5d00
e100
0100
ENDCHAR
STARTCHAR U537B
ENCODING 21371
SWIDTH 960 0
DWIDTH 12 0
BBX 12 12 0 -2
BITMAP
1000
29e0
2520
5520
9120
2920
4520
fb20
49c0
4900
4900
7900
ENDCHAR
STARTCHAR U537F
ENCODING 21375
SWIDTH 960 0
DWIDTH 12 0
BBX 12 12 0 -2
BITMAP
2000
cee0
8aa0
aea0
aaa0
aaa0
aea0
a8a0
ece0
2a80
5d80
8080
ENDCHAR
STARTCHAR U5382
ENCODING 21378
SWIDTH 960 0
DWIDTH 12 0
BBX 12 12 0 -2
BITMAP
0000
3fe0
2000
2000
2000
2000
2000
2000
2000
4000
4000
8000
ENDCHAR
STARTCHAR U5384
ENCODING 21380
SWIDTH 960 0
DWIDTH 12 0
BBX 12 12 0 -2
BITMAP
0000
3fe0
2000
2000
2f80
2880
2880
2880
2b00
4820
4820
87e0
ENDCHAR
STARTCHAR U5396
ENCODING 21398
SWIDTH 960 0
DWIDTH 12 0
BBX 12 12 0 -2
BITMAP
0000
7fe0
4a80
4880
7f40
4a40
4ca0
4d20
4c40
5480
9520
a3e0
ENDCHAR
STARTCHAR U5398
ENCODING 21400
SWIDTH 960 0
DWIDTH 12 0
BBX 12 12 0 -2
BITMAP
0000
7fe0
4000
5fc0
5240
5fc0
5240
5fc0
4200
9fc0
8200
7fe0
ENDCHAR
STARTCHAR U539A
ENCODING 21402
SWIDTH 960 0
DWIDTH 12 0
BBX 12 12 0 -2
BITMAP
0000
7fe0
5080
5f80
5080
5f80
4000
5f80
4100
7fe0
8200
0600
ENDCHAR
STARTCHAR U539F
ENCODING 21407
SWIDTH 960 0
DWIDTH 12 0
BBX 12 12 0 -2
BITMAP
0000
3fe0
2200
2fc0
2840
2fc0
2840
2fc0
4280
5240
a220
0600
ENDCHAR
STARTCHAR U53A0
ENCODING 21408
SWIDTH 960 0
DWIDTH 12 0
BBX 12 12 0 -2
BITMAP
0000
7fe0
4000
5e20
52a0
5ea0
52a0
5ea0
52a0
5ea0
9420
a260
ENDCHAR
STARTCHAR U53A5
ENCODING 21413
SWIDTH 960 0
DWIDTH 12 0
BBX 12 12 0 -2
BITMAP
0000
7fe0
6500
5a00
7fe0
4aa0
6ac0
6a80
7ec0
4940
8920
9210
ENDCHAR
STARTCHAR U53A6
ENCODING 21414
SWIDTH 960 0
DWIDTH 12 0
BBX 12 12 0 -2
BITMAP
0000
7fe0
4000
7fc0
4400
5f80
5f80
5080
5f80
6880
8700
b8e0
ENDCHAR
STARTCHAR U53A8
ENCODING 21416
SWIDTH 960 0
DWIDTH 12 0
BBX 12 12 0 -2
BITMAP
0000
7fe0
4000
7e40
4040
7ff0
6440
7e40
6540
5840
8e40
b0c0
ENDCHAR
STARTCHAR U53A9
ENCODING 21417
SWIDTH 960 0
DWIDTH 12 0
BBX 12 12 0 -2
BITMAP
7fe0
4000
5de0
5540
5d40
57e0
5c80
5180
5980
5680
9aa0
3460
ENDCHAR
STARTCHAR U53AD
ENCODING 21421
SWIDTH 960 0
DWIDTH 12 0
BBX 12 12 0 -2
BITMAP
0000
7fe0
54c0
5ca0
4080
5fe0
5480
5c80
5540
5d40
9540
9620
ENDCHAR
STARTCHAR U53AE
ENCODING 21422
SWIDTH 960 0
DWIDTH 12 0
BBX 12 12 0 -2
BITMAP
0000
7fe0
5440
7f80
5500
5de0
5540
5d40
5540
7f40
9a40
2440
ENDCHAR
STARTCHAR U53B0
ENCODING 21424
SWIDTH 960 0
DWIDTH 12 0
BBX 12 12 0 -2
BITMAP
0000
7fe0
5900
7500
51e0
7e40
6540
7d80
6c80
7d80
a640
2c20
ENDCHAR
STARTCHAR U53B3
ENCODING 21427
SWIDTH 960 0
DWIDTH 12 0
BBX 12 12 0 -2
BITMAP
2440
1280
7fe0
4100
5f00
49e0
7e40
5540
5e80
54c0
bd20
0620
ENDCHAR
STARTCHAR U53B6
ENCODING 21430
SWIDTH 960 0
DWIDTH 12 0
BBX 12 12 0 -2
BITMAP
0400
0400
0400
0400
0800
0800
0900
1080
1040
23e0
fc20
0020
ENDCHAR
STARTCHAR U53BB
ENCODING 21435
SWIDTH 960 0
DWIDTH 12 0
BBX 12 12 0 -2
BITMAP
0400
0400
7fc0
0400
0400
ffe0
0400
0900
0880
1380
7c40
0040
ENDCHAR
STARTCHAR U53C2
ENCODING 21442
SWIDTH 960 0
DWIDTH 12 0
BBX 12 12 0 -2
BITMAP
0a00
1100
7e80
0400
ffe0
1300
2c80
7340
8ca0
3100
0600
3800
ENDCHAR
STARTCHAR U53C3
ENCODING 21443
SWIDTH 960 0
DWIDTH 12 0
BBX 12 12 0 -2
BITMAP
0800
1100
7fc0
2080
5120
f5e0
0e00
3980
c660
1900
0600
7800
ENDCHAR
STARTCHAR U53C8
ENCODING 21448
SWIDTH 960 0
DWIDTH 12 0
BBX 12 12 0 -2
BITMAP
0000
3f80
0080
1080
1080
0900
0900
0600
0600
0900
3080
c060
ENDCHAR
STARTCHAR U53C9
ENCODING 21449
SWIDTH 960 0
DWIDTH 12 0
BBX 12 12 0 -2
BITMAP
0000
7fc0
0840
0480
1480
1100
0900
0a00
0400
0a00
3180
c060
ENDCHAR
STARTCHAR U53CA
ENCODING 21450
SWIDTH 960 0
DWIDTH 12 0
BBX 12 12 0 -2
BITMAP
0000
3f80
0880
0900
09c0
1440
1440
1280
2180
2180
4640
9820
ENDCHAR
STARTCHAR U53CB
ENCODING 21451
SWIDTH 960 0
DWIDTH 12 0
BBX 12 12 0 -2
BITMAP
0800
0800
ffe0
0800
0800
1f80
1080
1500
2200
4700
9880
6060
ENDCHAR
STARTCHAR U53CC
ENCODING 21452
SWIDTH 960 0
DWIDTH 12 0
BBX 12 12 0 -2
BITMAP
0000
fbe0
0820
0a20
4940
2940
1080
1880
2540
2240
4420
8810
ENDCHAR
STARTCHAR U53CD
ENCODING 21453
SWIDTH 960 0
DWIDTH 12 0
BBX 12 12 0 -2
BITMAP
0000
3fc0
2000
2000
3f80
2080
2900
2900
4600
4600
9900
60c0
ENDCHAR
STARTCHAR U53CE
ENCODING 21454
SWIDTH 960 0
DWIDTH 12 0
BBX 12 12 0 -2
BITMAP
0800
4fc0
4840
4c40
4c40
4a80
4a80
4900
7900
ca80
0c40
0820
ENDCHAR
STARTCHAR U53D4
ENCODING 21460
SWIDTH 960 0
DWIDTH 12 0
BBX 12 12 0 -2
BITMAP
2000
27c0
3840
2440
2280
fa80
2100
3100
aa80
aa80
a440
6820
ENDCHAR
STARTCHAR U53D6
ENCODING 21462
SWIDTH 960 0
DWIDTH 12 0
BBX 12 12 0 -2
BITMAP
0000
fc00
4be0
4820
7a20
4940
7940
4880
7980
ca40
0c20
0810
ENDCHAR
STARTCHAR U53D7
ENCODING 21463
SWIDTH 960 0
DWIDTH 12 0
BBX 12 12 0 -2
BITMAP
01c0
7e40
2440
1280
ffe0
8020
bf20
1100
0a00
0600
1900
60c0
ENDCHAR
STARTCHAR U53D9
ENCODING 21465
SWIDTH 960 0
DWIDTH 12 0
BBX 12 12 0 -2
BITMAP
1000
13e0
2820
4a20
7e20
a540
2140
f880
2080
a940
aa20
6410
ENDCHAR
STARTCHAR U53DB
ENCODING 21467
SWIDTH 960 0
DWIDTH 12 0
BBX 12 12 0 -2
BITMAP
2000
abe0
6a00
7200
ffe0
2220
3a40
e540
4580
4880
8940
0620
ENDCHAR
STARTCHAR U53DF
ENCODING 21471
SWIDTH 960 0
DWIDTH 12 0
BBX 12 12 0 -2
BITMAP
1400
e5e0
8420
f5e0
8420
ffe0
0400
7fc0
1980
0600
1b00
60c0
ENDCHAR
STARTCHAR U53E1
ENCODING 21473
SWIDTH 960 0
DWIDTH 12 0
BBX 12 12 0 -2
BITMAP
3800
23e0
fc20
a520
7140
8d40
2080
7880
ccc0
7940
4a20
7c10
ENDCHAR
STARTCHAR U53E2
ENCODING 21474
SWIDTH 960 0
DWIDTH 12 0
BBX 12 12 0 -2
BITMAP
0a00
2a80
ffe0
1100
7fc0
0400
ffe0
4f80
7a80
4900
fa80
0c60
ENDCHAR
STARTCHAR U53E3
ENCODING 21475
SWIDTH 960 0
DWIDTH 12 0
BBX 12 12 0 -2
BITMAP
0000
0000
7fe0
4020
4020
4020
4020
4020
4020
4020
7fe0
4020
ENDCHAR
STARTCHAR U53E4
ENCODING 21476
SWIDTH 960 0
DWIDTH 12 0
BBX 12 12 0 -2
BITMAP
0400
0400
0400
ffe0
0400
0400
0400
3f80
2080
2080
2080
3f80
ENDCHAR
STARTCHAR U53E5
ENCODING 21477
SWIDTH 960 0
DWIDTH 12 0
BBX 12 12 0 -2
BITMAP
1000
1000
3fe0
2020
5f20
9120
1120
1120
1f20
0020
0020
00c0
ENDCHAR
STARTCHAR U53E8
ENCODING 21480
SWIDTH 960 0
DWIDTH 12 0
BBX 12 12 0 -2
BITMAP
0000
0fe0
f120
9120
9120
9120
9120
9120
9220
f220
0420
08c0
ENDCHAR
STARTCHAR U53E9
ENCODING 21481
SWIDTH 960 0
DWIDTH 12 0
BBX 12 12 0 -2
BITMAP
0000
03e0
7a20
4a20
4a20
4a20
4a20
4a20
7a20
42c0
0200
0200
ENDCHAR
STARTCHAR U53EA
ENCODING 21482
SWIDTH 960 0
DWIDTH 12 0
BBX 12 12 0 -2
BITMAP
0000
7f80
4080
4080
4080
4080
7f80
0000
1100
1080
2040
c040
ENDCHAR
STARTCHAR U53EB
ENCODING 21483
SWIDTH 960 0
DWIDTH 12 0
BBX 12 12 0 -2
BITMAP
0080
f480
9480
9480
9480
9480
9480
94e0
f780
8c80
0080
0080
ENDCHAR
STARTCHAR U53EC
ENCODING 21484
SWIDTH 960 0
DWIDTH 12 0
BBX 12 12 0 -2
BITMAP
0000
7fc0
0840
0840
1040
2180
4000
3f80
2080
2080
2080
3f80
ENDCHAR
STARTCHAR U53ED
ENCODING 21485
SWIDTH 960 0
DWIDTH 12 0
BBX 12 12 0 -2
BITMAP
0780
f080
9480
9480
9480
9480
9480
9480
f880
0840
1040
2020
ENDCHAR
STARTCHAR U53EE
ENCODING 21486
SWIDTH 960 0
DWIDTH 12 0
BBX 12 12 0 -2
BITMAP
0000
0fe0
f100
9100
9100
9100
9100
9100
9100
f100
0100
0300
ENDCHAR
STARTCHAR U53EF
ENCODING 21487
SWIDTH 960 0
DWIDTH 12 0
BBX 12 12 0 -2
BITMAP
0000
ffe0
0080
3e80
2280
2280
2280
3e80
2080
0080
0080
0180
ENDCHAR
STARTCHAR U53F0
ENCODING 21488
SWIDTH 960 0
DWIDTH 12 0
BBX 12 12 0 -2
BITMAP
0400
0400
0880
1040
23c0
fc20
0020
3fc0
2040
2040
2040
3fc0
ENDCHAR
STARTCHAR U53F1
ENCODING 21489
SWIDTH 960 0
DWIDTH 12 0
BBX 12 12 0 -2
BITMAP
0400
0400
f440
9440
9480
9500
9600
9c00
9400
f420
0420
03e0
ENDCHAR
STARTCHAR U53F2
ENCODING 21490
SWIDTH 960 0
DWIDTH 12 0
BBX 12 12 0 -2
BITMAP
0400
0400
7fc0
4440
4440
7fc0
2400
1400
0c00
0a00
3180
c060
ENDCHAR
STARTCHAR U53F3
ENCODING 21491
SWIDTH 960 0
DWIDTH 12 0
BBX 12 12 0 -2
BITMAP
0800
0800
0800
ffe0
0800
0800
1000
1fc0
3040
5040
9040
1fc0
ENDCHAR
STARTCHAR U53F6
ENCODING 21494
SWIDTH 960 0
DWIDTH 12 0
BBX 12 12 0 -2
BITMAP
0100
0100
f100
9100
9fe0
9100
9100
9100
9100
f100
0100
0100
ENDCHAR
STARTCHAR U53F7
ENCODING 21495
SWIDTH 960 0
DWIDTH 12 0
BBX 12 12 0 -2
BITMAP
0000
3f80
2080
3f80
0000
ffe0
1000
1f80
2080
0080
0080
0300
ENDCHAR
STARTCHAR U53F8
ENCODING 21496
SWIDTH 960 0
DWIDTH 12 0
BBX 12 12 0 -2
BITMAP
0000
7fe0
0020
3fa0
0020
1f20
1120
1120
1f20
0020
0020
00c0
ENDCHAR
STARTCHAR U53FA
ENCODING 21498
SWIDTH 960 0
DWIDTH 12 0
BBX 12 12 0 -2
BITMAP
0300
0100
f100
9100
9100
9100
9300
9280
f480
0440
0840
3020
ENDCHAR
STARTCHAR U5401
ENCODING 21505
SWIDTH 960 0
DWIDTH 12 0
BBX 12 12 0 -2
BITMAP
0000
0fc0
f100
9100
9100
9fe0
9100
9100
f100
0100
0100
0300
ENDCHAR
STARTCHAR U5403
ENCODING 21507
SWIDTH 960 0
DWIDTH 12 0
BBX 12 12 0 -2
BITMAP
0400
0400
f7e0
9800
9000
9fc0
9080
9300
f400
0820
0820
07e0
ENDCHAR
STARTCHAR U5404
ENCODING 21508
SWIDTH 960 0
DWIDTH 12 0
BBX 12 12 0 -2
BITMAP
0800
0f80
1080
2900
4600
0900
1080
3fc0
d0a0
1080
1080
1f80
ENDCHAR
STARTCHAR U5408
ENCODING 21512
SWIDTH 960 0
DWIDTH 12 0
BBX 12 12 0 -2
BITMAP
0400
0400
0a00
1100
3f80
c060
0000
3f80
2080
2080
2080
3f80
ENDCHAR
STARTCHAR U5409
ENCODING 21513
SWIDTH 960 0
DWIDTH 12 0
BBX 12 12 0 -2
BITMAP
0400
0400
ffe0
0400
0400
7fc0
0000
3f80
2080
2080
2080
3f80
ENDCHAR
STARTCHAR U540A
ENCODING 21514
SWIDTH 960 0
DWIDTH 12 0
BBX 12 12 0 -2
BITMAP
0000
3f80
2080
2080
3f80
0400
7fc0
4440
4440
4440
4580
0400
ENDCHAR
STARTCHAR U540B
ENCODING 21515
SWIDTH 960 0
DWIDTH 12 0
BBX 12 12 0 -2
BITMAP
0080
0080
f080
9fe0
9080
9480
9280
9280
9080
f080
0080
0180
ENDCHAR
STARTCHAR U540C
ENCODING 21516
SWIDTH 960 0
DWIDTH 12 0
BBX 12 12 0 -2
BITMAP
0000
7fe0
4020
4020
5fa0
4020
5fa0
50a0
50a0
5fa0
4020
4060
ENDCHAR
STARTCHAR U540D
ENCODING 21517
SWIDTH 960 0
DWIDTH 12 0
BBX 12 12 0 -2
BITMAP
0400
0400
0f80
1080
2900
4600
0400
0fe0
3820
c820
0820
0fe0
ENDCHAR
STARTCHAR U540E
ENCODING 21518
SWIDTH 960 0
DWIDTH 12 0
BBX 12 12 0 -2
BITMAP
01c0
3e00
2000
2000
3fe0
2000
2000
2fc0
4840
4840
8840
0fc0
ENDCHAR
STARTCHAR U540F
ENCODING 21519
SWIDTH 960 0
DWIDTH 12 0
BBX 12 12 0 -2
BITMAP
0400
7fe0
0400
3fc0
2440
2440
3fc0
1400
0c00
0a00
3180
c060
ENDCHAR
STARTCHAR U5410
ENCODING 21520
SWIDTH 960 0
DWIDTH 12 0
BBX 12 12 0 -2
BITMAP
0100
0100
f100
9100
9fe0
9100
9100
9100
f100
0100
1fe0
0000
ENDCHAR
STARTCHAR U5411
ENCODING 21521
SWIDTH 960 0
DWIDTH 12 0
BBX 12 12 0 -2
BITMAP
0400
0800
1000
7fe0
4020
4020
4f20
4920
4920
4f20
4020
4060
ENDCHAR
STARTCHAR U541B
ENCODING 21531
SWIDTH 960 0
DWIDTH 12 0
BBX 12 12 0 -2
BITMAP
0000
7f80
0880
ffe0
0880
0880
7f80
1000
3f80
5080
9080
1f80
ENDCHAR
STARTCHAR U541D
ENCODING 21533
SWIDTH 960 0
DWIDTH 12 0
BBX 12 12 0 -2
BITMAP
0400
ffe0
2100
1200
0c00
0a00
3180
c060
3f80
2080
2080
3f80
ENDCHAR
STARTCHAR U541F
ENCODING 21535
SWIDTH 960 0
DWIDTH 12 0
BBX 12 12 0 -2
BITMAP
0200
0300
e500
a480
afc0
b020
a000
afc0
a080
e080
0100
0200
ENDCHAR
STARTCHAR U5420
ENCODING 21536
SWIDTH 960 0
DWIDTH 12 0
BBX 12 12 0 -2
BITMAP
0200
e280
a240
a200
bfe0
a200
a200
a500
e500
0880
1040
6020
ENDCHAR
STARTCHAR U5426
ENCODING 21542
SWIDTH 960 0
DWIDTH 12 0
BBX 12 12 0 -2
BITMAP
0000
7fe0
0600
0d80
3440
c420
0400
3fc0
2040
2040
2040
3fc0
ENDCHAR
STARTCHAR U5429
ENCODING 21545
SWIDTH 960 0
DWIDTH 12 0
BBX 12 12 0 -2
BITMAP
0300
0900
e900
a880
b040
bfa0
a480
a480
e480
0880
0880
1300
ENDCHAR
STARTCHAR U542B
ENCODING 21547
SWIDTH 960 0
DWIDTH 12 0
BBX 12 12 0 -2
BITMAP
0400
0a00
1100
2e80
c060
7f80
0200
0400
3f80
2080
2080
3f80
ENDCHAR
STARTCHAR U542C
ENCODING 21548
SWIDTH 960 0
DWIDTH 12 0
BBX 12 12 0 -2
BITMAP
00c0
f700
9400
9400
97e0
9480
9480
9480
f480
0880
0880
1080
ENDCHAR
STARTCHAR U542D
ENCODING 21549
SWIDTH 960 0
DWIDTH 12 0
BBX 12 12 0 -2
BITMAP
0200
f200
9fe0
9000
9780
9480
9480
9480
f480
04a0
08a0
1060
ENDCHAR
STARTCHAR U542E
ENCODING 21550
SWIDTH 960 0
DWIDTH 12 0
BBX 12 12 0 -2
BITMAP
0200
0280
f240
9460
9fa0
9280
9280
9280
9480
f4a0
08a0
1060
ENDCHAR
STARTCHAR U5436
ENCODING 21558
SWIDTH 960 0
DWIDTH 12 0
BBX 12 12 0 -2
BITMAP
0100
0100
efe0
a920
a920
a920
aaa0
ac60
e820
0820
0820
0860
ENDCHAR
STARTCHAR U5438
ENCODING 21560
SWIDTH 960 0
DWIDTH 12 0
BBX 12 12 0 -2
BITMAP
0000
0fc0
f240
9280
92e0
9220
9320
9540
f480
04c0
0920
1610
ENDCHAR
STARTCHAR U5439
ENCODING 21561
SWIDTH 960 0
DWIDTH 12 0
BBX 12 12 0 -2
BITMAP
0200
0200
f3e0
9420
9540
9900
9100
9100
f280
0280
0440
1820
ENDCHAR
STARTCHAR U543B
ENCODING 21563
SWIDTH 960 0
DWIDTH 12 0
BBX 12 12 0 -2
BITMAP
0400
0400
e7e0
a6a0
aaa0
aaa0
b2a0
a520
a520
e920
0220
04c0
ENDCHAR
STARTCHAR U543C
ENCODING 21564
SWIDTH 960 0
DWIDTH 12 0
BBX 12 12 0 -2
BITMAP
0080
1f80
e280
a480
a480
a780
bc80
a480
a480
e4a0
04a0
0c60
ENDCHAR
STARTCHAR U543D
ENCODING 21565
SWIDTH 960 0
DWIDTH 12 0
BBX 12 12 0 -2
BITMAP
0100
0500
e500
a7e0
a900
b100
bfe0
a100
a100
e100
0100
0100
ENDCHAR
STARTCHAR U543E
ENCODING 21566
SWIDTH 960 0
DWIDTH 12 0
BBX 12 12 0 -2
BITMAP
7fc0
0800
0800
7f80
1080
1080
ffe0
0000
3f80
2080
2080
3f80
ENDCHAR
STARTCHAR U5440
ENCODING 21568
SWIDTH 960 0
DWIDTH 12 0
BBX 12 12 0 -2
BITMAP
0000
0fe0
f480
9480
9480
9fe0
9280
9280
f480
0880
1080
0180
ENDCHAR
STARTCHAR U5442
ENCODING 21570
SWIDTH 960 0
DWIDTH 12 0
BBX 12 12 0 -2
BITMAP
0000
3f80
2080
2080
3f80
0400
0800
7fc0
4040
4040
4040
7fc0
ENDCHAR
STARTCHAR U5446
ENCODING 21574
SWIDTH 960 0
DWIDTH 12 0
BBX 12 12 0 -2
BITMAP
0000
3f80
2080
2080
3f80
0400
ffe0
0e00
3580
c460
0400
0400
ENDCHAR
STARTCHAR U5448
ENCODING 21576
SWIDTH 960 0
DWIDTH 12 0
BBX 12 12 0 -2
BITMAP
0000
3f80
2080
2080
3f80
0000
7fc0
0400
3f80
0400
0400
ffe0
ENDCHAR
STARTCHAR U5449
ENCODING 21577
SWIDTH 960 0
DWIDTH 12 0
BBX 12 12 0 -2
BITMAP
1f80
5080
5080
5f80
4000
7f80
4080
0080
ffe0
1200
2180
c040
ENDCHAR
STARTCHAR U544A
ENCODING 21578
SWIDTH 960 0
DWIDTH 12 0
BBX 12 12 0 -2
BITMAP
0400
2400
2400
3fc0
2400
4400
ffe0
0000
3f80
2080
2080
3f80
ENDCHAR
STARTCHAR U544E
ENCODING 21582
SWIDTH 960 0
DWIDTH 12 0
BBX 12 12 0 -2
BITMAP
0000
07e0
f420
9420
97e0
9600
9500
9500
f880
0880
1040
2020
ENDCHAR
STARTCHAR U5451
ENCODING 21585
SWIDTH 960 0
DWIDTH 12 0
BBX 12 12 0 -2
BITMAP
01c0
7e00
0400
0400
ffe0
0a00
1100
3f80
d160
1100
1100
1f00
ENDCHAR
STARTCHAR U545F
ENCODING 21599
SWIDTH 960 0
DWIDTH 12 0
BBX 12 12 0 -2
BITMAP
0100
0100
efe0
a100
a100
aa40
a440
a280
a140
e620
1fe0
0020
ENDCHAR
STARTCHAR U5468
ENCODING 21608
SWIDTH 960 0
DWIDTH 12 0
BBX 12 12 0 -2
BITMAP
0000
7fc0
4440
5f40
4440
7fc0
4040
5f40
5140
5f40
8040
80c0
ENDCHAR
STARTCHAR U546A
ENCODING 21610
SWIDTH 960 0
DWIDTH 12 0
BBX 12 12 0 -2
BITMAP
0000
07c0
f440
9440
9440
97c0
9280
9280
f480
04a0
08a0
3060
ENDCHAR
STARTCHAR U5470
ENCODING 21616
SWIDTH 960 0
DWIDTH 12 0
BBX 12 12 0 -2
BITMAP
1200
5260
5f80
5200
5220
5e20
e1e0
0000
3f80
2080
2080
3f80
ENDCHAR
STARTCHAR U5471
ENCODING 21617
SWIDTH 960 0
DWIDTH 12 0
BBX 12 12 0 -2
BITMAP
00c0
0f00
ea80
aa80
aa80
aa80
aa80
aa80
eb40
12c0
1fa0
2090
ENDCHAR
STARTCHAR U5473
ENCODING 21619
SWIDTH 960 0
DWIDTH 12 0
BBX 12 12 0 -2
BITMAP
0200
0200
efc0
a200
a200
bfe0
a200
a700
aa80
f260
0200
0200
ENDCHAR
STARTCHAR U5475
ENCODING 21621
SWIDTH 960 0
DWIDTH 12 0
BBX 12 12 0 -2
BITMAP
0000
1fe0
e040
af40
a940
a940
a940
af40
a840
e040
0040
00c0
ENDCHAR
STARTCHAR U5476
ENCODING 21622
SWIDTH 960 0
DWIDTH 12 0
BBX 12 12 0 -2
BITMAP
0400
05e0
e420
bf20
aaa0
aaa0
aaa0
ba40
a440
eaa0
1120
2210
ENDCHAR
STARTCHAR U5477
ENCODING 21623
SWIDTH 960 0
DWIDTH 12 0
BBX 12 12 0 -2
BITMAP
0000
0fe0
e920
afe0
a920
a920
afe0
a900
e100
8100
0100
0100
ENDCHAR
STARTCHAR U547B
ENCODING 21627
SWIDTH 960 0
DWIDTH 12 0
BBX 12 12 0 -2
BITMAP
0100
0100
efe0
a920
afe0
a920
a920
afe0
e900
8100
0100
0100
ENDCHAR
STARTCHAR U547C
ENCODING 21628
SWIDTH 960 0
DWIDTH 12 0
BBX 12 12 0 -2
BITMAP
00c0
1f00
e240
b240
aa80
aa00
bfe0
a200
e200
0200
0200
0600
ENDCHAR
STARTCHAR U547D
ENCODING 21629
SWIDTH 960 0
DWIDTH 12 0
BBX 12 12 0 -2
BITMAP
0400
0a00
1100
3e80
c060
7bc0
4a40
4a40
4a40
7b80
0200
0200
ENDCHAR
STARTCHAR U5480
ENCODING 21632
SWIDTH 960 0
DWIDTH 12 0
BBX 12 12 0 -2
BITMAP
0000
07c0
f440
9440
97c0
9440
9440
97c0
f440
8440
0440
1fe0
ENDCHAR
STARTCHAR U5484
ENCODING 21636
SWIDTH 960 0
DWIDTH 12 0
BBX 12 12 0 -2
BITMAP
0100
0920
e920
a920
a920
afe0
a100
a920
a920
e920
0920
0fe0
ENDCHAR
STARTCHAR U5486
ENCODING 21638
SWIDTH 960 0
DWIDTH 12 0
BBX 12 12 0 -2
BITMAP
0400
0400
e7e0
a820
afa0
b4a0
a4a0
a7a0
a440
e400
0420
03e0
ENDCHAR
STARTCHAR U548B
ENCODING 21643
SWIDTH 960 0
DWIDTH 12 0
BBX 12 12 0 -2
BITMAP
0200
0200
f7f0
9500
9500
99e0
9100
9100
91e0
f100
0100
0100
ENDCHAR
STARTCHAR U548C
ENCODING 21644
SWIDTH 960 0
DWIDTH 12 0
BBX 12 12 0 -2
BITMAP
0c00
7000
13e0
1220
fe20
1220
3a20
3620
5220
5220
93e0
1000
ENDCHAR
STARTCHAR U548E
ENCODING 21646
SWIDTH 960 0
DWIDTH 12 0
BBX 12 12 0 -2
BITMAP
2080
3880
2880
6980
9240
2c20
43e0
8000
3f80
2080
2080
3f80
ENDCHAR
STARTCHAR U548F
ENCODING 21647
SWIDTH 960 0
DWIDTH 12 0
BBX 12 12 0 -2
BITMAP
0100
0080
e700
a120
a140
bf80
a380
a340
a520
e910
1100
0300
ENDCHAR
STARTCHAR U5490
ENCODING 21648
SWIDTH 960 0
DWIDTH 12 0
BBX 12 12 0 -2
BITMAP
0440
0440
e440
abe0
a840
ba40
a940
a940
a840
e840
0840
08c0
ENDCHAR
STARTCHAR U5492
ENCODING 21650
SWIDTH 960 0
DWIDTH 12 0
BBX 12 12 0 -2
BITMAP
0000
7bc0
4a40
4a40
7bc0
0000
1e00
1200
1200
1220
2220
41e0
ENDCHAR
STARTCHAR U54A2
ENCODING 21666
SWIDTH 960 0
DWIDTH 12 0
BBX 12 12 0 -2
BITMAP
7bc0
4a40
4a40
7bc0
0000
3f80
0000
ffe0
0800
1f80
2080
0700
ENDCHAR
STARTCHAR U54A4
ENCODING 21668
SWIDTH 960 0
DWIDTH 12 0
BBX 12 12 0 -2
BITMAP
0200
1fe0
f020
b1a0
ae00
a200
a3e0
be00
a200
e200
0220
01e0
ENDCHAR
STARTCHAR U54A5
ENCODING 21669
SWIDTH 960 0
DWIDTH 12 0
BBX 12 12 0 -2
BITMAP
0000
1fe0
e200
a480
bfc0
a240
a200
bfc0
a200
e200
0200
3fe0
ENDCHAR
STARTCHAR U54A8
ENCODING 21672
SWIDTH 960 0
DWIDTH 12 0
BBX 12 12 0 -2
BITMAP
0400
0400
e7e0
0940
1100
3280
c440
0820
3f80
2080
2080
3f80
ENDCHAR
STARTCHAR U54AB
ENCODING 21675
SWIDTH 960 0
DWIDTH 12 0
BBX 12 12 0 -2
BITMAP
0000
7be0
4a20
4a20
7a20
63e0
6080
5140
5120
4a20
8600
81f0
ENDCHAR
STARTCHAR U54AC
ENCODING 21676
SWIDTH 960 0
DWIDTH 12 0
BBX 12 12 0 -2
BITMAP
0200
0200
ffe0
a480
a480
a840
b4a0
a500
e200
8500
0880
3060
ENDCHAR
STARTCHAR U54AF
ENCODING 21679
SWIDTH 960 0
DWIDTH 12 0
BBX 12 12 0 -2
BITMAP
0100
01c0
f240
9640
9980
9140
9220
97d0
9a40
f240
0240
03c0
ENDCHAR
STARTCHAR U54B2
ENCODING 21682
SWIDTH 960 0
DWIDTH 12 0
BBX 12 12 0 -2
BITMAP
0880
0480
e500
afc0
a200
a200
bfe0
a200
e300
0480
0840
3020
ENDCHAR
STARTCHAR U54B3
ENCODING 21683
SWIDTH 960 0
DWIDTH 12 0
BBX 12 12 0 -2
BITMAP
0100
0100
ffe0
9100
9240
9680
9100
9240
9c80
f380
0640
1820
ENDCHAR
STARTCHAR U54B8
ENCODING 21688
SWIDTH 960 0
DWIDTH 12 0
BBX 12 12 0 -2
BITMAP
0180
0140
7fe0
4100
5d20
4120
5d40
5540
5480
5ca0
8160
8220
ENDCHAR
STARTCHAR U54BC
ENCODING 21692
SWIDTH 960 0
DWIDTH 12 0
BBX 12 12 0 -2
BITMAP
0000
1f80
1080
1780
1480
7fe0
4020
5fa0
50a0
5fa0
5020
4060
ENDCHAR
STARTCHAR U54BD
ENCODING 21693
SWIDTH 960 0
DWIDTH 12 0
BBX 12 12 0 -2
BITMAP
0000
0fe0
e920
a920
afe0
a920
a920
a9a0
aa60
ea60
0c20
0fe0
ENDCHAR
STARTCHAR U54BE
ENCODING 21694
SWIDTH 960 0
DWIDTH 12 0
BBX 12 12 0 -2
BITMAP
0200
0200
efc0
a240
a280
bfe0
a200
a4c0
bf00
e400
0440
03c0
ENDCHAR
STARTCHAR U54C0
ENCODING 21696
SWIDTH 960 0
DWIDTH 12 0
BBX 12 12 0 -2
BITMAP
0400
ffe0
0000
3f80
2080
2080
3f80
0840
3480
d200
1d80
7060
ENDCHAR
STARTCHAR U54C1
ENCODING 21697
SWIDTH 960 0
DWIDTH 12 0
BBX 12 12 0 -2
BITMAP
0000
3f00
2100
2100
2100
3f00
0000
fbe0
8a20
8a20
8a20
fbe0
ENDCHAR
STARTCHAR U54C2
ENCODING 21698
SWIDTH 960 0
DWIDTH 12 0
BBX 12 12 0 -2
BITMAP
0000
0fe0
e280
a280
afe0
aaa0
aaa0
ace0
e820
8820
0fe0
0800
ENDCHAR
STARTCHAR U54C4
ENCODING 21700
SWIDTH 960 0
DWIDTH 12 0
BBX 12 12 0 -2
BITMAP
0480
0480
e480
afc0
a480
a480
a480
bfe0
a500
e480
0840
1040
ENDCHAR
STARTCHAR U54C7
ENCODING 21703
SWIDTH 960 0
DWIDTH 12 0
BBX 12 12 0 -2
BITMAP
0100
0100
efc0
a100
a100
bfe0
a100
a100
afc0
e100
0100
1fe0
ENDCHAR
STARTCHAR U54C8
ENCODING 21704
SWIDTH 960 0
DWIDTH 12 0
BBX 12 12 0 -2
BITMAP
0100
0100
f280
9280
9440
9ba0
9000
97c0
f440
0440
0440
07c0
ENDCHAR
STARTCHAR U54C9
ENCODING 21705
SWIDTH 960 0
DWIDTH 12 0
BBX 12 12 0 -2
BITMAP
1100
7d80
1140
1100
ffe0
0100
7940
4940
4880
49a0
7a60
0420
ENDCHAR
STARTCHAR U54D8
ENCODING 21720
SWIDTH 960 0
DWIDTH 12 0
BBX 12 12 0 -2
BITMAP
0400
05e0
e800
b400
a5f0
a840
b840
a840
a840
e840
0840
08c0
ENDCHAR
STARTCHAR U54E1
ENCODING 21729
SWIDTH 960 0
DWIDTH 12 0
BBX 12 12 0 -2
BITMAP
1f80
1080
1f80
3fc0
2040
3fc0
2040
3fc0
2040
3fc0
1980
6060
ENDCHAR
STARTCHAR U54E2
ENCODING 21730
SWIDTH 960 0
DWIDTH 12 0
BBX 12 12 0 -2
BITMAP
0000
1fe0
e100
afc0
a100
bfe0
a480
a480
bfe0
e480
0880
1080
ENDCHAR
STARTCHAR U54E5
ENCODING 21733
SWIDTH 960 0
DWIDTH 12 0
BBX 12 12 0 -2
BITMAP
0000
7fc0
3e80
2280
3e80
0080
ffe0
0080
3e80
2280
3e80
0180
ENDCHAR
STARTCHAR U54E6
ENCODING 21734
SWIDTH 960 0
DWIDTH 12 0
BBX 12 12 0 -2
BITMAP
0280
1cc0
e4a0
a480
bfe0
a4a0
a6a0
acc0
b480
e5a0
0660
0c20
ENDCHAR
STARTCHAR U54E8
ENCODING 21736
SWIDTH 960 0
DWIDTH 12 0
BBX 12 12 0 -2
BITMAP
0200
1240
ea80
afc0
a840
a840
afc0
a840
afc0
e840
0840
08c0
ENDCHAR
STARTCHAR U54E9
ENCODING 21737
SWIDTH 960 0
DWIDTH 12 0
BBX 12 12 0 -2
BITMAP
0000
efe0
a920
afe0
a920
a920
afe0
a100
efe0
8100
0100
1ff0
ENDCHAR
STARTCHAR U54ED
ENCODING 21741
SWIDTH 960 0
DWIDTH 12 0
BBX 12 12 0 -2
BITMAP
0000
fbe0
8a20
8a20
fbe0
0480
0440
ffe0
0400
0a00
3180
c060
ENDCHAR
STARTCHAR U54EE
ENCODING 21742
SWIDTH 960 0
DWIDTH 12 0
BBX 12 12 0 -2
BITMAP
0200
0280
ffc0
a280
bfe0
a200
a7c0
a980
b100
efe0
0100
0300
ENDCHAR
STARTCHAR U54F2
ENCODING 21746
SWIDTH 960 0
DWIDTH 12 0
BBX 12 12 0 -2
BITMAP
2060
2780
f400
27e0
3480
e480
2880
6080
3f80
2080
2080
3f80
ENDCHAR
STARTCHAR U54FA
ENCODING 21754
SWIDTH 960 0
DWIDTH 12 0
BBX 12 12 0 -2
BITMAP
0140
0120
fff0
a100
afe0
a920
afe0
a920
afe0
e920
0920
0960
ENDCHAR
STARTCHAR U54FD
ENCODING 21757
SWIDTH 960 0
DWIDTH 12 0
BBX 12 12 0 -2
BITMAP
0000
1fe0
e100
afc0
a940
afc0
a940
afc0
a500
e200
0d80
3060
ENDCHAR
STARTCHAR U5504
ENCODING 21764
SWIDTH 960 0
DWIDTH 12 0
BBX 12 12 0 -2
BITMAP
0000
07c0
f440
9440
97c0
9440
97c0
9440
9440
f7c0
0240
0c20
ENDCHAR
STARTCHAR U5506
ENCODING 21766
SWIDTH 960 0
DWIDTH 12 0
BBX 12 12 0 -2
BITMAP
0100
0240
ffa0
9280
92a0
94e0
9a00
93c0
9640
f980
06c0
1820
ENDCHAR
STARTCHAR U5507
ENCODING 21767
SWIDTH 960 0
DWIDTH 12 0
BBX 12 12 0 -2
BITMAP
0000
7fe0
4000
5fe0
4a40
4980
4a80
9c60
3fc0
2040
2040
3fc0
ENDCHAR
STARTCHAR U550F
ENCODING 21775
SWIDTH 960 0
DWIDTH 12 0
BBX 12 12 0 -2
BITMAP
0640
0180
ee40
a100
bff0
a500
a7e0
ad20
f520
2520
0560
0100
ENDCHAR
STARTCHAR U5510
ENCODING 21776
SWIDTH 960 0
DWIDTH 12 0
BBX 12 12 0 -2
BITMAP
0200
7fe0
4200
5fc0
4240
7fe0
4240
5fc0
4000
5fc0
9040
1fc0
ENDCHAR
STARTCHAR U5514
ENCODING 21780
SWIDTH 960 0
DWIDTH 12 0
BBX 12 12 0 -2
BITMAP
0000
0fe0
f100
97c0
9240
9240
9ff0
9000
97c0
f440
0440
07c0
ENDCHAR
STARTCHAR U5516
ENCODING 21782
SWIDTH 960 0
DWIDTH 12 0
BBX 12 12 0 -2
BITMAP
0000
1fe0
e280
a280
afe0
aaa0
aaa0
aaa0
afe0
e280
0280
1fe0
ENDCHAR
STARTCHAR U552E
ENCODING 21806
SWIDTH 960 0
DWIDTH 12 0
BBX 12 12 0 -2
BITMAP
1100
1200
3fe0
6200
bfc0
2200
3fc0
2200
3fe0
2040
2040
3fc0
ENDCHAR
STARTCHAR U552F
ENCODING 21807
SWIDTH 960 0
DWIDTH 12 0
BBX 12 12 0 -2
BITMAP
0480
e900
afe0
b900
a900
afc0
a900
a900
afc0
e900
0900
0fe0
ENDCHAR
STARTCHAR U5531
ENCODING 21809
SWIDTH 960 0
DWIDTH 12 0
BBX 12 12 0 -2
BITMAP
0000
07c0
e440
a7c0
a440
a7c0
a000
afe0
e820
0fe0
0820
0fe0
ENDCHAR
STARTCHAR U5533
ENCODING 21811
SWIDTH 960 0
DWIDTH 12 0
BBX 12 12 0 -2
BITMAP
0000
1fe0
e000
afe0
a820
afe0
a900
afe0
f100
1280
2440
1820
ENDCHAR
STARTCHAR U5538
ENCODING 21816
SWIDTH 960 0
DWIDTH 12 0
BBX 12 12 0 -2
BITMAP
0200
e300
a480
af40
b020
afc0
a080
a300
f500
1440
24a0
0380
ENDCHAR
STARTCHAR U5539
ENCODING 21817
SWIDTH 960 0
DWIDTH 12 0
BBX 12 12 0 -2
BITMAP
0880
0880
fec0
a8c0
a920
ae90
aa40
aa20
ea80
1240
2220
0c20
ENDCHAR
STARTCHAR U553E
ENCODING 21822
SWIDTH 960 0
DWIDTH 12 0
BBX 12 12 0 -2
BITMAP
00c0
0f00
e100
afe0
a540
bff0
a540
a540
afe0
e100
0100
1fe0
ENDCHAR
STARTCHAR U5540
ENCODING 21824
SWIDTH 960 0
DWIDTH 12 0
BBX 12 12 0 -2
BITMAP
0000
0fe0
e880
abc0
a880
afe0
a880
a880
ebc0
1080
1080
27e0
ENDCHAR
STARTCHAR U5544
ENCODING 21828
SWIDTH 960 0
DWIDTH 12 0
BBX 12 12 0 -2
BITMAP
0000
1fe0
e200
a600
b920
a2c0
a480
b9c0
e2a0
8c90
3080
0300
ENDCHAR
STARTCHAR U5545
ENCODING 21829
SWIDTH 960 0
DWIDTH 12 0
BBX 12 12 0 -2
BITMAP
0200
03e0
e200
afc0
a840
afc0
a840
afc0
a200
ffe0
0200
0200
ENDCHAR
STARTCHAR U5546
ENCODING 21830
SWIDTH 960 0
DWIDTH 12 0
BBX 12 12 0 -2
BITMAP
0400
fff0
1080
0900
7fe0
4920
5120
6fe0
4920
4920
4f20
4060
ENDCHAR
STARTCHAR U554C
ENCODING 21836
SWIDTH 960 0
DWIDTH 12 0
BBX 12 12 0 -2
BITMAP
0200
1fe0
f520
b520
a500
a8e0
b000
afc0
a200
e200
0200
1fe0
ENDCHAR
STARTCHAR U554F
ENCODING 21839
SWIDTH 960 0
DWIDTH 12 0
BBX 12 12 0 -2
BITMAP
fbe0
8a20
fbe0
8a20
fbe0
8020
9f20
9120
9120
9f20
8020
8060
ENDCHAR
STARTCHAR U5553
ENCODING 21843
SWIDTH 960 0
DWIDTH 12 0
BBX 12 12 0 -2
BITMAP
fa00
03e0
7a40
4d40
7880
4140
4620
8000
3f80
2080
2080
3f80
ENDCHAR
STARTCHAR U5556
ENCODING 21846
SWIDTH 960 0
DWIDTH 12 0
BBX 12 12 0 -2
BITMAP
0200
0240
ea80
b300
a480
ba60
a200
a240
ea80
1300
0c80
3060
ENDCHAR
STARTCHAR U5557
ENCODING 21847
SWIDTH 960 0
DWIDTH 12 0
BBX 12 12 0 -2
BITMAP
0200
03e0
f220
9420
98c0
9100
96e0
9420
9760
f420
0420
07e0
ENDCHAR
STARTCHAR U555C
ENCODING 21852
SWIDTH 960 0
DWIDTH 12 0
BBX 12 12 0 -2
BITMAP
0000
1fe0
eaa0
a640
a5a0
a910
afe0
a120
aaa0
e440
0aa0
1110
ENDCHAR
STARTCHAR U555D
ENCODING 21853
SWIDTH 960 0
DWIDTH 12 0
BBX 12 12 0 -2
BITMAP
0300
1c00
e4e0
a4a0
bfa0
a4a0
aea0
aee0
f580
2460
0400
0400
ENDCHAR
STARTCHAR U5563
ENCODING 21859
SWIDTH 960 0
DWIDTH 12 0
BBX 12 12 0 -2
BITMAP
0800
08e0
efa0
b2a0
afa0
a2a0
aba0
aaa0
aaa0
ebc0
1c80
0080
ENDCHAR
STARTCHAR U557B
ENCODING 21883
SWIDTH 960 0
DWIDTH 12 0
BBX 12 12 0 -2
BITMAP
0400
7fc0
1100
ffe0
8420
3f80
2480
2700
0400
7fc0
4040
7fc0
ENDCHAR
STARTCHAR U557C
ENCODING 21884
SWIDTH 960 0
DWIDTH 12 0
BBX 12 12 0 -2
BITMAP
0200
1fc0
e880
a500
bfe0
b220
bfe0
aa40
aa40
ea40
0ac0
0200
ENDCHAR
STARTCHAR U557E
ENCODING 21886
SWIDTH 960 0
DWIDTH 12 0
BBX 12 12 0 -2
BITMAP
0680
1c80
e4a0
bfa0
a4c0
ae80
ad80
b480
a540
e540
0620
0410
ENDCHAR
STARTCHAR U5580
ENCODING 21888
SWIDTH 960 0
DWIDTH 12 0
BBX 12 12 0 -2
BITMAP
0100
1fe0
f220
b3a0
a480
ab00
a280
a440
bfe0
e440
0440
07c0
ENDCHAR
STARTCHAR U5583
ENCODING 21891
SWIDTH 960 0
DWIDTH 12 0
BBX 12 12 0 -2
BITMAP
0100
0100
ffe0
a100
afe0
aca0
ab20
afe0
a920
efe0
0920
0960
ENDCHAR
STARTCHAR U5584
ENCODING 21892
SWIDTH 960 0
DWIDTH 12 0
BBX 12 12 0 -2
BITMAP
1100
7fc0
0400
3f80
0400
7fc0
2480
ffe0
0000
3f80
2080
3f80
ENDCHAR
STARTCHAR U5587
ENCODING 21895
SWIDTH 960 0
DWIDTH 12 0
BBX 12 12 0 -2
BITMAP
0820
0820
fea0
a8a0
bea0
aaa0
aaa0
bea0
eca0
9a20
2820
0860
ENDCHAR
STARTCHAR U5589
ENCODING 21897
SWIDTH 960 0
DWIDTH 12 0
BBX 12 12 0 -2
BITMAP
0400
07c0
e440
afe0
a900
bbe0
aa80
ac80
afe0
e980
0a40
0c20
ENDCHAR
STARTCHAR U558A
ENCODING 21898
SWIDTH 960 0
DWIDTH 12 0
BBX 12 12 0 -2
BITMAP
00c0
00a0
efe0
a880
afa0
a8a0
afa0
a9c0
ef40
10e0
1120
2220
ENDCHAR
STARTCHAR U558B
ENCODING 21899
SWIDTH 960 0
DWIDTH 12 0
BBX 12 12 0 -2
BITMAP
0a80
0a80
ffe0
aa80
ab80
a800
afe0
a200
ffe0
0e80
3260
0200
ENDCHAR
STARTCHAR U5598
ENCODING 21912
SWIDTH 960 0
DWIDTH 12 0
BBX 12 12 0 -2
BITMAP
0100
0920
e920
afe0
a000
bff0
a200
afe0
aaa0
eaa0
0aa0
0860
ENDCHAR
STARTCHAR U5599
ENCODING 21913
SWIDTH 960 0
DWIDTH 12 0
BBX 12 12 0 -2
BITMAP
07e0
e440
afc0
a100
aff0
a300
ad80
a2b0
edc0
82a0
0c90
0100
ENDCHAR
STARTCHAR U559A
ENCODING 21914
SWIDTH 960 0
DWIDTH 12 0
BBX 12 12 0 -2
BITMAP
0200
03c0
e480
afe0
aaa0
aaa0
ace0
a920
fff0
0280
0460
1810
ENDCHAR
STARTCHAR U559C
ENCODING 21916
SWIDTH 960 0
DWIDTH 12 0
BBX 12 12 0 -2
BITMAP
0400
ffe0
0400
7fc0
2080
3f80
1100
ffe0
0000
3f80
2080
3f80
ENDCHAR
STARTCHAR U559D
ENCODING 21917
SWIDTH 960 0
DWIDTH 12 0
BBX 12 12 0 -2
BITMAP
0fc0
e840
afc0
a840
afc0
a400
a7e0
e920
1e20
28a0
07a0
00c0
ENDCHAR
STARTCHAR U559E
ENCODING 21918
SWIDTH 960 0
DWIDTH 12 0
BBX 12 12 0 -2
BITMAP
0400
04e0
efa0
a9a0
afa0
a9a0
afa0
a8a0
aea0
e8c0
0e80
0880
ENDCHAR
STARTCHAR U559F
ENCODING 21919
SWIDTH 960 0
DWIDTH 12 0
BBX 12 12 0 -2
BITMAP
0000
0fe0
e920
afe0
a920
afe0
a440
a7c0
a440
e7c0
0440
04c0
ENDCHAR
STARTCHAR U55A7
ENCODING 21927
SWIDTH 960 0
DWIDTH 12 0
BBX 12 12 0 -2
BITMAP
0100
ffe0
b020
afc0
a000
afc0
a840
afc0
e840
0fc0
0000
1fe0
ENDCHAR
STARTCHAR U55A8
ENCODING 21928
SWIDTH 960 0
DWIDTH 12 0
BBX 12 12 0 -2
BITMAP
0100
1fe0
e000
a780
a480
a780
bfe0
b020
e500
0500
0920
30e0
ENDCHAR
STARTCHAR U55A9
ENCODING 21929
SWIDTH 960 0
DWIDTH 12 0
BBX 12 12 0 -2
BITMAP
0200
0300
e480
bb60
a000
aea0
aaa0
af40
ab40
ef40
8aa0
0aa0
ENDCHAR
STARTCHAR U55AA
ENCODING 21930
SWIDTH 960 0
DWIDTH 12 0
BBX 12 12 0 -2
BITMAP
0400
ffe0
0400
75c0
5540
75c0
0400
ffe0
2840
2580
2300
f8c0
ENDCHAR
STARTCHAR U55AB
ENCODING 21931
SWIDTH 960 0
DWIDTH 12 0
BBX 12 12 0 -2
BITMAP
0400
ffe0
a4a0
bea0
a520
be40
af80
a200
ffe0
0500
0880
3060
ENDCHAR
STARTCHAR U55AC
ENCODING 21932
SWIDTH 960 0
DWIDTH 12 0
BBX 12 12 0 -2
BITMAP
0380
3c00
0400
ffc0
1f00
3180
df60
7fc0
5f40
5140
5f40
40c0
ENDCHAR
STARTCHAR U55AE
ENCODING 21934
SWIDTH 960 0
DWIDTH 12 0
BBX 12 12 0 -2
BITMAP
7bc0
4a40
7bc0
3f80
2480
3f80
2480
3f80
0400
ffe0
0400
0400
ENDCHAR
STARTCHAR U55B0
ENCODING 21936
SWIDTH 960 0
DWIDTH 12 0
BBX 12 12 0 -2
BITMAP
0200
0500
ef80
b040
afa0
a880
af80
af80
aa40
e980
0cc0
3820
ENDCHAR
STARTCHAR U55B6
ENCODING 21942
SWIDTH 960 0
DWIDTH 12 0
BBX 12 12 0 -2
BITMAP
2880
1500
ffe0
8020
bf20
2100
3f00
0800
7f80
4080
4080
7f80
ENDCHAR
STARTCHAR U55C4
ENCODING 21956
SWIDTH 960 0
DWIDTH 12 0
BBX 12 12 0 -2
BITMAP
0000
1fe0
e200
afc0
a840
afc0
a840
afc0
a3c0
ec80
0780
3860
ENDCHAR
STARTCHAR U55C5
ENCODING 21957
SWIDTH 960 0
DWIDTH 12 0
BBX 12 12 0 -2
BITMAP
0200
efc0
a840
afc0
a840
afc0
a840
afc0
e140
3fe0
0680
1860
ENDCHAR
STARTCHAR U55C7
ENCODING 21959
SWIDTH 960 0
DWIDTH 12 0
BBX 12 12 0 -2
BITMAP
0400
7fc0
2480
2480
5540
ffe0
0000
7fc0
5140
5f40
4040
7fc0
ENDCHAR
STARTCHAR U55D4
ENCODING 21972
SWIDTH 960 0
DWIDTH 12 0
BBX 12 12 0 -2
BITMAP
0460
0780
e420
a3e0
aa40
abc0
aa40
abc0
aa40
eff0
0440
1820
ENDCHAR
STARTCHAR U55DA
ENCODING 21978
SWIDTH 960 0
DWIDTH 12 0
BBX 12 12 0 -2
BITMAP
0200
ef80
a880
a880
af80
a800
afe0
e800
0fe0
1520
12a0
20c0
ENDCHAR
STARTCHAR U55DC
ENCODING 21980
SWIDTH 960 0
DWIDTH 12 0
BBX 12 12 0 -2
BITMAP
0100
0fe0
e140
bfe0
a240
a780
ba20
afe0
a840
efc0
0840
0fc0
ENDCHAR
STARTCHAR U55DF
ENCODING 21983
SWIDTH 960 0
DWIDTH 12 0
BBX 12 12 0 -2
BITMAP
0440
0280
efe0
a100
afc0
a100
bff0
a400
efc0
1100
2100
0fe0
ENDCHAR
STARTCHAR U55E3
ENCODING 21987
SWIDTH 960 0
DWIDTH 12 0
BBX 12 12 0 -2
BITMAP
0000
ffe0
8820
fba0
0020
fba0
aaa0
aaa0
faa0
aba0
a820
a860
ENDCHAR
STARTCHAR U55E4
ENCODING 21988
SWIDTH 960 0
DWIDTH 12 0
BBX 12 12 0 -2
BITMAP
0200
1240
ffc0
a400
bfe0
a200
afc0
aa40
afc0
e280
03c0
1c20
ENDCHAR
STARTCHAR U55F7
ENCODING 22007
SWIDTH 960 0
DWIDTH 12 0
BBX 12 12 0 -2
BITMAP
0480
0480
fe80
a4f0
bf20
a520
bea0
a8a0
ae40
eac0
1320
2610
ENDCHAR
STARTCHAR U55F9
ENCODING 22009
SWIDTH 960 0
DWIDTH 12 0
BBX 12 12 0 -2
BITMAP
1080
0be0
e080
b3e0
aaa0
a3e0
baa0
abe0
a880
ebe0
1680
21f0
ENDCHAR
STARTCHAR U55FD
ENCODING 22013
SWIDTH 960 0
DWIDTH 12 0
BBX 12 12 0 -2
BITMAP
0900
1f00
e9c0
bf40
aac0
aa80
be80
ac80
fb80
2940
4a40
0c20
ENDCHAR
STARTCHAR U55FE
ENCODING 22014
SWIDTH 960 0
DWIDTH 12 0
BBX 12 12 0 -2
BITMAP
0480
0480
fee0
a940
aae0
af40
aa40
abf0
ea40
1240
22a0
0d10
ENDCHAR
STARTCHAR U5606
ENCODING 22022
SWIDTH 960 0
DWIDTH 12 0
BBX 12 12 0 -2
BITMAP
0480
1fe0
e480
afe0
a920
afe0
a100
afe0
e100
8fe0
06c0
1830
ENDCHAR
STARTCHAR U5609
ENCODING 22025
SWIDTH 960 0
DWIDTH 12 0
BBX 12 12 0 -2
BITMAP
0400
ffe0
0400
3f80
2080
7fc0
0900
ffe0
1000
fbe0
2a20
dbe0
ENDCHAR
STARTCHAR U5614
ENCODING 22036
SWIDTH 960 0
DWIDTH 12 0
BBX 12 12 0 -2
BITMAP
0000
0fe0
e800
abc0
aa40
abc0
a800
afe0
ada0
efe0
0800
0fe0
ENDCHAR
STARTCHAR U5616
ENCODING 22038
SWIDTH 960 0
DWIDTH 12 0
BBX 12 12 0 -2
BITMAP
0200
1fc0
e200
afc0
a200
bfe0
a880
af80
a880
ef80
0480
1840
ENDCHAR
STARTCHAR U5617
ENCODING 22039
SWIDTH 960 0
DWIDTH 12 0
BBX 12 12 0 -2
BITMAP
2480
1500
ffe0
9120
dfa0
7e00
4020
3fe0
2080
3f80
2080
3f80
ENDCHAR
STARTCHAR U5618
ENCODING 22040
SWIDTH 960 0
DWIDTH 12 0
BBX 12 12 0 -2
BITMAP
0200
03c0
e200
afe0
aa00
afe0
aa40
a9c0
aaa0
eac0
1680
2fe0
ENDCHAR
STARTCHAR U561B
ENCODING 22043
SWIDTH 960 0
DWIDTH 12 0
BBX 12 12 0 -2
BITMAP
0200
3fe0
e000
a880
bfe0
a880
aaa0
eaa0
2aa0
5aa0
6880
8880
ENDCHAR
STARTCHAR U5629
ENCODING 22057
SWIDTH 960 0
DWIDTH 12 0
BBX 12 12 0 -2
BITMAP
0880
3fe0
e880
bfc0
aa80
bfe0
aa80
bfc0
e200
3fe0
0200
0200
ENDCHAR
STARTCHAR U562F
ENCODING 22063
SWIDTH 960 0
DWIDTH 12 0
BBX 12 12 0 -2
BITMAP
0200
0fc0
e240
afe0
a240
afc0
aaa0
bae0
ffe0
1220
1ae0
2aa0
ENDCHAR
STARTCHAR U5631
ENCODING 22065
SWIDTH 960 0
DWIDTH 12 0
BBX 12 12 0 -2
BITMAP
0000
0ff0
e810
aff0
a8e0
abe0
aaa0
aff0
ed50
15d0
1750
2470
ENDCHAR
STARTCHAR U5632
ENCODING 22066
SWIDTH 960 0
DWIDTH 12 0
BBX 12 12 0 -2
BITMAP
0400
ffe0
a4a0
afa0
a9e0
afa0
a9a0
afe0
e4a0
9f20
0520
0660
ENDCHAR
STARTCHAR U5634
ENCODING 22068
SWIDTH 960 0
DWIDTH 12 0
BBX 12 12 0 -2
BITMAP
0500
17e0
f500
bee0
a3c0
a480
afe0
a920
afe0
e920
0fe0
1020
ENDCHAR
STARTCHAR U5636
ENCODING 22070
SWIDTH 960 0
DWIDTH 12 0
BBX 12 12 0 -2
BITMAP
0a20
0ac0
ff80
aa80
aef0
aaa0
aea0
aaa0
bfa0
e6a0
0920
1220
ENDCHAR
STARTCHAR U5638
ENCODING 22072
SWIDTH 960 0
DWIDTH 12 0
BBX 12 12 0 -2
BITMAP
0800
0800
efe0
bb40
ab40
bfe0
ab40
ab40
bfe0
e000
1540
24a0
ENDCHAR
STARTCHAR U5642
ENCODING 22082
SWIDTH 960 0
DWIDTH 12 0
BBX 12 12 0 -2
BITMAP
0880
1fe0
e500
bfc0
b540
b9c0
bfc0
a080
bfe0
e880
0480
0180
ENDCHAR
STARTCHAR U564C
ENCODING 22092
SWIDTH 960 0
DWIDTH 12 0
BBX 12 12 0 -2
BITMAP
0440
0280
efe0
a920
afe0
a920
afe0
a440
e7c0
0440
0440
07c0
ENDCHAR
STARTCHAR U564E
ENCODING 22094
SWIDTH 960 0
DWIDTH 12 0
BBX 12 12 0 -2
BITMAP
0200
0fc0
e200
bfe0
b020
afc0
a000
afc0
a840
efc0
0480
1fe0
ENDCHAR
STARTCHAR U5650
ENCODING 22096
SWIDTH 960 0
DWIDTH 12 0
BBX 12 12 0 -2
BITMAP
0000
7bc0
4a40
7bc0
0000
7fc0
0400
ffe0
0000
7bc0
4a40
7bc0
ENDCHAR
STARTCHAR U565B
ENCODING 22107
SWIDTH 960 0
DWIDTH 12 0
BBX 12 12 0 -2
BITMAP
0100
05e0
e500
bff0
a920
ad60
aba0
afe0
e920
8ba0
0d60
0fe0
ENDCHAR
STARTCHAR U5664
ENCODING 22116
SWIDTH 960 0
DWIDTH 12 0
BBX 12 12 0 -2
BITMAP
0480
1fe0
e480
aec0
b5a0
a490
afc0
a000
bfe0
e940
1120
0300
ENDCHAR
STARTCHAR U5668
ENCODING 22120
SWIDTH 960 0
DWIDTH 12 0
BBX 12 12 0 -2
BITMAP
0000
7bc0
4a40
7bc0
0400
ffe0
0a00
3180
fbe0
4a40
4a40
7bc0
ENDCHAR
STARTCHAR U566A
ENCODING 22122
SWIDTH 960 0
DWIDTH 12 0
BBX 12 12 0 -2
BITMAP
07c0
0440
e7c0
aee0
aaa0
aee0
a100
bfe0
a380
e540
1930
0100
ENDCHAR
ENDFONT
